{
.formatVersion = 3;
axes = (
{
name = Weight;
tag = wght;
}
);
classes = (
{
code = "alef-hb bet-hb gimel-hb dalet-hb he-hb vav-hb zayin-hb het-hb tet-hb yod-hb finalkaf-hb kaf-hb lamed-hb finalmem-hb mem-hb finalnun-hb nun-hb samekh-hb ayin-hb finalpe-hb pe-hb finaltsadi-hb tsadi-hb qof-hb resh-hb shin-hb tav-hb";
name = HebrewLetters;
},
{

glyphs = (
{
color = 6;
glyphname = A;
layers = (
{
anchors = (
{
name = bottom;
position = "{378, 0}";
},
{
name = ogonek;
position = "{700, 122}";
},
{
name = top;
position = "{378, 700}";
}
);
layerId = "CA6E37E7-75D1-4C8E-8071-E5CF96F45DBF";
shapes = (
{
closed = 1;
nodes = (
(207,0,ls),
(233,0,o),
(242,14,o),
(246,25,cs),
(270,91,l),
(485,91,l),
(509,25,ls),
(513,14,o),
(522,0,o),
(548,0,cs),
(733,0,ls),
(745,0,o),
(755,10,o),
(755,22,cs),
(755,24,o),
(755,26,o),
(754,29,cs),
(531,667,l),
(527,682,o),
(513,700,o),
(486,700,cs),
(269,700,ls),
(242,700,o),
(228,682,o),
(224,667,c),
(1,29,ls),
(0,26,o),
(0,24,o),
(0,22,cs),
(0,10,o),
(10,0,o),
(22,0,cs)
);
},
{
closed = 1;
nodes = (
(377,472,l),
(434,286,l),
(321,286,l)
);
}
);
width = 755;
},
{
anchors = (
{
name = bottom;
position = "{363, 0}";
},
{
name = ogonek;
position = "{676, 104}";
},
{
name = top;
position = "{363, 700}";
}
);
layerId = "5BD13F11-F1FA-4397-9D6F-5672E4B50E04";
shapes = (
{
closed = 1;
nodes = (
(167,0,ls),
(189,0,o),
(198,13,o),
(201,22,cs),
(236,115,l),
(490,115,l),
(525,22,ls),
(528,13,o),
(536,0,o),
(559,0,cs),
(697,0,ls),
(709,0,o),
(719,10,o),
(719,21,cs),
(719,23,o),
(718,27,o),
(717,30,cs),
(486,671,l),
(482,685,o),
(469,700,o),
(446,700,cs),
(280,700,ls),
(256,700,o),
(244,685,o),
(240,671,c),
(8,30,ls),
(7,27,o),
(7,23,o),
(7,21,cs),
(7,10,o),
(17,0,o),
(28,0,cs)
);
},
{
closed = 1;
nodes = (
(362,516,l),
(446,272,l),
(279,272,l)
);
}
);
width = 726;
},
{
anchors = (
{
name = bottom;
position = "{335, 0}";
},
{
name = ogonek;
position = "{631, 69}";
},
{
name = top;
position = "{335, 700}";
}
);
layerId = "C994FF3D-7AF7-4E09-8BD7-9052037F2305";
shapes = (
{
closed = 1;
nodes = (
(91,0,ls),
(106,0,o),
(114,11,o),
(116,17,cs),
(171,159,l),
(499,159,l),
(554,17,ls),
(556,11,o),
(563,0,o),
(579,0,cs),
(630,0,ls),
(641,0,o),
(650,9,o),
(650,20,cs),
(650,22,o),
(649,28,o),
(648,31,cs),
(401,678,ls),
(396,691,o),
(387,700,o),
(369,700,cs),
(301,700,ls),
(283,700,o),
(274,691,o),
(269,678,cs),
(21,31,ls),
(20,28,o),
(20,22,o),
(20,20,cs),
(20,9,o),
(29,0,o),
(40,0,cs)
);
},
{
closed = 1;
nodes = (
(335,600,l),
(470,245,l),
(200,245,l)
);
}
);
width = 670;
},
{
anchors = (
{
name = bottom;
position = "{325, 0}";
},
{
name = ogonek;
position = "{615, 57}";
},
{
name = top;
position = "{325, 700}";
}
);
layerId = "6EF32D45-28F0-4679-BEBE-D25700A745C9";
shapes = (
{
closed = 1;
nodes = (
(64,0,ls),
(77,0,o),
(84,10,o),
(86,15,cs),
(148,175,l),
(502,175,l),
(564,15,ls),
(566,10,o),
(573,0,o),
(586,0,cs),
(606,0,ls),
(617,0,o),
(626,9,o),
(626,20,cs),
(626,22,o),
(625,28,o),
(624,31,cs),
(371,680,ls),
(366,693,o),
(358,700,o),
(342,700,cs),
(308,700,ls),
(292,700,o),
(284,693,o),
(279,680,cs),
(26,31,ls),
(25,28,o),
(24,22,o),
(24,20,cs),
(24,9,o),
(33,0,o),
(44,0,cs)
);
},
{
closed = 1;
nodes = (
(325,629,l),
(478,235,l),
(172,235,l)
);
}
);
width = 650;
}
);
leftKerningGroup = A;
rightKerningGroup = A;
unicode = 65;
},
{
color = 6;
glyphname = Aogonek;
layers = (
{
hints = (
{
horizontal = 1;
place = (0,0);
type = Stem;
}
);
layerId = "CA6E37E7-75D1-4C8E-8071-E5CF96F45DBF";
shapes = (
{
closed = 1;
nodes = (
(718,-220,ls),
(733,-220,o),
(745,-208,o),
(745,-193,cs),
(745,-125,ls),
(745,-110,o),
(733,-98,o),
(718,-98,cs),
(708,-98,ls),
(669,-98,o),
(658,-70,o),
(658,-49,cs),
(658,-29,o),
(668,-2,o),
(702,0,c),
(733,0,ls),
(745,0,o),
(755,10,o),
(755,22,cs),
(755,24,o),
(755,26,o),
(754,29,cs),
(531,667,l),
(527,682,o),
(513,700,o),
(486,700,cs),
(269,700,ls),
(242,700,o),
(228,682,o),
(224,667,c),
(1,29,ls),
(0,26,o),
(0,24,o),
(0,22,cs),
(0,10,o),
(10,0,o),
(22,0,cs),
(207,0,ls),
(233,0,o),
(242,14,o),
(246,25,cs),
(270,91,l),
(485,91,l),
(509,25,l),
(512,15,o),
(519,3,o),
(537,0,c),
(534,-15,o),
(532,-31,o),
(532,-49,cs),
(532,-144,o),
(583,-220,o),
(704,-220,cs)
);
},
{
closed = 1;
nodes = (
(377,472,l),
(434,286,l),
(321,286,l)
);
}
);
width = 755;
},
{
layerId = "5BD13F11-F1FA-4397-9D6F-5672E4B50E04";
shapes = (
{
closed = 1;
nodes = (
(683,-220,ls),
(697,-220,o),
(708,-209,o),
(708,-194,cs),
(708,-142,ls),
(708,-127,o),
(697,-116,o),
(683,-116,cs),
(671,-116,ls),
(631,-116,o),
(614,-88,o),
(614,-58,cs),
(614,-30,o),
(630,-1,o),
(667,0,c),
(697,0,ls),
(709,0,o),
(719,10,o),
(719,21,cs),
(719,23,o),
(718,27,o),
(717,30,cs),
(486,671,l),
(482,685,o),
(469,700,o),
(446,700,cs),
(280,700,ls),
(256,700,o),
(244,685,o),
(240,671,c),
(8,30,ls),
(7,27,o),
(7,23,o),
(7,21,cs),
(7,10,o),
(17,0,o),
(28,0,cs),
(167,0,ls),
(189,0,o),
(198,13,o),
(201,22,cs),
(236,115,l),
(490,115,l),
(519,36,ls),
(522,28,o),
(527,19,o),
(540,16,c),
(519,2,o),
(506,-24,o),
(506,-58,cs),
(506,-151,o),
(557,-220,o),
(667,-220,cs)
);
},
{
closed = 1;
nodes = (
(362,516,l),
(446,272,l),
(279,272,l)
);
}
);
width = 726;
},
{
layerId = "C994FF3D-7AF7-4E09-8BD7-9052037F2305";
shapes = (
{
closed = 1;
nodes = (
(616,-220,ls),
(629,-220,o),
(639,-210,o),
(639,-197,cs),
(639,-174,ls),
(639,-160,o),
(629,-151,o),
(616,-151,cs),
(602,-151,ls),
(559,-151,o),
(530,-121,o),
(530,-76,cs),
(530,-31,o),
(558,0,o),
(600,0,c),
(630,0,ls),
(641,0,o),
(650,9,o),
(650,20,cs),
(650,22,o),
(649,28,o),
(648,31,cs),
(401,678,ls),
(396,691,o),
(387,700,o),
(369,700,cs),
(301,700,ls),
(283,700,o),
(274,691,o),
(269,678,cs),
(21,31,ls),
(20,28,o),
(20,22,o),
(20,20,cs),
(20,9,o),
(29,0,o),
(40,0,cs),
(91,0,ls),
(106,0,o),
(114,11,o),
(116,17,cs),
(171,159,l),
(499,159,l),
(538,56,ls),
(540,52,o),
(542,48,o),
(546,45,c),
(492,34,o),
(458,-11,o),
(458,-76,cs),
(458,-163,o),
(509,-220,o),
(598,-220,cs)
);
},
{
closed = 1;
nodes = (
(335,600,l),
(470,245,l),
(200,245,l)
);
}
);
width = 670;
},
{
layerId = "6EF32D45-28F0-4679-BEBE-D25700A745C9";
shapes = (
{
closed = 1;
nodes = (
(592,-220,ls),
(605,-220,o),
(614,-211,o),
(614,-198,cs),
(614,-185,ls),
(614,-172,o),
(605,-163,o),
(592,-163,cs),
(577,-163,ls),
(533,-163,o),
(501,-133,o),
(501,-82,cs),
(501,-31,o),
(533,0,o),
(577,0,cs),
(606,0,ls),
(617,0,o),
(626,9,o),
(626,20,cs),
(626,22,o),
(625,28,o),
(624,31,cs),
(371,680,ls),
(366,693,o),
(358,700,o),
(342,700,cs),
(308,700,ls),
(292,700,o),
(284,693,o),
(279,680,cs),
(26,31,ls),
(25,28,o),
(24,22,o),
(24,20,cs),
(24,9,o),
(33,0,o),
(44,0,cs),
(64,0,ls),
(77,0,o),
(84,10,o),
(86,15,cs),
(148,175,l),
(502,175,l),
(545,63,l),
(546,60,o),
(547,58,o),
(548,55,c),
(482,45,o),
(441,-6,o),
(441,-82,cs),
(441,-167,o),
(492,-220,o),
(573,-220,cs)
);
},
{
closed = 1;
nodes = (
(325,629,l),
(478,235,l),
(172,235,l)
);
}
);
width = 650;
}
);
leftKerningGroup = A;
rightKerningGroup = A;
unicode = 260;
},
{
color = 6;
glyphname = AE;
layers = (
{
anchors = (
{
name = bottom;
position = "{503, 0}";
},
{
name = top;
position = "{503, 700}";
}
);
layerId = "CA6E37E7-75D1-4C8E-8071-E5CF96F45DBF";
shapes = (
{
closed = 1;
nodes = (
(211,0,ls),
(237,0,o),
(246,14,o),
(250,25,cs),
(258,47,o),
(266,69,o),
(274,91,c),
(423,91,l),
(423,27,ls),
(423,12,o),
(435,0,o),
(450,0,cs),
(941,0,ls),
(956,0,o),
(968,12,o),
(968,27,cs),
(968,168,ls),
(968,183,o),
(956,195,o),
(941,195,cs),
(663,195,l),
(663,258,l),
(911,258,ls),
(926,258,o),
(938,270,o),
(938,285,cs),
(938,415,ls),
(938,430,o),
(926,442,o),
(911,442,cs),
(663,442,l),
(663,505,l),
(933,505,ls),
(948,505,o),
(960,517,o),
(960,532,cs),
(960,673,ls),
(960,688,o),
(948,700,o),
(933,700,cs),
(273,700,ls),
(246,700,o),
(232,682,o),
(228,667,c),
(154,454,o),
(79,242,o),
(5,29,cs),
(4,26,o),
(4,24,o),
(4,22,cs),
(4,10,o),
(14,0,o),
(26,0,cs)
);
},
{
closed = 1;
nodes = (
(391,505,l),
(423,505,l),
(423,286,l),
(325,286,l)
);
}
);
width = 1005;
},
{
anchors = (
{
name = bottom;
position = "{491, 0}";
},
{
name = top;
position = "{491, 700}";
}
);
layerId = "5BD13F11-F1FA-4397-9D6F-5672E4B50E04";
shapes = (
{
closed = 1;
nodes = (
(165,0,ls),
(186,0,o),
(195,12,o),
(199,22,cs),
(205,38,o),
(211,54,o),
(242,115,c),
(423,115,l),
(423,26,ls),
(423,11,o),
(434,0,o),
(448,0,cs),
(913,0,ls),
(928,0,o),
(939,11,o),
(939,26,cs),
(939,131,ls),
(939,146,o),
(928,157,o),
(913,157,cs),
(613,157,l),
(613,277,l),
(883,277,ls),
(898,277,o),
(909,288,o),
(909,302,cs),
(909,400,ls),
(909,415,o),
(898,426,o),
(883,426,cs),
(613,426,l),
(613,543,l),
(905,543,ls),
(920,543,o),
(931,554,o),
(931,569,cs),
(931,674,ls),
(931,689,o),
(920,700,o),
(905,700,cs),
(309,700,ls),
(287,700,o),
(275,686,o),
(269,671,c),
(116,340,o),
(59,184,o),
(6,30,cs),
(5,27,o),
(4,24,o),
(4,21,cs),
(4,10,o),
(14,0,o),
(26,0,cs)
);
},
{
closed = 1;
nodes = (
(399,541,l),
(423,541,l),
(423,272,l),
(288,272,l)
);
}
);
width = 981;
},
{
anchors = (
{
name = bottom;
position = "{468, 0}";
},
{
name = top;
position = "{468, 700}";
}
);
layerId = "C994FF3D-7AF7-4E09-8BD7-9052037F2305";
shapes = (
{
closed = 1;
nodes = (
(79,0,ls),
(91,0,o),
(99,8,o),
(104,17,c),
(105,21,o),
(108,27,o),
(181,159,c),
(422,159,l),
(422,23,ls),
(422,10,o),
(432,0,o),
(445,0,cs),
(861,0,ls),
(875,0,o),
(884,10,o),
(884,23,cs),
(884,62,ls),
(884,76,o),
(875,85,o),
(861,85,cs),
(518,85,l),
(518,312,l),
(831,312,ls),
(845,312,o),
(854,322,o),
(854,335,cs),
(854,372,ls),
(854,386,o),
(845,396,o),
(831,396,cs),
(518,396,l),
(518,615,l),
(853,615,ls),
(867,615,o),
(876,624,o),
(876,638,cs),
(876,676,ls),
(876,690,o),
(867,700,o),
(853,700,cs),
(377,700,ls),
(365,700,o),
(355,693,o),
(347,678,c),
(43,125,o),
(22,73,o),
(8,33,cs),
(6,29,o),
(5,25,o),
(5,20,cs),
(5,9,o),
(14,0,o),
(25,0,cs)
);
},
{
closed = 1;
nodes = (
(415,609,l),
(422,609,l),
(422,245,l),
(219,245,l)
);
}
);
width = 936;
},
{
anchors = (
{
name = bottom;
position = "{460, 0}";
},
{
name = top;
position = "{460, 700}";
}
);
layerId = "6EF32D45-28F0-4679-BEBE-D25700A745C9";
shapes = (
{
closed = 1;
nodes = (
(48,0,ls),
(57,0,o),
(65,6,o),
(70,15,c),
(70,15,o),
(71,17,o),
(160,175,c),
(422,175,l),
(422,22,ls),
(422,9,o),
(431,0,o),
(444,0,cs),
(842,0,ls),
(856,0,o),
(865,9,o),
(865,22,cs),
(865,37,ls),
(865,51,o),
(856,60,o),
(842,60,cs),
(485,60,l),
(485,325,l),
(812,325,ls),
(826,325,o),
(835,334,o),
(835,347,cs),
(835,362,ls),
(835,376,o),
(826,385,o),
(812,385,cs),
(485,385,l),
(485,640,l),
(834,640,ls),
(848,640,o),
(857,649,o),
(857,662,cs),
(857,677,ls),
(857,691,o),
(848,700,o),
(834,700,cs),
(401,700,ls),
(392,700,o),
(383,696,o),
(375,681,cs),
(17,49,o),
(9,34,o),
(9,34,c),
(7,30,o),
(5,25,o),
(5,20,cs),
(5,9,o),
(14,0,o),
(25,0,cs)
);
},
{
closed = 1;
nodes = (
(421,633,l),
(422,633,l),
(422,235,l),
(194,235,l)
);
}
);
width = 920;
}
);
leftKerningGroup = AE;
rightKerningGroup = E;
unicode = 198;
},
{
color = 6;
glyphname = B;
layers = (
{
anchors = (
{
name = bottom;
position = "{367, 0}";
},
{
name = top;
position = "{367, 700}";
}
);
hints = (
{
horizontal = 1;
place = (0,0);
type = Stem;
}
);
layerId = "CA6E37E7-75D1-4C8E-8071-E5CF96F45DBF";
shapes = (
{
closed = 1;
nodes = (
(424,0,ls),
(605,0,o),
(706,70,o),
(706,220,cs),
(706,286,o),
(662,344,o),
(611,365,c),
(643,381,o),
(691,426,o),
(691,490,cs),
(691,630,o),
(605,700,o),
(414,700,cs),
(82,700,ls),
(67,700,o),
(55,688,o),
(55,673,cs),
(55,27,ls),
(55,12,o),
(67,0,o),
(82,0,cs)
);
},
{
closed = 1;
nodes = (
(305,270,l),
(398,270,ls),
(428,270,o),
(444,245,o),
(444,221,cs),
(444,199,o),
(431,172,o),
(398,172,cs),
(305,172,l)
);
},
{
closed = 1;
nodes = (
(305,528,l),
(389,528,ls),
(418,528,o),
(430,503,o),
(430,482,cs),
(430,461,o),
(418,437,o),
(389,437,cs),
(305,437,l)
);
}
);
width = 734;
},
{
anchors = (
{
name = bottom;
position = "{356, 0}";
},
{
name = top;
position = "{356, 700}";
}
);
layerId = "5BD13F11-F1FA-4397-9D6F-5672E4B50E04";
shapes = (
{
closed = 1;
nodes = (
(413,0,ls),
(581,0,o),
(674,78,o),
(674,214,cs),
(674,285,o),
(628,343,o),
(577,366,c),
(611,383,o),
(659,428,o),
(659,499,cs),
(659,626,o),
(580,700,o),
(404,700,cs),
(92,700,ls),
(77,700,o),
(66,689,o),
(66,674,cs),
(66,26,ls),
(66,11,o),
(77,0,o),
(92,0,cs)
);
},
{
closed = 1;
nodes = (
(263,289,l),
(391,289,ls),
(441,289,o),
(468,255,o),
(468,214,cs),
(468,176,o),
(443,141,o),
(391,141,cs),
(263,141,l)
);
},
{
closed = 1;
nodes = (
(263,560,l),
(382,560,ls),
(431,560,o),
(454,530,o),
(454,493,cs),
(454,456,o),
(431,426,o),
(382,426,cs),
(263,426,l)
);
}
);
width = 711;
},
{
anchors = (
{
name = bottom;
position = "{335, 0}";
},
{
name = top;
position = "{335, 700}";
}
);
layerId = "C994FF3D-7AF7-4E09-8BD7-9052037F2305";
shapes = (
{
closed = 1;
nodes = (
(392,0,ls),
(536,0,o),
(613,92,o),
(613,202,cs),
(613,283,o),
(565,342,o),
(513,368,c),
(551,387,o),
(599,433,o),
(599,515,cs),
(599,619,o),
(534,700,o),
(384,700,cs),
(110,700,ls),
(96,700,o),
(87,690,o),
(87,676,cs),
(87,23,ls),
(87,10,o),
(96,0,o),
(110,0,cs)
);
},
{
closed = 1;
nodes = (
(185,324,l),
(379,324,ls),
(465,324,o),
(513,273,o),
(513,202,cs),
(513,133,o),
(465,81,o),
(379,81,cs),
(185,81,l)
);
},
{
closed = 1;
nodes = (
(185,619,l),
(369,619,ls),
(455,619,o),
(499,582,o),
(499,514,cs),
(499,446,o),
(455,404,o),
(369,404,cs),
(185,404,l)
);
}
);
width = 668;
},
{
anchors = (
{
name = bottom;
position = "{327, 0}";
},
{
name = top;
position = "{327, 700}";
}
);
layerId = "6EF32D45-28F0-4679-BEBE-D25700A745C9";
shapes = (
{
closed = 1;
nodes = (
(384,0,l),
(520,0,o),
(592,97,o),
(592,198,cs),
(592,282,o),
(543,342,o),
(490,369,c),
(530,388,o),
(578,435,o),
(578,521,cs),
(578,616,o),
(517,700,o),
(377,700,cs),
(116,700,ls),
(103,700,o),
(94,691,o),
(94,677,cs),
(94,22,ls),
(94,9,o),
(103,0,o),
(116,0,cs)
);
},
{
closed = 1;
nodes = (
(157,336,l),
(374,336,l),
(473,336,o),
(529,279,o),
(529,198,cs),
(529,118,o),
(473,60,o),
(374,60,cs),
(157,60,l)
);
},
{
closed = 1;
nodes = (
(157,640,l),
(364,640,l),
(463,640,o),
(515,600,o),
(515,521,cs),
(515,442,o),
(463,396,o),
(364,396,cs),
(157,396,l)
);
}
);
width = 653;
}
);
leftKerningGroup = I;
unicode = 66;
},
{
color = 6;
glyphname = C;
layers = (
{
anchors = (
{
name = bottom;
position = "{367, 0}";
},
{
name = top;
position = "{367, 700}";
}
);
layerId = "CA6E37E7-75D1-4C8E-8071-E5CF96F45DBF";
shapes = (
{
closed = 1;
nodes = (
(542,-10,o),
(706,64,o),
(709,246,cs),
(709,258,o),
(699,268,o),
(687,268,c),
(483,268,l),
(461,268,o),
(453,262,o),
(446,239,cs),
(433,199,o),
(405,185,o),
(371,185,cs),
(327,185,o),
(299,205,o),
(297,266,cs),
(295,323,o),
(295,379,o),
(297,434,c),
(299,495,o),
(327,515,o),
(371,515,cs),
(405,515,o),
(431,504,o),
(446,461,cs),
(454,439,o),
(461,432,o),
(483,432,c),
(687,432,l),
(699,432,o),
(709,442,o),
(709,454,cs),
(706,636,o),
(542,710,o),
(372,710,cs),
(185,710,o),
(45,625,o),
(37,439,c),
(35,382,o),
(35,315,o),
(37,261,c),
(45,70,o),
(180,-10,o),
(372,-10,cs)
);
}
);
width = 733;
},
{
anchors = (
{
name = bottom;
position = "{356, 0}";
},
{
name = top;
position = "{356, 700}";
}
);
layerId = "5BD13F11-F1FA-4397-9D6F-5672E4B50E04";
shapes = (
{
closed = 1;
nodes = (
(536,-10,o),
(674,77,o),
(678,235,cs),
(678,247,o),
(668,256,o),
(656,256,cs),
(504,256,ls),
(485,256,o),
(477,251,o),
(471,229,cs),
(454,167,o),
(414,147,o),
(360,147,cs),
(294,147,o),
(253,180,o),
(250,266,cs),
(248,323,o),
(248,379,o),
(250,434,cs),
(253,520,o),
(294,553,o),
(360,553,cs),
(414,553,o),
(453,535,o),
(471,471,c),
(478,450,o),
(485,444,o),
(504,444,cs),
(656,444,ls),
(668,444,o),
(678,453,o),
(678,465,cs),
(674,623,o),
(536,710,o),
(361,710,cs),
(175,710,o),
(53,617,o),
(45,439,cs),
(43,382,o),
(43,315,o),
(45,261,cs),
(53,80,o),
(171,-10,o),
(361,-10,cs)
);
}
);
width = 710;
},
{
anchors = (
{
name = bottom;
position = "{334, 0}";
},
{
name = top;
position = "{334, 700}";
}
);
layerId = "C994FF3D-7AF7-4E09-8BD7-9052037F2305";
shapes = (
{
closed = 1;
nodes = (
(525,-10,o),
(614,102,o),
(619,214,cs),
(620,226,o),
(610,234,o),
(598,234,cs),
(543,234,ls),
(530,234,o),
(522,229,o),
(518,211,cs),
(495,107,o),
(432,75,o),
(339,75,cs),
(231,75,o),
(165,132,o),
(161,266,cs),
(159,323,o),
(159,379,o),
(161,434,cs),
(165,568,o),
(231,625,o),
(339,625,cs),
(432,625,o),
(494,593,o),
(518,489,cs),
(522,472,o),
(530,466,o),
(543,466,cs),
(598,466,ls),
(610,466,o),
(620,475,o),
(619,487,cs),
(614,598,o),
(525,710,o),
(339,710,cs),
(156,710,o),
(67,601,o),
(61,439,cs),
(59,382,o),
(59,315,o),
(61,261,cs),
(67,98,o),
(155,-10,o),
(339,-10,cs)
);
}
);
width = 666;
},
{
anchors = (
{
name = bottom;
position = "{326, 0}";
},
{
name = top;
position = "{326, 700}";
}
);
layerId = "6EF32D45-28F0-4679-BEBE-D25700A745C9";
shapes = (
{
closed = 1;
nodes = (
(521,-10,o),
(593,111,o),
(598,206,cs),
(599,218,o),
(589,226,o),
(577,226,cs),
(557,226,ls),
(546,226,o),
(538,221,o),
(535,205,cs),
(509,86,o),
(438,50,o),
(331,50,cs),
(209,50,o),
(134,115,o),
(129,266,cs),
(127,323,o),
(127,379,o),
(129,434,cs),
(134,585,o),
(209,650,o),
(331,650,cs),
(438,650,o),
(509,614,o),
(535,495,cs),
(538,479,o),
(546,474,o),
(557,474,cs),
(577,474,ls),
(589,474,o),
(599,482,o),
(598,494,cs),
(593,589,o),
(521,710,o),
(331,710,cs),
(149,710,o),
(72,595,o),
(66,439,cs),
(64,382,o),
(64,315,o),
(66,261,cs),
(72,105,o),
(149,-10,o),
(331,-10,cs)
);
}
);
width = 651;
}
);
leftKerningGroup = O;
rightKerningGroup = C;
unicode = 67;
},
{
color = 6;
glyphname = Ccedilla;
layers = (
{
hints = (
{
horizontal = 1;
place = (0,0);
type = Stem;
}
);
layerId = "CA6E37E7-75D1-4C8E-8071-E5CF96F45DBF";
shapes = (
{
closed = 1;
nodes = (
(426,-220,o),
(465,-183,o),
(465,-130,cs),
(465,-77,o),
(435,-40,o),
(384,-40,cs),
(380,-40,o),
(362,-42,o),
(354,-45,c),
(372,-10,l),
(542,-10,o),
(706,64,o),
(709,246,cs),
(709,258,o),
(699,268,o),
(687,268,c),
(483,268,l),
(461,268,o),
(453,262,o),
(446,239,cs),
(433,199,o),
(405,185,o),
(371,185,cs),
(327,185,o),
(299,205,o),
(297,266,cs),
(295,323,o),
(295,379,o),
(297,434,cs),
(299,495,o),
(327,515,o),
(371,515,cs),
(405,515,o),
(431,504,o),
(446,461,cs),
(454,439,o),
(461,432,o),
(483,432,c),
(687,432,l),
(699,432,o),
(709,442,o),
(709,454,cs),
(706,636,o),
(542,710,o),
(372,710,cs),
(185,710,o),
(45,625,o),
(37,439,cs),
(35,382,o),
(35,315,o),
(37,261,cs),
(44,91,o),
(151,10,o),
(309,-6,c),
(289,-52,l),
(280,-71,o),
(282,-76,o),
(291,-85,c),
(312,-106,l),
(325,-119,o),
(348,-106,o),
(366,-106,cs),
(386,-106,o),
(394,-118,o),
(394,-130,cs),
(394,-142,o),
(385,-154,o),
(366,-154,cs),
(332,-154,o),
(327,-136,o),
(310,-151,c),
(289,-169,l),
(266,-189,o),
(313,-220,o),
(366,-220,cs)
);
}
);
width = 733;
},
{
layerId = "5BD13F11-F1FA-4397-9D6F-5672E4B50E04";
shapes = (
{
closed = 1;
nodes = (
(416,-220,o),
(453,-182,o),
(453,-131,cs),
(453,-79,o),
(422,-43,o),
(373,-43,cs),
(366,-43,o),
(349,-45,o),
(341,-49,c),
(361,-10,l),
(536,-10,o),
(674,77,o),
(678,235,cs),
(678,247,o),
(668,256,o),
(656,256,cs),
(504,256,ls),
(485,256,o),
(477,251,o),
(471,229,cs),
(454,167,o),
(414,147,o),
(360,147,cs),
(294,147,o),
(253,180,o),
(250,266,cs),
(248,323,o),
(248,379,o),
(250,434,cs),
(253,520,o),
(294,553,o),
(360,553,cs),
(414,553,o),
(453,535,o),
(471,471,c),
(478,450,o),
(485,444,o),
(504,444,cs),
(656,444,ls),
(668,444,o),
(678,453,o),
(678,465,cs),
(674,623,o),
(536,710,o),
(361,710,cs),
(175,710,o),
(53,617,o),
(45,439,cs),
(43,382,o),
(43,315,o),
(45,261,cs),
(52,99,o),
(146,11,o),
(300,-6,c),
(280,-52,l),
(272,-69,o),
(272,-76,o),
(280,-84,cs),
(300,-104,l),
(313,-118,o),
(333,-103,o),
(355,-103,cs),
(376,-103,o),
(387,-116,o),
(387,-131,cs),
(387,-147,o),
(375,-160,o),
(355,-160,cs),
(319,-160,o),
(313,-137,o),
(296,-152,cs),
(277,-169,ls),
(256,-188,o),
(301,-220,o),
(355,-220,cs)
);
}
);
width = 710;
},
{
layerId = "C994FF3D-7AF7-4E09-8BD7-9052037F2305";
shapes = (
{
closed = 1;
nodes = (
(398,-221,o),
(430,-181,o),
(430,-132,cs),
(430,-83,o),
(398,-48,o),
(353,-48,cs),
(340,-48,o),
(325,-51,o),
(317,-56,c),
(339,-10,l),
(525,-10,o),
(614,102,o),
(619,214,cs),
(620,226,o),
(610,234,o),
(598,234,cs),
(543,234,ls),
(530,234,o),
(522,229,o),
(518,211,cs),
(495,107,o),
(432,75,o),
(339,75,cs),
(231,75,o),
(165,132,o),
(161,266,cs),
(159,323,o),
(159,379,o),
(161,434,cs),
(165,568,o),
(231,625,o),
(339,625,cs),
(432,625,o),
(494,593,o),
(518,489,cs),
(522,472,o),
(530,466,o),
(543,466,cs),
(598,466,ls),
(610,466,o),
(620,475,o),
(619,487,cs),
(614,598,o),
(525,710,o),
(339,710,cs),
(156,710,o),
(67,601,o),
(61,439,cs),
(59,382,o),
(59,315,o),
(61,261,cs),
(66,115,o),
(136,14,o),
(283,-6,c),
(263,-53,ls),
(258,-65,o),
(252,-75,o),
(259,-83,cs),
(276,-101,ls),
(291,-117,o),
(306,-98,o),
(335,-98,cs),
(358,-98,o),
(375,-112,o),
(375,-133,cs),
(375,-156,o),
(357,-170,o),
(335,-170,cs),
(293,-170,o),
(286,-139,o),
(269,-155,cs),
(254,-169,ls),
(237,-185,o),
(279,-219,o),
(335,-220,cs)
);
}
);
width = 666;
},
{
layerId = "6EF32D45-28F0-4679-BEBE-D25700A745C9";
shapes = (
{
closed = 1;
nodes = (
(391,-221,o),
(422,-180,o),
(422,-132,cs),
(422,-84,o),
(390,-50,o),
(346,-50,cs),
(331,-50,o),
(316,-53,o),
(308,-58,c),
(331,-10,l),
(521,-10,o),
(593,111,o),
(598,206,cs),
(599,218,o),
(589,226,o),
(577,226,c),
(557,226,l),
(546,226,o),
(538,221,o),
(535,205,cs),
(509,86,o),
(438,50,o),
(331,50,cs),
(209,50,o),
(134,115,o),
(129,266,cs),
(127,323,o),
(127,379,o),
(129,434,cs),
(134,585,o),
(209,650,o),
(331,650,cs),
(438,650,o),
(509,614,o),
(535,495,cs),
(538,479,o),
(546,474,o),
(557,474,c),
(577,474,l),
(589,474,o),
(599,482,o),
(598,494,cs),
(593,589,o),
(521,710,o),
(331,710,cs),
(149,710,o),
(72,595,o),
(66,439,cs),
(64,382,o),
(64,315,o),
(66,261,cs),
(71,121,o),
(133,15,o),
(277,-6,c),
(257,-53,l),
(253,-63,o),
(245,-75,o),
(252,-83,c),
(268,-100,l),
(283,-116,o),
(296,-96,o),
(328,-96,cs),
(351,-96,o),
(371,-110,o),
(371,-134,cs),
(371,-159,o),
(351,-174,o),
(328,-174,cs),
(284,-174,o),
(277,-140,o),
(260,-156,c),
(246,-169,l),
(230,-184,o),
(271,-219,o),
(328,-220,cs)
);
}
);
width = 651;
}
);
leftKerningGroup = O;
rightKerningGroup = C;
unicode = 199;
},
{
color = 6;
glyphname = D;
layers = (
{
anchors = (
{
name = bottom;
position = "{370, 0}";
},
{
name = center;
position = "{370, 350}";
},
{
name = top;
position = "{364, 700}";
}
);
hints = (
{
horizontal = 1;
place = (0,0);
type = Stem;
}
);
layerId = "CA6E37E7-75D1-4C8E-8071-E5CF96F45DBF";
shapes = (
{
closed = 1;
nodes = (
(375,0,ls),
(566,0,o),
(696,87,o),
(704,276,cs),
(706,330,o),
(706,368,o),
(704,425,cs),
(697,604,o),
(557,700,o),
(370,700,c),
(82,700,ls),
(67,700,o),
(55,688,o),
(55,673,cs),
(55,27,ls),
(55,12,o),
(67,0,o),
(82,0,cs)
);
},
{
closed = 1;
nodes = (
(305,505,l),
(365,505,ls),
(410,505,o),
(447,481,o),
(450,425,cs),
(453,370,o),
(453,333,o),
(450,276,cs),
(447,220,o),
(414,195,o),
(370,195,cs),
(305,195,l)
);
}
);
width = 740;
},
{
anchors = (
{
name = bottom;
position = "{361, 0}";
},
{
name = center;
position = "{361, 350}";
},
{
name = top;
position = "{357, 700}";
}
);
layerId = "5BD13F11-F1FA-4397-9D6F-5672E4B50E04";
shapes = (
{
closed = 1;
nodes = (
(364,0,ls),
(559,0,o),
(670,87,o),
(677,275,cs),
(678,330,o),
(678,369,o),
(677,426,cs),
(671,604,o),
(553,700,o),
(359,700,cs),
(92,700,ls),
(77,700,o),
(66,689,o),
(66,674,cs),
(66,26,ls),
(66,11,o),
(77,0,o),
(92,0,cs)
);
},
{
closed = 1;
nodes = (
(263,543,l),
(354,543,ls),
(431,543,o),
(473,506,o),
(476,425,cs),
(479,369,o),
(479,334,o),
(476,276,cs),
(473,192,o),
(435,157,o),
(359,157,cs),
(263,157,l)
);
}
);
width = 722;
},
{
anchors = (
{
name = bottom;
position = "{345, 0}";
},
{
name = center;
position = "{345, 350}";
},
{
name = top;
position = "{344, 700}";
}
);
layerId = "C994FF3D-7AF7-4E09-8BD7-9052037F2305";
shapes = (
{
closed = 1;
nodes = (
(342,0,ls),
(545,0,o),
(620,87,o),
(625,272,cs),
(626,331,o),
(626,370,o),
(625,429,cs),
(621,604,o),
(544,700,o),
(337,700,cs),
(110,700,ls),
(96,700,o),
(87,690,o),
(87,676,cs),
(87,23,ls),
(87,10,o),
(96,0,o),
(110,0,cs)
);
},
{
closed = 1;
nodes = (
(185,615,l),
(332,615,ls),
(470,615,o),
(523,554,o),
(526,425,cs),
(528,366,o),
(528,335,o),
(526,276,cs),
(523,139,o),
(474,85,o),
(337,85,cs),
(185,85,l)
);
}
);
width = 689;
},
{
anchors = (
{
name = bottom;
position = "{339, 0}";
},
{
name = center;
position = "{339, 350}";
},
{
name = top;
position = "{339, 700}";
}
);
layerId = "6EF32D45-28F0-4679-BEBE-D25700A745C9";
shapes = (
{
closed = 1;
nodes = (
(334,0,ls),
(540,0,o),
(603,87,o),
(607,271,cs),
(608,331,o),
(608,370,o),
(607,430,cs),
(604,604,o),
(541,700,o),
(329,700,c),
(116,700,ls),
(103,700,o),
(94,691,o),
(94,677,cs),
(94,22,ls),
(94,9,o),
(103,0,o),
(116,0,cs)
);
},
{
closed = 1;
nodes = (
(157,640,l),
(324,640,ls),
(484,640,o),
(541,571,o),
(544,425,cs),
(545,365,o),
(545,336,o),
(544,276,cs),
(541,120,o),
(488,60,o),
(329,60,cs),
(157,60,l)
);
}
);
width = 677;
}
);
leftKerningGroup = I;
rightKerningGroup = D;
unicode = 68;
},
{
color = 6;
glyphname = Eth;
layers = (
{
hints = (
{
horizontal = 1;
place = (0,0);
type = Stem;
}
);
layerId = "CA6E37E7-75D1-4C8E-8071-E5CF96F45DBF";
shapes = (
{
closed = 1;
nodes = (
(395,0,ls),
(586,0,o),
(729,87,o),
(729,276,cs),
(729,326,o),
(729,375,o),
(729,425,cs),
(729,604,o),
(581,700,o),
(394,700,cs),
(106,700,ls),
(91,700,o),
(79,688,o),
(79,673,cs),
(79,429,l),
(41,429,l),
(26,429,o),
(14,417,o),
(14,402,cs),
(14,301,ls),
(14,286,o),
(26,274,o),
(41,274,cs),
(79,274,l),
(79,27,ls),
(79,12,o),
(91,0,o),
(106,0,cs)
);
},
{
closed = 1;
nodes = (
(329,274,l),
(385,274,ls),
(400,274,o),
(412,286,o),
(412,301,cs),
(412,402,ls),
(412,417,o),
(400,429,o),
(385,429,cs),
(329,429,l),
(329,505,l),
(394,505,ls),
(439,505,o),
(469,481,o),
(469,425,cs),
(469,375,o),
(469,326,o),
(469,276,cs),
(469,220,o),
(438,195,o),
(394,195,cs),
(329,195,l)
);
}
);
width = 766;
},
{
layerId = "5BD13F11-F1FA-4397-9D6F-5672E4B50E04";
shapes = (
{
closed = 1;
nodes = (
(379,0,ls),
(575,0,o),
(695,87,o),
(696,275,cs),
(697,327,o),
(697,374,o),
(696,426,cs),
(695,604,o),
(571,700,o),
(377,700,cs),
(111,700,ls),
(96,700,o),
(85,689,o),
(85,674,cs),
(85,416,l),
(40,416,ls),
(25,416,o),
(14,405,o),
(14,390,cs),
(14,313,ls),
(14,299,o),
(25,288,o),
(40,288,cs),
(85,288,l),
(85,26,ls),
(85,11,o),
(96,0,o),
(111,0,cs)
);
},
{
closed = 1;
nodes = (
(282,288,l),
(365,288,ls),
(379,288,o),
(390,299,o),
(390,313,cs),
(390,390,ls),
(390,405,o),
(379,416,o),
(365,416,cs),
(282,416,l),
(282,543,l),
(376,543,ls),
(453,543,o),
(491,506,o),
(492,425,cs),
(492,372,o),
(492,329,o),
(492,276,cs),
(491,192,o),
(454,157,o),
(377,157,cs),
(282,157,l)
);
}
);
width = 743;
},
{
layerId = "C994FF3D-7AF7-4E09-8BD7-9052037F2305";
shapes = (
{
closed = 1;
nodes = (
(350,0,ls),
(554,0,o),
(632,87,o),
(635,272,cs),
(636,330,o),
(636,371,o),
(635,429,cs),
(632,604,o),
(553,700,o),
(346,700,cs),
(119,700,ls),
(106,700,o),
(96,690,o),
(96,676,cs),
(96,391,l),
(38,391,ls),
(24,391,o),
(15,381,o),
(15,368,cs),
(15,336,ls),
(15,323,o),
(24,313,o),
(38,313,cs),
(96,313,l),
(96,23,ls),
(96,10,o),
(106,0,o),
(119,0,cs)
);
},
{
closed = 1;
nodes = (
(194,313,l),
(327,313,ls),
(340,313,o),
(349,323,o),
(349,336,cs),
(349,368,ls),
(349,381,o),
(340,391,o),
(327,391,cs),
(194,391,l),
(194,615,l),
(342,615,ls),
(480,615,o),
(532,554,o),
(535,425,cs),
(536,367,o),
(536,334,o),
(535,276,cs),
(532,139,o),
(484,85,o),
(346,85,cs),
(194,85,l)
);
}
);
width = 699;
},
{
layerId = "6EF32D45-28F0-4679-BEBE-D25700A745C9";
shapes = (
{
closed = 1;
nodes = (
(340,0,ls),
(546,0,o),
(609,87,o),
(613,271,cs),
(614,331,o),
(614,370,o),
(613,430,cs),
(610,604,o),
(547,700,o),
(335,700,c),
(122,700,ls),
(109,700,o),
(100,691,o),
(100,677,cs),
(100,382,l),
(37,382,ls),
(24,382,o),
(15,373,o),
(15,360,cs),
(15,344,ls),
(15,331,o),
(24,322,o),
(37,322,cs),
(100,322,l),
(100,22,ls),
(100,9,o),
(109,0,o),
(122,0,cs)
);
},
{
closed = 1;
nodes = (
(163,322,l),
(313,322,ls),
(326,322,o),
(335,331,o),
(335,344,cs),
(335,360,ls),
(335,373,o),
(326,382,o),
(313,382,cs),
(163,382,l),
(163,640,l),
(330,640,ls),
(490,640,o),
(547,571,o),
(550,425,cs),
(551,365,o),
(551,336,o),
(550,276,cs),
(547,120,o),
(494,60,o),
(335,60,cs),
(163,60,l)
);
}
);
width = 683;
}
);
leftKerningGroup = I;
rightKerningGroup = D;
unicode = 208;
},
{
color = 6;
glyphname = Dcroat;
layers = (
{
hints = (
{
horizontal = 1;
place = (0,0);
type = Stem;
}
);
layerId = "CA6E37E7-75D1-4C8E-8071-E5CF96F45DBF";
shapes = (
{
closed = 1;
nodes = (
(395,0,ls),
(586,0,o),
(720,87,o),
(728,276,cs),
(730,330,o),
(730,368,o),
(728,425,cs),
(721,604,o),
(581,700,o),
(394,700,c),
(106,700,ls),
(91,700,o),
(79,688,o),
(79,673,cs),
(79,430,l),
(41,430,ls),
(26,430,o),
(14,418,o),
(14,403,cs),
(14,302,ls),
(14,287,o),
(26,275,o),
(41,275,cs),
(79,275,l),
(79,27,ls),
(79,12,o),
(91,0,o),
(106,0,cs)
);
},
{
closed = 1;
nodes = (
(329,275,l),
(385,275,ls),
(400,275,o),
(412,287,o),
(412,302,cs),
(412,403,ls),
(412,418,o),
(400,430,o),
(385,430,cs),
(329,430,l),
(329,505,l),
(394,505,ls),
(439,505,o),
(471,481,o),
(474,425,cs),
(477,370,o),
(477,333,o),
(474,276,cs),
(471,220,o),
(438,195,o),
(394,195,cs),
(329,195,l)
);
}
);
width = 764;
},
{
layerId = "5BD13F11-F1FA-4397-9D6F-5672E4B50E04";
shapes = (
{
closed = 1;
nodes = (
(379,0,ls),
(575,0,o),
(689,87,o),
(696,275,cs),
(697,330,o),
(697,369,o),
(696,426,cs),
(690,604,o),
(571,700,o),
(377,700,cs),
(111,700,ls),
(96,700,o),
(85,689,o),
(85,674,cs),
(85,417,l),
(40,417,ls),
(25,417,o),
(14,405,o),
(14,391,cs),
(14,314,ls),
(14,299,o),
(25,288,o),
(40,288,cs),
(85,288,l),
(85,26,ls),
(85,11,o),
(96,0,o),
(111,0,cs)
);
},
{
closed = 1;
nodes = (
(282,288,l),
(365,288,ls),
(379,288,o),
(390,299,o),
(390,314,cs),
(390,391,ls),
(390,405,o),
(379,417,o),
(365,417,cs),
(282,417,l),
(282,543,l),
(376,543,ls),
(453,543,o),
(492,506,o),
(495,425,cs),
(498,369,o),
(498,334,o),
(495,276,cs),
(492,192,o),
(454,157,o),
(377,157,cs),
(282,157,l)
);
}
);
width = 741;
},
{
layerId = "C994FF3D-7AF7-4E09-8BD7-9052037F2305";
shapes = (
{
closed = 1;
nodes = (
(350,0,ls),
(554,0,o),
(630,87,o),
(635,272,cs),
(636,331,o),
(636,370,o),
(635,429,cs),
(631,604,o),
(553,700,o),
(346,700,cs),
(119,700,ls),
(106,700,o),
(96,690,o),
(96,676,cs),
(96,391,l),
(38,391,ls),
(24,391,o),
(15,381,o),
(15,368,cs),
(15,336,ls),
(15,323,o),
(24,313,o),
(38,313,cs),
(96,313,l),
(96,23,ls),
(96,10,o),
(106,0,o),
(119,0,cs)
);
},
{
closed = 1;
nodes = (
(194,313,l),
(327,313,ls),
(340,313,o),
(349,323,o),
(349,336,cs),
(349,368,ls),
(349,381,o),
(340,391,o),
(327,391,cs),
(194,391,l),
(194,615,l),
(342,615,ls),
(480,615,o),
(533,554,o),
(536,425,cs),
(537,366,o),
(537,335,o),
(536,276,cs),
(533,139,o),
(484,85,o),
(346,85,cs),
(194,85,l)
);
}
);
width = 698;
},
{
layerId = "6EF32D45-28F0-4679-BEBE-D25700A745C9";
shapes = (
{
closed = 1;
nodes = (
(340,0,ls),
(546,0,o),
(609,87,o),
(613,271,cs),
(614,331,o),
(614,370,o),
(613,430,cs),
(610,604,o),
(547,700,o),
(335,700,c),
(122,700,ls),
(109,700,o),
(100,691,o),
(100,677,cs),
(100,382,l),
(37,382,ls),
(24,382,o),
(15,373,o),
(15,360,cs),
(15,344,ls),
(15,331,o),
(24,322,o),
(37,322,cs),
(100,322,l),
(100,22,ls),
(100,9,o),
(109,0,o),
(122,0,cs)
);
},
{
closed = 1;
nodes = (
(163,322,l),
(313,322,ls),
(326,322,o),
(335,331,o),
(335,344,cs),
(335,360,ls),
(335,373,o),
(326,382,o),
(313,382,cs),
(163,382,l),
(163,640,l),
(330,640,ls),
(490,640,o),
(547,571,o),
(550,425,cs),
(551,365,o),
(551,336,o),
(550,276,cs),
(547,120,o),
(494,60,o),
(335,60,cs),
(163,60,l)
);
}
);
width = 683;
}
);
leftKerningGroup = I;
rightKerningGroup = D;
unicode = 272;
},
{
color = 6;
glyphname = E;
layers = (
{
anchors = (
{
name = bottom;
position = "{334, 0}";
},
{
name = ogonek;
position = "{626, 122}";
},
{
name = top;
position = "{334, 700}";
},
{
name = topleft;
position = "{20, 700}";
}
);
layerId = "CA6E37E7-75D1-4C8E-8071-E5CF96F45DBF";
shapes = (
{
closed = 1;
nodes = (
(603,0,ls),
(618,0,o),
(630,12,o),
(630,27,cs),
(630,168,ls),
(630,183,o),
(618,195,o),
(603,195,cs),
(295,195,l),
(295,258,l),
(573,258,ls),
(588,258,o),
(600,270,o),
(600,285,cs),
(600,415,ls),
(600,430,o),
(588,442,o),
(573,442,cs),
(295,442,l),
(295,505,l),
(595,505,ls),
(610,505,o),
(622,517,o),
(622,532,cs),
(622,673,ls),
(622,688,o),
(610,700,o),
(595,700,cs),
(82,700,ls),
(67,700,o),
(55,688,o),
(55,673,cs),
(55,27,ls),
(55,12,o),
(67,0,o),
(82,0,cs)
);
}
);
width = 667;
},
{
anchors = (
{
name = bottom;
position = "{323, 0}";
},
{
name = ogonek;
position = "{600, 104}";
},
{
name = top;
position = "{323, 700}";
},
{
name = topleft;
position = "{20, 700}";
}
);
layerId = "5BD13F11-F1FA-4397-9D6F-5672E4B50E04";
shapes = (
{
closed = 1;
nodes = (
(578,0,ls),
(593,0,o),
(604,11,o),
(604,26,cs),
(604,131,ls),
(604,146,o),
(593,157,o),
(578,157,cs),
(256,157,l),
(256,277,l),
(548,277,ls),
(563,277,o),
(574,288,o),
(574,302,cs),
(574,400,ls),
(574,415,o),
(563,426,o),
(548,426,cs),
(256,426,l),
(256,543,l),
(570,543,ls),
(585,543,o),
(596,554,o),
(596,569,cs),
(596,674,ls),
(596,689,o),
(585,700,o),
(570,700,cs),
(92,700,ls),
(77,700,o),
(66,689,o),
(66,674,cs),
(66,26,ls),
(66,11,o),
(77,0,o),
(92,0,cs)
);
}
);
width = 646;
},
{
anchors = (
{
name = bottom;
position = "{303, 0}";
},
{
name = ogonek;
position = "{550, 69}";
},
{
name = top;
position = "{303, 700}";
},
{
name = topleft;
position = "{20, 700}";
}
);
layerId = "C994FF3D-7AF7-4E09-8BD7-9052037F2305";
shapes = (
{
closed = 1;
nodes = (
(531,0,ls),
(545,0,o),
(554,10,o),
(554,23,cs),
(554,62,ls),
(554,76,o),
(545,85,o),
(531,85,cs),
(183,85,l),
(183,312,l),
(501,312,ls),
(515,312,o),
(524,322,o),
(524,335,cs),
(524,372,ls),
(524,386,o),
(515,396,o),
(501,396,cs),
(183,396,l),
(183,615,l),
(523,615,ls),
(537,615,o),
(546,624,o),
(546,638,cs),
(546,676,ls),
(546,690,o),
(537,700,o),
(523,700,cs),
(110,700,ls),
(96,700,o),
(87,690,o),
(87,676,cs),
(87,23,ls),
(87,10,o),
(96,0,o),
(110,0,cs)
);
}
);
width = 606;
},
{
anchors = (
{
name = bottom;
position = "{296, 0}";
},
{
name = ogonek;
position = "{533, 57}";
},
{
name = top;
position = "{296, 700}";
},
{
name = topleft;
position = "{20, 700}";
}
);
layerId = "6EF32D45-28F0-4679-BEBE-D25700A745C9";
shapes = (
{
closed = 1;
nodes = (
(514,0,ls),
(528,0,o),
(537,9,o),
(537,22,cs),
(537,37,ls),
(537,51,o),
(528,60,o),
(514,60,c),
(157,60,l),
(157,325,l),
(484,325,ls),
(498,325,o),
(507,334,o),
(507,347,cs),
(507,362,ls),
(507,376,o),
(498,385,o),
(484,385,cs),
(157,385,l),
(157,640,l),
(506,640,ls),
(520,640,o),
(529,649,o),
(529,662,cs),
(529,677,ls),
(529,691,o),
(520,700,o),
(506,700,cs),
(116,700,ls),
(103,700,o),
(94,691,o),
(94,677,cs),
(94,22,ls),
(94,9,o),
(103,0,o),
(116,0,cs)
);
}
);
width = 592;
}
);
leftKerningGroup = I;
rightKerningGroup = E;
unicode = 69;
},
{
color = 6;
glyphname = Eogonek;
layers = (
{
anchors = (
{
name = top;
position = "{334, 700}";
}
);
hints = (
{
horizontal = 1;
place = (0,0);
type = Stem;
}
);
layerId = "CA6E37E7-75D1-4C8E-8071-E5CF96F45DBF";
shapes = (
{
closed = 1;
nodes = (
(603,-220,ls),
(618,-220,o),
(630,-208,o),
(630,-193,cs),
(630,-125,ls),
(630,-110,o),
(618,-98,o),
(603,-98,cs),
(593,-98,ls),
(554,-98,o),
(543,-70,o),
(543,-49,cs),
(543,-28,o),
(554,0,o),
(593,0,cs),
(603,0,ls),
(618,0,o),
(630,12,o),
(630,27,cs),
(630,168,ls),
(630,183,o),
(618,195,o),
(603,195,cs),
(295,195,l),
(295,258,l),
(573,258,ls),
(588,258,o),
(600,270,o),
(600,285,cs),
(600,415,ls),
(600,430,o),
(588,442,o),
(573,442,cs),
(295,442,l),
(295,505,l),
(595,505,ls),
(610,505,o),
(622,517,o),
(622,532,cs),
(622,673,ls),
(622,688,o),
(610,700,o),
(595,700,cs),
(82,700,ls),
(67,700,o),
(55,688,o),
(55,673,cs),
(55,27,ls),
(55,12,o),
(67,0,o),
(82,0,cs),
(422,0,l),
(419,-16,o),
(417,-31,o),
(417,-49,cs),
(417,-144,o),
(468,-220,o),
(589,-220,cs)
);
}
);
width = 667;
},
{
anchors = (
{
name = top;
position = "{323, 700}";
}
);
layerId = "5BD13F11-F1FA-4397-9D6F-5672E4B50E04";
shapes = (
{
closed = 1;
nodes = (
(578,-220,ls),
(593,-220,o),
(604,-209,o),
(604,-194,cs),
(604,-142,ls),
(604,-127,o),
(593,-116,o),
(578,-116,cs),
(567,-116,ls),
(526,-116,o),
(509,-88,o),
(509,-58,cs),
(509,-29,o),
(526,-1,o),
(565,0,c),
(578,0,ls),
(593,0,o),
(604,11,o),
(604,26,cs),
(604,131,ls),
(604,146,o),
(593,157,o),
(578,157,cs),
(256,157,l),
(256,277,l),
(548,277,ls),
(563,277,o),
(574,288,o),
(574,302,cs),
(574,400,ls),
(574,415,o),
(563,426,o),
(548,426,cs),
(256,426,l),
(256,543,l),
(570,543,ls),
(585,543,o),
(596,554,o),
(596,569,cs),
(596,674,ls),
(596,689,o),
(585,700,o),
(570,700,cs),
(92,700,ls),
(77,700,o),
(66,689,o),
(66,674,cs),
(66,26,ls),
(66,11,o),
(77,0,o),
(92,0,cs),
(412,0,l),
(406,-18,o),
(402,-36,o),
(402,-58,cs),
(402,-151,o),
(453,-220,o),
(563,-220,cs)
);
}
);
width = 646;
},
{
anchors = (
{
name = top;
position = "{303, 700}";
}
);
layerId = "C994FF3D-7AF7-4E09-8BD7-9052037F2305";
shapes = (
{
closed = 1;
nodes = (
(532,-220,ls),
(545,-220,o),
(554,-210,o),
(554,-197,cs),
(554,-174,ls),
(554,-160,o),
(545,-151,o),
(532,-151,cs),
(517,-151,ls),
(474,-151,o),
(446,-121,o),
(446,-76,cs),
(446,-32,o),
(472,-2,o),
(512,0,c),
(531,0,ls),
(545,0,o),
(554,10,o),
(554,23,cs),
(554,62,ls),
(554,76,o),
(545,85,o),
(531,85,cs),
(183,85,l),
(183,312,l),
(501,312,ls),
(515,312,o),
(524,322,o),
(524,335,cs),
(524,372,ls),
(524,386,o),
(515,396,o),
(501,396,cs),
(183,396,l),
(183,615,l),
(523,615,ls),
(537,615,o),
(546,624,o),
(546,638,cs),
(546,676,ls),
(546,690,o),
(537,700,o),
(523,700,cs),
(110,700,ls),
(96,700,o),
(87,690,o),
(87,676,cs),
(87,23,ls),
(87,10,o),
(96,0,o),
(110,0,cs),
(392,0,l),
(380,-21,o),
(374,-46,o),
(374,-76,cs),
(374,-163,o),
(425,-220,o),
(513,-220,cs)
);
}
);
width = 606;
},
{
anchors = (
{
name = top;
position = "{296, 700}";
}
);
layerId = "6EF32D45-28F0-4679-BEBE-D25700A745C9";
shapes = (
{
closed = 1;
nodes = (
(515,-220,ls),
(528,-220,o),
(537,-211,o),
(537,-198,cs),
(537,-185,ls),
(537,-172,o),
(528,-163,o),
(515,-163,cs),
(500,-163,ls),
(456,-163,o),
(424,-133,o),
(424,-82,cs),
(424,-33,o),
(453,-3,o),
(493,0,c),
(514,0,ls),
(528,0,o),
(537,9,o),
(537,22,cs),
(537,37,ls),
(537,51,o),
(528,60,o),
(514,60,cs),
(157,60,l),
(157,325,l),
(484,325,ls),
(498,325,o),
(507,334,o),
(507,347,cs),
(507,362,ls),
(507,376,o),
(498,385,o),
(484,385,cs),
(157,385,l),
(157,640,l),
(506,640,ls),
(520,640,o),
(529,649,o),
(529,662,cs),
(529,677,ls),
(529,691,o),
(520,700,o),
(506,700,cs),
(116,700,ls),
(103,700,o),
(94,691,o),
(94,677,cs),
(94,22,ls),
(94,9,o),
(103,0,o),
(116,0,cs),
(385,0,l),
(371,-22,o),
(364,-50,o),
(364,-82,cs),
(364,-167,o),
(415,-220,o),
(496,-220,cs)
);
}
);
width = 592;
}
);
leftKerningGroup = I;
rightKerningGroup = E;
unicode = 280;
},
{
color = 6;
glyphname = F;
layers = (
{
anchors = (
{
name = bottom;
position = "{323, 0}";
},
{
name = top;
position = "{323, 700}";
}
);
hints = (
{
horizontal = 1;
place = (0,0);
type = Stem;
}
);
layerId = "CA6E37E7-75D1-4C8E-8071-E5CF96F45DBF";
shapes = (
{
closed = 1;
nodes = (
(273,0,ls),
(288,0,o),
(300,12,o),
(300,27,cs),
(300,215,l),
(566,215,ls),
(581,215,o),
(593,227,o),
(593,242,cs),
(593,393,ls),
(593,408,o),
(581,420,o),
(566,420,cs),
(300,420,l),
(300,494,l),
(586,494,ls),
(601,494,o),
(613,506,o),
(613,521,cs),
(613,673,ls),
(613,688,o),
(601,700,o),
(586,700,cs),
(82,700,ls),
(67,700,o),
(55,688,o),
(55,673,cs),
(55,27,ls),
(55,12,o),
(67,0,o),
(82,0,cs)
);
}
);
width = 646;
},
{
anchors = (
{
name = bottom;
position = "{312, 0}";
},
{
name = top;
position = "{312, 700}";
}
);
layerId = "5BD13F11-F1FA-4397-9D6F-5672E4B50E04";
shapes = (
{
closed = 1;
nodes = (
(234,0,ls),
(249,0,o),
(260,11,o),
(260,26,cs),
(260,242,l),
(542,242,ls),
(557,242,o),
(568,253,o),
(568,268,cs),
(568,380,ls),
(568,395,o),
(557,406,o),
(542,406,cs),
(260,406,l),
(260,535,l),
(562,535,ls),
(577,535,o),
(588,546,o),
(588,561,cs),
(588,674,ls),
(588,689,o),
(577,700,o),
(562,700,cs),
(92,700,ls),
(77,700,o),
(66,689,o),
(66,674,cs),
(66,26,ls),
(66,11,o),
(77,0,o),
(92,0,cs)
);
}
);
width = 625;
},
{
anchors = (
{
name = bottom;
position = "{292, 0}";
},
{
name = top;
position = "{292, 700}";
}
);
layerId = "C994FF3D-7AF7-4E09-8BD7-9052037F2305";
shapes = (
{
closed = 1;
nodes = (
(160,0,ls),
(174,0,o),
(184,10,o),
(184,23,cs),
(184,293,l),
(498,293,ls),
(512,293,o),
(522,303,o),
(522,316,cs),
(522,356,ls),
(522,371,o),
(512,380,o),
(498,380,cs),
(184,380,l),
(184,613,l),
(518,613,ls),
(532,613,o),
(542,622,o),
(542,636,cs),
(542,676,ls),
(542,690,o),
(532,700,o),
(518,700,cs),
(110,700,ls),
(96,700,o),
(87,690,o),
(87,676,cs),
(87,23,ls),
(87,10,o),
(96,0,o),
(110,0,cs)
);
}
);
width = 584;
},
{
anchors = (
{
name = bottom;
position = "{285, 0}";
},
{
name = top;
position = "{285, 700}";
}
);
layerId = "6EF32D45-28F0-4679-BEBE-D25700A745C9";
shapes = (
{
closed = 1;
nodes = (
(134,0,ls),
(148,0,o),
(157,9,o),
(157,22,cs),
(157,311,l),
(482,311,ls),
(496,311,o),
(505,320,o),
(505,333,cs),
(505,348,ls),
(505,362,o),
(496,371,o),
(482,371,cs),
(157,371,l),
(157,640,l),
(502,640,ls),
(516,640,o),
(525,649,o),
(525,662,cs),
(525,677,ls),
(525,691,o),
(516,700,o),
(502,700,cs),
(116,700,l),
(103,700,o),
(94,691,o),
(94,677,cs),
(94,22,ls),
(94,9,o),
(103,0,o),
(116,0,cs)
);
}
);
width = 570;
}
);
leftKerningGroup = I;
unicode = 70;
},
{
color = 6;
glyphname = G;
layers = (
{
anchors = (
{
name = bottom;
position = "{377, 0}";
},
{
name = top;
position = "{377, 700}";
}
);
hints = (
{
horizontal = 1;
place = (0,0);
type = Stem;
}
);
layerId = "CA6E37E7-75D1-4C8E-8071-E5CF96F45DBF";
shapes = (
{
closed = 1;
nodes = (
(576,-10,o),
(718,85,o),
(718,265,cs),
(718,395,ls),
(718,410,o),
(706,422,o),
(691,422,cs),
(416,422,ls),
(401,422,o),
(389,410,o),
(389,395,cs),
(389,284,ls),
(389,269,o),
(401,257,o),
(416,257,cs),
(463,257,l),
(463,256,l),
(463,205,o),
(428,185,o),
(378,185,cs),
(329,185,o),
(299,210,o),
(297,270,c),
(295,327,o),
(295,385,o),
(297,440,c),
(299,490,o),
(325,515,o),
(374,515,cs),
(423,515,o),
(438,486,o),
(446,476,cs),
(452,469,o),
(460,465,o),
(475,465,cs),
(696,465,ls),
(708,465,o),
(718,475,o),
(718,487,cs),
(715,608,o),
(585,710,o),
(374,710,cs),
(177,710,o),
(44,622,o),
(37,445,c),
(35,388,o),
(35,319,o),
(37,265,cs),
(45,79,o),
(172,-10,o),
(374,-10,cs)
);
}
);
width = 753;
},
{
anchors = (
{
name = bottom;
position = "{368, 0}";
},
{
name = top;
position = "{366, 700}";
}
);
layerId = "5BD13F11-F1FA-4397-9D6F-5672E4B50E04";
shapes = (
{
closed = 1;
nodes = (
(556,-10,o),
(686,89,o),
(686,264,cs),
(686,382,ls),
(686,397,o),
(675,408,o),
(660,408,cs),
(402,408,ls),
(388,408,o),
(377,397,o),
(377,382,cs),
(377,298,ls),
(377,283,o),
(388,272,o),
(402,272,cs),
(485,272,l),
(485,257,ls),
(485,180,o),
(435,147,o),
(366,147,cs),
(297,147,o),
(253,182,o),
(250,267,cs),
(248,325,o),
(248,384,o),
(250,440,cs),
(253,518,o),
(294,553,o),
(363,553,cs),
(431,553,o),
(458,514,o),
(470,490,c),
(475,480,o),
(482,476,o),
(496,476,cs),
(661,476,ls),
(674,476,o),
(683,486,o),
(683,498,c),
(680,601,o),
(566,710,o),
(363,710,cs),
(173,710,o),
(52,616,o),
(45,445,cs),
(43,387,o),
(43,318,o),
(45,262,cs),
(53,85,o),
(169,-10,o),
(363,-10,cs)
);
}
);
width = 728;
},
{
anchors = (
{
name = bottom;
position = "{352, 0}";
},
{
name = top;
position = "{346, 700}";
}
);
layerId = "C994FF3D-7AF7-4E09-8BD7-9052037F2305";
shapes = (
{
closed = 1;
nodes = (
(519,-10,o),
(625,97,o),
(625,261,cs),
(625,357,ls),
(625,371,o),
(616,381,o),
(602,381,cs),
(376,381,ls),
(363,381,o),
(353,371,o),
(353,357,cs),
(353,325,ls),
(353,310,o),
(363,301,o),
(376,301,cs),
(526,301,l),
(526,259,ls),
(526,132,o),
(448,75,o),
(342,75,cs),
(236,75,o),
(166,129,o),
(161,262,cs),
(159,321,o),
(159,381,o),
(161,440,cs),
(166,571,o),
(236,625,o),
(342,625,cs),
(447,625,o),
(497,568,o),
(514,516,cs),
(519,502,o),
(524,498,o),
(537,498,cs),
(596,498,ls),
(609,498,o),
(618,506,o),
(617,518,cs),
(614,587,o),
(531,710,o),
(342,710,cs),
(166,710,o),
(67,606,o),
(61,445,cs),
(59,386,o),
(59,316,o),
(61,257,cs),
(67,95,o),
(164,-10,o),
(342,-10,cs)
);
}
);
width = 681;
},
{
anchors = (
{
name = bottom;
position = "{346, 0}";
},
{
name = top;
position = "{339, 700}";
}
);
layerId = "6EF32D45-28F0-4679-BEBE-D25700A745C9";
shapes = (
{
closed = 1;
nodes = (
(506,-10,o),
(604,100,o),
(604,260,cs),
(604,348,ls),
(604,362,o),
(595,371,o),
(581,371,cs),
(367,371,ls),
(354,371,o),
(345,362,o),
(345,348,cs),
(345,334,ls),
(345,320,o),
(354,311,o),
(367,311,cs),
(541,311,l),
(541,260,ls),
(541,115,o),
(452,50,o),
(334,50,cs),
(215,50,o),
(135,110,o),
(130,260,cs),
(128,320,o),
(128,380,o),
(130,440,cs),
(135,590,o),
(215,650,o),
(334,650,cs),
(453,650,o),
(510,587,o),
(530,525,cs),
(535,510,o),
(539,505,o),
(551,505,cs),
(573,505,ls),
(586,505,o),
(595,513,o),
(594,525,cs),
(591,582,o),
(519,710,o),
(334,710,cs),
(163,710,o),
(72,602,o),
(67,445,cs),
(65,385,o),
(65,315,o),
(67,255,cs),
(72,99,o),
(162,-10,o),
(334,-10,cs)
);
}
);
width = 664;
}
);
leftKerningGroup = O;
rightKerningGroup = G;
unicode = 71;
},
{
color = 6;
glyphname = H;
layers = (
{
anchors = (
{
name = bottom;
position = "{386, 0}";
},
{
name = center;
position = "{386, 350}";
},
{
name = top;
position = "{386, 700}";
},
{
name = topleft;
position = "{20, 700}";
}
);
layerId = "CA6E37E7-75D1-4C8E-8071-E5CF96F45DBF";
shapes = (
{
closed = 1;
nodes = (
(278,0,ls),
(293,0,o),
(305,12,o),
(305,27,cs),
(305,243,l),
(467,243,l),
(467,27,ls),
(467,12,o),
(479,0,o),
(494,0,cs),
(690,0,ls),
(705,0,o),
(717,12,o),
(717,27,cs),
(717,673,ls),
(717,688,o),
(705,700,o),
(690,700,cs),
(494,700,ls),
(479,700,o),
(467,688,o),
(467,673,cs),
(467,463,l),
(305,463,l),
(305,673,ls),
(305,688,o),
(293,700,o),
(278,700,cs),
(82,700,ls),
(67,700,o),
(55,688,o),
(55,673,cs),
(55,27,ls),
(55,11,o),
(67,0,o),
(82,0,cs)
);
}
);
width = 772;
},
{
anchors = (
{
name = bottom;
position = "{376, 0}";
},
{
name = center;
position = "{376, 350}";
},
{
name = top;
position = "{376, 700}";
},
{
name = topleft;
position = "{20, 700}";
}
);
layerId = "5BD13F11-F1FA-4397-9D6F-5672E4B50E04";
shapes = (
{
closed = 1;
nodes = (
(238,0,ls),
(252,0,o),
(263,11,o),
(263,26,cs),
(263,266,l),
(488,266,l),
(488,26,ls),
(488,11,o),
(499,0,o),
(514,0,cs),
(660,0,ls),
(675,0,o),
(686,11,o),
(686,26,cs),
(686,674,ls),
(686,689,o),
(675,700,o),
(660,700,cs),
(514,700,ls),
(499,700,o),
(488,689,o),
(488,674,cs),
(488,441,l),
(263,441,l),
(263,674,ls),
(263,689,o),
(252,700,o),
(238,700,cs),
(92,700,ls),
(77,700,o),
(66,689,o),
(66,674,cs),
(66,26,ls),
(66,10,o),
(77,0,o),
(92,0,cs)
);
}
);
width = 752;
},
{
anchors = (
{
name = bottom;
position = "{357, 0}";
},
{
name = center;
position = "{357, 350}";
},
{
name = top;
position = "{357, 700}";
},
{
name = topleft;
position = "{20, 700}";
}
);
layerId = "C994FF3D-7AF7-4E09-8BD7-9052037F2305";
shapes = (
{
closed = 1;
nodes = (
(161,0,ls),
(175,0,o),
(185,10,o),
(185,23,cs),
(185,310,l),
(529,310,l),
(529,23,ls),
(529,10,o),
(538,0,o),
(552,0,cs),
(603,0,ls),
(617,0,o),
(627,10,o),
(627,23,cs),
(627,676,ls),
(627,690,o),
(617,700,o),
(603,700,cs),
(552,700,ls),
(538,700,o),
(529,690,o),
(529,676,cs),
(529,400,l),
(185,400,l),
(185,676,ls),
(185,690,o),
(175,700,o),
(161,700,cs),
(110,700,ls),
(96,700,o),
(87,690,o),
(87,676,cs),
(87,23,ls),
(87,9,o),
(96,0,o),
(110,0,cs)
);
}
);
width = 714;
},
{
anchors = (
{
name = bottom;
position = "{350, 0}";
},
{
name = center;
position = "{350, 350}";
},
{
name = top;
position = "{350, 700}";
},
{
name = topleft;
position = "{20, 700}";
}
);
layerId = "6EF32D45-28F0-4679-BEBE-D25700A745C9";
shapes = (
{
closed = 1;
nodes = (
(134,0,ls),
(148,0,o),
(157,9,o),
(157,22,cs),
(157,325,l),
(543,325,l),
(543,22,ls),
(543,9,o),
(552,0,o),
(565,0,cs),
(583,0,ls),
(597,0,o),
(606,9,o),
(606,22,cs),
(606,677,ls),
(606,691,o),
(597,700,o),
(583,700,cs),
(565,700,l),
(552,700,o),
(543,691,o),
(543,677,cs),
(543,385,l),
(157,385,l),
(157,677,ls),
(157,691,o),
(148,700,o),
(134,700,cs),
(116,700,ls),
(103,700,o),
(94,691,o),
(94,677,cs),
(94,22,ls),
(94,9,o),
(103,0,o),
(116,0,cs)
);
}
);
width = 700;
}
);
leftKerningGroup = I;
rightKerningGroup = I;
unicode = 72;
},
{
color = 3;
glyphname = Hbar;
layers = (
{
hints = (
{
horizontal = 1;
place = (0,0);
type = Stem;
}
);
layerId = "341B2BF4-F4C2-4148-9B20-B188048FB27D";
associatedMasterId = "CA6E37E7-75D1-4C8E-8071-E5CF96F45DBF";
name = "Bold Jan 19 16, 17:03";
shapes = (
{
closed = 1;
nodes = (
(278,0,ls),
(293,0,o),
(305,12,o),
(305,27,cs),
(305,243,l),
(467,243,l),
(467,27,ls),
(467,12,o),
(479,0,o),
(494,0,cs),
(690,0,ls),
(705,0,o),
(717,12,o),
(717,27,cs),
(717,673,ls),
(717,688,o),
(705,700,o),
(690,700,cs),
(494,700,l),
(479,700,o),
(467,688,o),
(467,673,cs),
(467,644,l),
(305,644,l),
(305,673,ls),
(305,688,o),
(293,700,o),
(278,700,cs),
(82,700,ls),
(67,700,o),
(55,688,o),
(55,673,cs),
(55,27,ls),
(55,11,o),
(67,0,o),
(82,0,cs)
);
},
{
closed = 1;
nodes = (
(305,519,l),
(467,519,l),
(467,463,l),
(305,463,l)
);
}
);
width = 772;
},
{
hints = (
{
horizontal = 1;
place = (0,0);
type = Stem;
}
);
layerId = "CA6E37E7-75D1-4C8E-8071-E5CF96F45DBF";
shapes = (
{
closed = 1;
nodes = (
(682,521,ls),
(697,521,o),
(709,533,o),
(709,548,cs),
(709,616,ls),
(709,631,o),
(697,643,o),
(682,643,cs),
(88,643,ls),
(73,643,o),
(61,631,o),
(61,616,cs),
(61,548,ls),
(61,533,o),
(73,521,o),
(88,521,cs)
);
},
{
alignment = -1;
ref = H;
}
);
width = 772;
},
{
anchors = (
{
name = bottom;
position = "{376, 0}";
},
{
name = center;
position = "{376, 350}";
},
{
name = top;
position = "{376, 700}";
},
{
name = topleft;
position = "{20, 700}";
}
);
layerId = "5BD13F11-F1FA-4397-9D6F-5672E4B50E04";
shapes = (
{
closed = 1;
nodes = (
(678,519,ls),
(692,519,o),
(703,530,o),
(703,544,cs),
(703,597,ls),
(703,612,o),
(692,623,o),
(678,623,cs),
(75,623,ls),
(61,623,o),
(50,612,o),
(50,597,cs),
(50,544,ls),
(50,530,o),
(61,519,o),
(75,519,cs)
);
},
{
alignment = -1;
ref = H;
}
);
width = 752;
},
{
anchors = (
{
name = bottom;
position = "{357, 0}";
},
{
name = center;
position = "{357, 350}";
},
{
name = top;
position = "{357, 700}";
},
{
name = topleft;
position = "{20, 700}";
}
);
layerId = "C994FF3D-7AF7-4E09-8BD7-9052037F2305";
shapes = (
{
closed = 1;
nodes = (
(670,515,ls),
(683,515,o),
(693,524,o),
(693,537,cs),
(693,562,ls),
(693,575,o),
(683,585,o),
(670,585,cs),
(51,585,ls),
(38,585,o),
(29,575,o),
(29,562,cs),
(29,537,ls),
(29,524,o),
(38,515,o),
(51,515,cs)
);
},
{
alignment = -1;
ref = H;
}
);
width = 714;
},
{
hints = (
{
horizontal = 1;
place = (571,0);
type = Stem;
}
);
layerId = "11DB49C7-CF9F-4EDD-8A90-05C268E0449D";
associatedMasterId = "6EF32D45-28F0-4679-BEBE-D25700A745C9";
name = "Light Jan 19 16, 17:03";
shapes = (
{
closed = 1;
nodes = (
(139,0,ls),
(153,0,o),
(162,9,o),
(162,22,cs),
(162,325,l),
(548,325,l),
(548,22,ls),
(548,9,o),
(557,0,o),
(570,0,cs),
(588,0,ls),
(602,0,o),
(611,9,o),
(611,22,cs),
(611,511,l),
(668,511,ls),
(682,511,o),
(691,520,o),
(691,533,cs),
(691,548,ls),
(691,562,o),
(682,571,o),
(668,571,cs),
(611,571,l),
(611,677,ls),
(611,691,o),
(602,700,o),
(588,700,cs),
(570,700,ls),
(557,700,o),
(548,691,o),
(548,677,cs),
(548,571,l),
(162,571,l),
(162,677,ls),
(162,691,o),
(153,700,o),
(139,700,cs),
(121,700,ls),
(108,700,o),
(99,691,o),
(99,677,cs),
(99,571,l),
(41,571,ls),
(28,571,o),
(19,562,o),
(19,548,cs),
(19,533,ls),
(19,520,o),
(28,511,o),
(41,511,cs),
(99,511,l),
(99,22,ls),
(99,9,o),
(108,0,o),
(121,0,cs)
);
},
{
closed = 1;
nodes = (
(162,511,l),
(548,511,l),
(548,385,l),
(162,385,l)
);
}
);
width = 700;
},
{
layerId = "6EF32D45-28F0-4679-BEBE-D25700A745C9";
shapes = (
{
closed = 1;
nodes = (
(667,513,ls),
(680,513,o),
(689,522,o),
(689,535,cs),
(689,549,ls),
(689,562,o),
(680,571,o),
(667,571,cs),
(43,571,ls),
(30,571,o),
(21,562,o),
(21,549,cs),
(21,535,ls),
(21,522,o),
(30,513,o),
(43,513,cs)
);
},
{
alignment = -1;
ref = H;
}
);
width = 700;
}
);
leftKerningGroup = I;
rightKerningGroup = I;
unicode = 294;
},
{
color = 6;
glyphname = I;
layers = (
{
anchors = (
{
name = bottom;
position = "{184, 0}";
},
{
name = ogonek;
position = "{301, 122}";
},
{
name = top;
position = "{184, 700}";
},
{
name = topleft;
position = "{20, 700}";
}
);
layerId = "CA6E37E7-75D1-4C8E-8071-E5CF96F45DBF";
shapes = (
{
closed = 1;
nodes = (
(286,0,ls),
(301,0,o),
(313,12,o),
(313,27,cs),
(313,673,ls),
(313,688,o),
(301,700,o),
(286,700,cs),
(82,700,ls),
(67,700,o),
(55,688,o),
(55,673,cs),
(55,27,ls),
(55,12,o),
(67,0,o),
(82,0,cs)
);
}
);
width = 368;
},
{
anchors = (
{
name = bottom;
position = "{168, 0}";
},
{
name = ogonek;
position = "{261, 104}";
},
{
name = top;
position = "{168, 700}";
},
{
name = topleft;
position = "{20, 700}";
}
);
layerId = "5BD13F11-F1FA-4397-9D6F-5672E4B50E04";
shapes = (
{
closed = 1;
nodes = (
(243,0,ls),
(258,0,o),
(269,11,o),
(269,26,cs),
(269,674,ls),
(269,689,o),
(258,700,o),
(243,700,cs),
(92,700,ls),
(77,700,o),
(66,689,o),
(66,674,cs),
(66,26,ls),
(66,11,o),
(77,0,o),
(92,0,cs)
);
}
);
width = 335;
},
{
anchors = (
{
name = bottom;
position = "{137, 0}";
},
{
name = ogonek;
position = "{184, 69}";
},
{
name = top;
position = "{137, 700}";
},
{
name = topleft;
position = "{20, 700}";
}
);
layerId = "C994FF3D-7AF7-4E09-8BD7-9052037F2305";
shapes = (
{
closed = 1;
nodes = (
(163,0,ls),
(177,0,o),
(186,10,o),
(186,23,cs),
(186,677,ls),
(186,690,o),
(177,700,o),
(163,700,cs),
(110,700,ls),
(96,700,o),
(87,690,o),
(87,677,cs),
(87,23,ls),
(87,10,o),
(96,0,o),
(110,0,cs)
);
}
);
width = 273;
},
{
anchors = (
{
name = bottom;
position = "{126, 0}";
},
{
name = ogonek;
position = "{157, 57}";
},
{
name = top;
position = "{126, 700}";
},
{
name = topleft;
position = "{20, 700}";
}
);
layerId = "6EF32D45-28F0-4679-BEBE-D25700A745C9";
shapes = (
{
closed = 1;
nodes = (
(135,0,ls),
(148,0,o),
(157,9,o),
(157,22,cs),
(157,678,ls),
(157,691,o),
(148,700,o),
(135,700,cs),
(116,700,ls),
(103,700,o),
(94,691,o),
(94,678,cs),
(94,22,ls),
(94,9,o),
(103,0,o),
(116,0,cs)
);
}
);
width = 251;
}
);
leftKerningGroup = I;
rightKerningGroup = I;
unicode = 73;
},
{
color = 6;
glyphname = IJ;
layers = (
{
hints = (
{
horizontal = 1;
place = (0,0);
type = Stem;
}
);
layerId = "CA6E37E7-75D1-4C8E-8071-E5CF96F45DBF";
shapes = (
{
closed = 1;
nodes = (
(628,-10,o),
(758,45,o),
(758,258,cs),
(758,673,ls),
(758,688,o),
(746,700,o),
(731,700,cs),
(526,700,ls),
(511,700,o),
(499,688,o),
(499,673,c),
(499,298,ls),
(499,227,o),
(476,205,o),
(420,205,cs),
(405,205,o),
(393,193,o),
(393,178,cs),
(393,17,ls),
(393,2,o),
(405,-10,o),
(420,-10,cs)
);
},
{
closed = 1;
nodes = (
(286,0,ls),
(301,0,o),
(313,12,o),
(313,27,cs),
(313,673,ls),
(313,688,o),
(301,700,o),
(286,700,cs),
(82,700,ls),
(67,700,o),
(55,688,o),
(55,673,cs),
(55,27,ls),
(55,12,o),
(67,0,o),
(82,0,cs)
);
}
);
width = 807;
},
{
layerId = "5BD13F11-F1FA-4397-9D6F-5672E4B50E04";
shapes = (
{
closed = 1;
nodes = (
(568,-10,o),
(686,60,o),
(686,257,cs),
(686,674,ls),
(686,689,o),
(675,700,o),
(660,700,cs),
(507,700,ls),
(493,700,o),
(482,689,o),
(482,674,cs),
(482,286,ls),
(482,201,o),
(448,161,o),
(375,161,cs),
(360,161,o),
(349,150,o),
(349,135,cs),
(349,16,ls),
(349,1,o),
(360,-10,o),
(375,-10,cs)
);
},
{
closed = 1;
nodes = (
(243,0,ls),
(258,0,o),
(269,11,o),
(269,26,cs),
(269,674,ls),
(269,689,o),
(258,700,o),
(243,700,cs),
(92,700,ls),
(77,700,o),
(66,689,o),
(66,674,cs),
(66,26,ls),
(66,11,o),
(77,0,o),
(92,0,cs)
);
}
);
width = 746;
},
{
layerId = "C994FF3D-7AF7-4E09-8BD7-9052037F2305";
shapes = (
{
closed = 1;
nodes = (
(456,-10,o),
(549,89,o),
(549,256,cs),
(549,676,ls),
(549,690,o),
(540,700,o),
(525,700,cs),
(472,700,ls),
(459,700,o),
(449,690,o),
(449,677,cs),
(449,264,ls),
(449,152,o),
(395,79,o),
(289,79,cs),
(276,79,o),
(266,70,o),
(266,55,cs),
(266,13,ls),
(266,0,o),
(276,-10,o),
(289,-10,cs)
);
},
{
closed = 1;
nodes = (
(163,0,ls),
(177,0,o),
(186,10,o),
(186,23,cs),
(186,677,ls),
(186,690,o),
(177,700,o),
(163,700,cs),
(110,700,ls),
(96,700,o),
(87,690,o),
(87,677,cs),
(87,23,ls),
(87,10,o),
(96,0,o),
(110,0,cs)
);
}
);
width = 630;
},
{
layerId = "6EF32D45-28F0-4679-BEBE-D25700A745C9";
shapes = (
{
closed = 1;
nodes = (
(416,-10,o),
(501,99,o),
(501,255,c),
(501,677,l),
(501,691,o),
(492,700,o),
(478,700,c),
(460,700,l),
(447,700,o),
(438,691,o),
(438,678,c),
(438,256,l),
(438,135,o),
(376,50,o),
(259,50,cs),
(246,50,o),
(237,41,o),
(237,27,c),
(237,12,l),
(237,-1,o),
(246,-10,o),
(259,-10,cs)
);
},
{
closed = 1;
nodes = (
(135,0,l),
(148,0,o),
(157,9,o),
(157,22,c),
(157,678,l),
(157,691,o),
(148,700,o),
(135,700,c),
(116,700,l),
(103,700,o),
(94,691,o),
(94,678,c),
(94,22,l),
(94,9,o),
(103,0,o),
(116,0,c)
);
}
);
width = 589;
}
);
leftKerningGroup = I;
unicode = 306;
},
{
color = 6;
glyphname = Iogonek;
layers = (
{
hints = (
{
horizontal = 1;
place = (0,0);
type = Stem;
}
);
layerId = "CA6E37E7-75D1-4C8E-8071-E5CF96F45DBF";
shapes = (
{
closed = 1;
nodes = (
(286,-222,ls),
(301,-222,o),
(313,-210,o),
(313,-195,cs),
(313,-127,ls),
(313,-112,o),
(301,-100,o),
(286,-100,cs),
(276,-100,l),
(237,-100,o),
(226,-71,o),
(226,-50,cs),
(226,-29,o),
(237,0,o),
(276,0,cs),
(286,0,ls),
(301,0,o),
(313,12,o),
(313,27,cs),
(313,673,ls),
(313,688,o),
(301,700,o),
(286,700,cs),
(82,700,ls),
(67,700,o),
(55,688,o),
(55,673,cs),
(55,27,ls),
(55,12,o),
(67,0,o),
(82,0,cs),
(105,0,l),
(102,-16,o),
(100,-32,o),
(100,-50,cs),
(100,-145,o),
(151,-222,o),
(272,-222,cs)
);
}
);
width = 368;
},
{
layerId = "5BD13F11-F1FA-4397-9D6F-5672E4B50E04";
shapes = (
{
closed = 1;
nodes = (
(249,-221,ls),
(263,-221,o),
(274,-210,o),
(274,-196,cs),
(274,-143,ls),
(274,-129,o),
(263,-118,o),
(249,-118,cs),
(237,-118,ls),
(197,-118,o),
(180,-88,o),
(180,-59,cs),
(180,-30,o),
(197,0,o),
(237,0,cs),
(249,0,ls),
(263,0,o),
(274,11,o),
(274,26,cs),
(274,674,ls),
(274,689,o),
(263,700,o),
(249,700,cs),
(97,700,ls),
(82,700,o),
(71,689,o),
(71,674,cs),
(71,40,ls),
(71,29,o),
(80,19,o),
(90,18,cs),
(107,16,l),
(86,1,o),
(72,-24,o),
(72,-59,cs),
(72,-151,o),
(123,-221,o),
(233,-221,cs)
);
}
);
width = 340;
},
{
layerId = "C994FF3D-7AF7-4E09-8BD7-9052037F2305";
shapes = (
{
closed = 1;
nodes = (
(178,-220,ls),
(191,-220,o),
(201,-211,o),
(201,-197,cs),
(201,-174,ls),
(201,-161,o),
(191,-151,o),
(178,-151,cs),
(164,-151,ls),
(121,-151,o),
(93,-121,o),
(93,-76,cs),
(93,-31,o),
(121,0,o),
(164,0,cs),
(178,0,ls),
(191,0,o),
(201,10,o),
(201,23,cs),
(201,677,ls),
(201,690,o),
(191,700,o),
(178,700,cs),
(124,700,ls),
(111,700,o),
(101,690,o),
(101,677,cs),
(101,65,ls),
(101,60,o),
(104,54,o),
(106,52,c),
(111,45,l),
(55,34,o),
(20,-10,o),
(20,-76,cs),
(20,-163,o),
(71,-220,o),
(160,-220,cs)
);
}
);
width = 288;
},
{
layerId = "6EF32D45-28F0-4679-BEBE-D25700A745C9";
shapes = (
{
closed = 1;
nodes = (
(153,-220,ls),
(166,-220,o),
(175,-211,o),
(175,-198,cs),
(175,-185,ls),
(175,-172,o),
(166,-163,o),
(153,-163,cs),
(138,-163,ls),
(94,-163,o),
(62,-133,o),
(62,-82,cs),
(62,-31,o),
(94,0,o),
(138,0,cs),
(153,0,ls),
(166,0,o),
(175,9,o),
(175,22,cs),
(175,678,ls),
(175,691,o),
(166,700,o),
(153,700,cs),
(134,700,ls),
(121,700,o),
(112,691,o),
(112,678,cs),
(112,74,l),
(112,71,o),
(112,67,o),
(112,64,c),
(112,55,l),
(44,46,o),
(2,-5,o),
(2,-82,cs),
(2,-167,o),
(53,-220,o),
(134,-220,cs)
);
}
);
width = 269;
}
);
leftKerningGroup = I;
rightKerningGroup = I;
unicode = 302;
},
{
color = 6;
glyphname = J;
rightMetricsKey = "=49";
widthMetricsKey = "=439";
layers = (
{
anchors = (
{
name = bottom;
position = "{-17, 0}";
},
{
name = top;
position = "{264, 700}";
}
);
hints = (
{
horizontal = 1;
place = (0,0);
type = Stem;
}
);
layerId = "CA6E37E7-75D1-4C8E-8071-E5CF96F45DBF";
shapes = (
{
closed = 1;
nodes = (
(260,-10,o),
(390,45,o),
(390,258,cs),
(390,673,ls),
(390,688,o),
(378,700,o),
(363,700,cs),
(158,700,ls),
(143,700,o),
(131,688,o),
(131,673,c),
(131,298,ls),
(131,227,o),
(108,205,o),
(52,205,cs),
(37,205,o),
(25,193,o),
(25,178,cs),
(25,17,ls),
(25,2,o),
(37,-10,o),
(52,-10,cs)
);
}
);
width = 439;
},
{
anchors = (
{
name = bottom;
position = "{10, 0}";
},
{
name = top;
position = "{265, 700}";
}
);
layerId = "5BD13F11-F1FA-4397-9D6F-5672E4B50E04";
shapes = (
{
closed = 1;
nodes = (
(247,-10,o),
(365,60,o),
(365,257,cs),
(365,674,ls),
(365,689,o),
(354,700,o),
(339,700,cs),
(187,700,ls),
(172,700,o),
(161,689,o),
(161,674,cs),
(161,286,ls),
(161,201,o),
(127,161,o),
(54,161,cs),
(39,161,o),
(28,150,o),
(28,135,cs),
(28,16,ls),
(28,1,o),
(39,-10,o),
(54,-10,cs)
);
}
);
width = 427;
},
{
anchors = (
{
name = bottom;
position = "{62, 0}";
},
{
name = top;
position = "{268, 700}";
}
);
layerId = "C994FF3D-7AF7-4E09-8BD7-9052037F2305";
shapes = (
{
closed = 1;
nodes = (
(224,-10,o),
(318,89,o),
(318,256,cs),
(318,676,ls),
(318,690,o),
(308,700,o),
(294,700,cs),
(241,700,ls),
(228,700,o),
(218,690,o),
(218,677,cs),
(218,264,ls),
(218,152,o),
(163,79,o),
(58,79,cs),
(44,79,o),
(35,70,o),
(35,55,cs),
(35,13,ls),
(35,0,o),
(44,-10,o),
(58,-10,cs)
);
}
);
width = 403;
},
{
anchors = (
{
name = bottom;
position = "{80, 0}";
},
{
name = top;
position = "{269, 700}";
}
);
layerId = "6EF32D45-28F0-4679-BEBE-D25700A745C9";
shapes = (
{
closed = 1;
nodes = (
(216,-10,o),
(301,99,o),
(301,255,c),
(301,677,l),
(301,691,o),
(292,700,o),
(278,700,c),
(260,700,l),
(247,700,o),
(238,691,o),
(238,678,c),
(238,256,l),
(238,135,o),
(176,50,o),
(59,50,cs),
(46,50,o),
(37,41,o),
(37,27,c),
(37,12,l),
(37,-1,o),
(46,-10,o),
(59,-10,cs)
);
}
);
width = 395;
}
);
leftKerningGroup = J;
rightKerningGroup = U;
unicode = 74;
},
{
color = 6;
glyphname = K;
rightMetricsKey = "=16";
layers = (
{
anchors = (
{
name = bottom;
position = "{358, 0}";
},
{
name = top;
position = "{358, 700}";
},
{
name = bottomright;
position = "{563, 0}";
}
);
layerId = "CA6E37E7-75D1-4C8E-8071-E5CF96F45DBF";
rightMetricsKey = "=2";
shapes = (
{
closed = 1;
nodes = (
(278,0,ls),
(293,0,o),
(305,12,o),
(305,27,cs),
(305,189,l),
(344,218,l),
(452,23,ls),
(455,17,o),
(466,0,o),
(493,0,cs),
(721,0,ls),
(733,0,o),
(743,10,o),
(743,22,cs),
(743,25,o),
(742,30,o),
(740,33,cs),
(543,365,l),
(723,667,ls),
(725,670,o),
(726,674,o),
(726,678,cs),
(726,690,o),
(716,700,o),
(704,700,cs),
(483,700,ls),
(461,700,o),
(449,689,o),
(443,678,cs),
(305,433,l),
(305,673,ls),
(305,688,o),
(293,700,o),
(278,700,cs),
(82,700,ls),
(67,700,o),
(55,688,o),
(55,673,cs),
(55,27,ls),
(55,11,o),
(67,0,o),
(82,0,cs)
);
}
);
width = 745;
},
{
anchors = (
{
name = bottom;
position = "{343, 0}";
},
{
name = top;
position = "{338, 700}";
}
);
layerId = "5BD13F11-F1FA-4397-9D6F-5672E4B50E04";
rightMetricsKey = "=7";
shapes = (
{
closed = 1;
nodes = (
(238,0,ls),
(252,0,o),
(263,11,o),
(263,26,cs),
(263,221,l),
(311,259,l),
(467,21,ls),
(471,15,o),
(482,0,o),
(507,0,cs),
(676,0,ls),
(688,0,o),
(697,10,o),
(697,21,cs),
(697,25,o),
(696,30,o),
(694,33,cs),
(468,378,l),
(676,667,ls),
(678,670,o),
(679,675,o),
(679,679,cs),
(679,690,o),
(669,700,o),
(658,700,cs),
(494,700,ls),
(472,700,o),
(460,689,o),
(455,680,c),
(263,420,l),
(263,674,ls),
(263,689,o),
(252,700,o),
(238,700,cs),
(92,700,ls),
(77,700,o),
(66,689,o),
(66,674,cs),
(66,26,ls),
(66,10,o),
(77,0,o),
(92,0,cs)
);
}
);
width = 704;
},
{
anchors = (
{
name = bottom;
position = "{314, 0}";
},
{
name = top;
position = "{301, 700}";
}
);
layerId = "C994FF3D-7AF7-4E09-8BD7-9052037F2305";
shapes = (
{
closed = 1;
nodes = (
(161,0,ls),
(175,0,o),
(185,10,o),
(185,23,cs),
(185,280,l),
(249,337,l),
(496,17,ls),
(501,11,o),
(512,0,o),
(534,0,cs),
(591,0,ls),
(602,0,o),
(611,9,o),
(611,20,cs),
(611,24,o),
(610,29,o),
(606,34,cs),
(326,402,l),
(586,667,l),
(589,671,o),
(590,676,o),
(590,680,cs),
(590,691,o),
(581,700,o),
(570,700,cs),
(516,700,ls),
(494,700,o),
(482,689,o),
(477,684,cs),
(185,396,l),
(185,676,ls),
(185,690,o),
(175,700,o),
(161,700,cs),
(110,700,ls),
(96,700,o),
(87,690,o),
(87,676,cs),
(87,23,ls),
(87,9,o),
(96,0,o),
(110,0,cs)
);
}
);
width = 627;
},
{
anchors = (
{
name = bottom;
position = "{304, 0}";
},
{
name = top;
position = "{288, 700}";
}
);
layerId = "6EF32D45-28F0-4679-BEBE-D25700A745C9";
rightMetricsKey = "=19";
shapes = (
{
closed = 1;
nodes = (
(134,0,ls),
(148,0,o),
(157,9,o),
(157,22,cs),
(157,301,l),
(227,365,l),
(506,15,ls),
(511,9,o),
(523,0,o),
(544,0,cs),
(561,0,ls),
(572,0,o),
(581,9,o),
(581,20,cs),
(581,24,o),
(579,29,o),
(575,34,cs),
(276,410,l),
(554,667,ls),
(558,671,o),
(559,676,o),
(559,680,cs),
(559,691,o),
(550,700,o),
(539,700,cs),
(523,700,ls),
(502,700,o),
(490,689,o),
(485,685,cs),
(157,388,l),
(157,677,ls),
(157,691,o),
(148,700,o),
(134,700,cs),
(116,700,ls),
(103,700,o),
(94,691,o),
(94,677,cs),
(94,22,ls),
(94,9,o),
(103,0,o),
(116,0,cs)
);
}
);
width = 600;
}
);
leftKerningGroup = I;
rightKerningGroup = K;
unicode = 75;
},
{
color = 6;
glyphname = L;
layers = (
{
anchors = (
{
name = bottom;
position = "{313, 0}";
},
{
name = center;
position = "{313, 350}";
},
{
name = top;
position = "{173, 700}";
},
{
name = topright;
position = "{486, 649}";
}
);
layerId = "CA6E37E7-75D1-4C8E-8071-E5CF96F45DBF";
shapes = (
{
closed = 1;
nodes = (
(586,0,ls),
(601,0,o),
(613,12,o),
(613,27,cs),
(613,178,ls),
(613,193,o),
(601,205,o),
(586,205,cs),
(309,205,l),
(309,673,ls),
(309,688,o),
(297,700,o),
(282,700,cs),
(82,700,ls),
(67,700,o),
(55,688,o),
(55,673,cs),
(55,27,ls),
(55,12,o),
(67,0,o),
(82,0,cs)
);
}
);
width = 626;
},
{
anchors = (
{
name = bottom;
position = "{311, 0}";
},
{
name = center;
position = "{302, 350}";
},
{
name = top;
position = "{159, 700}";
},
{
name = topright;
position = "{441, 660}";
}
);
layerId = "5BD13F11-F1FA-4397-9D6F-5672E4B50E04";
shapes = (
{
closed = 1;
nodes = (
(562,0,ls),
(577,0,o),
(588,11,o),
(588,26,cs),
(588,138,ls),
(588,153,o),
(577,164,o),
(562,164,cs),
(266,164,l),
(266,674,ls),
(266,689,o),
(255,700,o),
(241,700,cs),
(92,700,ls),
(77,700,o),
(66,689,o),
(66,674,cs),
(66,26,ls),
(66,11,o),
(77,0,o),
(92,0,cs)
);
}
);
width = 604;
},
{
anchors = (
{
name = bottom;
position = "{308, 0}";
},
{
name = center;
position = "{281, 350}";
},
{
name = top;
position = "{133, 700}";
},
{
name = topright;
position = "{355, 682}";
}
);
layerId = "C994FF3D-7AF7-4E09-8BD7-9052037F2305";
shapes = (
{
closed = 1;
nodes = (
(518,0,ls),
(532,0,o),
(542,10,o),
(542,23,cs),
(542,63,ls),
(542,78,o),
(532,87,o),
(518,87,cs),
(186,87,l),
(186,677,ls),
(186,690,o),
(176,700,o),
(163,700,cs),
(110,700,ls),
(96,700,o),
(87,690,o),
(87,677,cs),
(87,23,ls),
(87,10,o),
(96,0,o),
(110,0,cs)
);
}
);
width = 563;
},
{
anchors = (
{
name = bottom;
position = "{307, 0}";
},
{
name = center;
position = "{274, 350}";
},
{
name = top;
position = "{124, 700}";
},
{
name = topright;
position = "{325, 690}";
}
);
layerId = "6EF32D45-28F0-4679-BEBE-D25700A745C9";
shapes = (
{
closed = 1;
nodes = (
(502,0,l),
(516,0,o),
(525,9,o),
(525,22,c),
(525,37,l),
(525,51,o),
(516,60,o),
(502,60,c),
(157,60,l),
(157,678,l),
(157,691,o),
(148,700,o),
(135,700,c),
(116,700,l),
(103,700,o),
(94,691,o),
(94,678,c),
(94,22,l),
(94,9,o),
(103,0,o),
(116,0,c)
);
}
);
width = 548;
}
);
leftKerningGroup = I;
rightKerningGroup = L;
unicode = 76;
},
{
color = 6;
glyphname = Lslash;
layers = (
{
hints = (
{
horizontal = 1;
place = (0,0);
type = Stem;
}
);
layerId = "CA6E37E7-75D1-4C8E-8071-E5CF96F45DBF";
shapes = (
{
closed = 1;
nodes = (
(594,0,ls),
(609,0,o),
(621,12,o),
(621,27,cs),
(621,178,ls),
(621,193,o),
(609,205,o),
(594,205,cs),
(317,205,l),
(317,325,l),
(472,386,ls),
(488,392,o),
(494,401,o),
(494,419,cs),
(494,527,ls),
(494,539,o),
(485,548,o),
(473,548,cs),
(471,548,o),
(467,547,o),
(462,545,cs),
(317,488,l),
(317,673,ls),
(317,688,o),
(305,700,o),
(290,700,cs),
(90,700,ls),
(75,700,o),
(63,688,o),
(63,673,cs),
(63,388,l),
(35,377,ls),
(19,371,o),
(13,362,o),
(13,344,cs),
(13,236,ls),
(13,224,o),
(22,215,o),
(34,215,cs),
(36,215,o),
(40,216,o),
(45,218,cs),
(63,225,l),
(63,27,ls),
(63,12,o),
(75,0,o),
(90,0,cs)
);
}
);
width = 634;
},
{
layerId = "5BD13F11-F1FA-4397-9D6F-5672E4B50E04";
shapes = (
{
closed = 1;
nodes = (
(571,0,ls),
(585,0,o),
(596,11,o),
(596,26,cs),
(596,139,ls),
(596,153,o),
(585,164,o),
(571,164,cs),
(274,164,l),
(274,323,l),
(429,384,ls),
(445,390,o),
(451,397,o),
(451,414,cs),
(451,497,ls),
(451,509,o),
(442,517,o),
(431,517,cs),
(428,517,o),
(424,516,o),
(419,514,cs),
(274,458,l),
(274,674,ls),
(274,689,o),
(263,700,o),
(249,700,cs),
(100,700,ls),
(85,700,o),
(74,689,o),
(74,674,cs),
(74,379,l),
(35,364,ls),
(19,358,o),
(13,350,o),
(13,333,cs),
(13,250,ls),
(13,238,o),
(21,230,o),
(33,230,cs),
(36,230,o),
(40,231,o),
(45,233,cs),
(74,244,l),
(74,26,ls),
(74,11,o),
(85,0,o),
(100,0,cs)
);
}
);
width = 612;
},
{
layerId = "C994FF3D-7AF7-4E09-8BD7-9052037F2305";
shapes = (
{
closed = 1;
nodes = (
(527,0,ls),
(540,0,o),
(550,10,o),
(550,23,cs),
(550,64,ls),
(550,78,o),
(540,87,o),
(527,87,cs),
(194,87,l),
(194,319,l),
(349,379,ls),
(365,385,o),
(371,390,o),
(371,405,cs),
(371,441,ls),
(371,453,o),
(362,459,o),
(351,459,cs),
(348,459,o),
(344,458,o),
(339,456,cs),
(194,400,l),
(194,677,ls),
(194,690,o),
(184,700,o),
(171,700,cs),
(118,700,ls),
(104,700,o),
(95,690,o),
(95,677,cs),
(95,361,l),
(34,338,ls),
(18,332,o),
(12,327,o),
(12,312,cs),
(12,276,ls),
(12,264,o),
(20,257,o),
(32,257,cs),
(35,257,o),
(39,258,o),
(44,260,cs),
(95,279,l),
(95,23,ls),
(95,10,o),
(104,0,o),
(118,0,cs)
);
}
);
width = 571;
},
{
layerId = "6EF32D45-28F0-4679-BEBE-D25700A745C9";
shapes = (
{
closed = 1;
nodes = (
(511,0,ls),
(524,0,o),
(533,9,o),
(533,22,cs),
(533,38,ls),
(533,51,o),
(524,60,o),
(511,60,cs),
(165,60,l),
(165,317,l),
(320,377,ls),
(336,383,o),
(342,387,o),
(342,402,cs),
(342,421,ls),
(342,433,o),
(334,439,o),
(323,439,cs),
(319,439,o),
(315,438,o),
(310,436,cs),
(165,380,l),
(165,678,ls),
(165,691,o),
(156,700,o),
(143,700,cs),
(124,700,ls),
(111,700,o),
(102,691,o),
(102,678,cs),
(102,355,l),
(34,329,ls),
(18,323,o),
(12,319,o),
(12,304,cs),
(12,285,ls),
(12,273,o),
(20,267,o),
(31,267,cs),
(35,267,o),
(39,268,o),
(44,270,cs),
(102,292,l),
(102,22,ls),
(102,9,o),
(111,0,o),
(124,0,cs)
);
}
);
width = 556;
}
);
leftKerningGroup = I;
rightKerningGroup = L;
unicode = 321;
},
{
color = 6;
glyphname = M;
layers = (
{
anchors = (
{
name = bottom;
position = "{428, 0}";
},
{
name = top;
position = "{428, 700}";
}
);
hints = (
{
horizontal = 1;
place = (0,0);
type = Stem;
}
);
layerId = "CA6E37E7-75D1-4C8E-8071-E5CF96F45DBF";
shapes = (
{
closed = 1;
nodes = (
(263,0,ls),
(278,0,o),
(290,12,o),
(290,27,cs),
(290,301,l),
(356,193,ls),
(363,182,o),
(373,168,o),
(393,168,cs),
(463,168,ls),
(483,168,o),
(493,182,o),
(500,193,cs),
(566,301,l),
(566,27,ls),
(566,12,o),
(578,0,o),
(593,0,cs),
(774,0,ls),
(789,0,o),
(801,12,o),
(801,27,cs),
(801,673,ls),
(801,688,o),
(789,700,o),
(774,700,cs),
(616,700,ls),
(589,700,o),
(577,680,o),
(573,673,cs),
(428,433,l),
(283,673,ls),
(279,680,o),
(267,700,o),
(240,700,cs),
(82,700,ls),
(67,700,o),
(55,688,o),
(55,673,cs),
(55,27,ls),
(55,12,o),
(67,0,o),
(82,0,cs)
);
}
);
width = 856;
},
{
anchors = (
{
name = bottom;
position = "{417, 0}";
},
{
name = top;
position = "{417, 700}";
}
);
layerId = "5BD13F11-F1FA-4397-9D6F-5672E4B50E04";
shapes = (
{
closed = 1;
nodes = (
(227,0,ls),
(241,0,o),
(253,11,o),
(253,26,cs),
(253,375,l),
(354,192,ls),
(361,180,o),
(370,168,o),
(389,168,cs),
(446,168,ls),
(464,168,o),
(474,180,o),
(481,192,cs),
(582,375,l),
(582,26,ls),
(582,11,o),
(593,0,o),
(608,0,cs),
(743,0,ls),
(758,0,o),
(769,11,o),
(769,26,cs),
(769,674,ls),
(769,689,o),
(758,700,o),
(743,700,cs),
(623,700,ls),
(599,700,o),
(589,683,o),
(586,677,cs),
(417,380,l),
(249,677,ls),
(246,683,o),
(236,700,o),
(212,700,cs),
(92,700,ls),
(77,700,o),
(66,689,o),
(66,674,cs),
(66,26,ls),
(66,11,o),
(77,0,o),
(92,0,cs)
);
}
);
width = 835;
},
{
anchors = (
{
name = bottom;
position = "{397, 0}";
},
{
name = top;
position = "{397, 700}";
}
);
layerId = "C994FF3D-7AF7-4E09-8BD7-9052037F2305";
shapes = (
{
closed = 1;
nodes = (
(159,0,ls),
(172,0,o),
(182,10,o),
(182,23,cs),
(182,515,l),
(350,189,l),
(356,176,o),
(365,168,o),
(382,168,cs),
(413,168,ls),
(429,168,o),
(439,176,o),
(445,189,c),
(612,515,l),
(612,23,ls),
(612,10,o),
(622,0,o),
(635,0,cs),
(684,0,ls),
(698,0,o),
(708,10,o),
(708,23,cs),
(708,676,ls),
(708,690,o),
(698,700,o),
(684,700,cs),
(635,700,ls),
(619,700,o),
(612,689,o),
(610,684,c),
(397,280,l),
(186,684,ls),
(183,689,o),
(176,700,o),
(160,700,cs),
(110,700,ls),
(96,700,o),
(87,690,o),
(87,676,cs),
(87,23,ls),
(87,10,o),
(96,0,o),
(110,0,cs)
);
}
);
width = 794;
},
{
anchors = (
{
name = bottom;
position = "{390, 0}";
},
{
name = top;
position = "{390, 700}";
}
);
layerId = "6EF32D45-28F0-4679-BEBE-D25700A745C9";
shapes = (
{
closed = 1;
nodes = (
(135,0,ls),
(148,0,o),
(157,9,o),
(157,22,cs),
(157,564,l),
(348,188,ls),
(354,175,o),
(363,168,o),
(379,168,cs),
(401,168,ls),
(417,168,o),
(426,175,o),
(432,188,cs),
(623,564,l),
(623,22,ls),
(623,9,o),
(632,0,o),
(645,0,cs),
(663,0,ls),
(677,0,o),
(686,9,o),
(686,22,cs),
(686,677,ls),
(686,691,o),
(677,700,o),
(663,700,cs),
(639,700,ls),
(626,700,o),
(620,691,o),
(618,687,cs),
(390,245,l),
(163,687,ls),
(161,691,o),
(155,700,o),
(142,700,cs),
(117,700,ls),
(103,700,o),
(94,691,o),
(94,677,cs),
(94,22,ls),
(94,9,o),
(103,0,o),
(117,0,cs)
);
}
);
width = 780;
}
);
leftKerningGroup = I;
rightKerningGroup = I;
unicode = 77;
},
{
color = 6;
glyphname = N;
layers = (
{
anchors = (
{
name = bottom;
position = "{374, 0}";
},
{
name = top;
position = "{370, 700}";
}
);
layerId = "CA6E37E7-75D1-4C8E-8071-E5CF96F45DBF";
shapes = (
{
closed = 1;
nodes = (
(263,0,ls),
(278,0,o),
(290,12,o),
(290,27,cs),
(290,278,l),
(459,23,ls),
(463,17,o),
(473,0,o),
(500,0,cs),
(658,0,ls),
(673,0,o),
(685,12,o),
(685,27,cs),
(685,673,ls),
(685,688,o),
(673,700,o),
(658,700,cs),
(477,700,ls),
(462,700,o),
(450,688,o),
(450,673,cs),
(450,400,l),
(281,677,ls),
(277,684,o),
(267,700,o),
(240,700,cs),
(82,700,ls),
(67,700,o),
(55,688,o),
(55,673,cs),
(55,27,ls),
(55,12,o),
(67,0,o),
(82,0,cs)
);
}
);
width = 740;
},
{
anchors = (
{
name = bottom;
position = "{366, 0}";
},
{
name = top;
position = "{362, 700}";
}
);
layerId = "5BD13F11-F1FA-4397-9D6F-5672E4B50E04";
shapes = (
{
closed = 1;
nodes = (
(227,0,ls),
(241,0,o),
(253,11,o),
(253,26,cs),
(253,361,l),
(478,20,ls),
(481,15,o),
(490,0,o),
(513,0,cs),
(633,0,ls),
(647,0,o),
(658,11,o),
(658,26,cs),
(658,674,ls),
(658,689,o),
(647,700,o),
(632,700,cs),
(497,700,ls),
(483,700,o),
(472,689,o),
(472,674,cs),
(472,322,l),
(246,680,l),
(243,686,o),
(234,700,o),
(211,700,cs),
(92,700,ls),
(77,700,o),
(66,689,o),
(66,674,cs),
(66,26,ls),
(66,11,o),
(77,0,o),
(92,0,cs)
);
}
);
width = 724;
},
{
anchors = (
{
name = bottom;
position = "{350, 0}";
},
{
name = top;
position = "{347, 700}";
}
);
layerId = "C994FF3D-7AF7-4E09-8BD7-9052037F2305";
shapes = (
{
closed = 1;
nodes = (
(158,0,ls),
(172,0,o),
(182,10,o),
(182,23,cs),
(182,519,l),
(513,14,ls),
(515,11,o),
(522,0,o),
(537,0,cs),
(585,0,ls),
(598,0,o),
(608,10,o),
(608,24,cs),
(608,676,ls),
(608,690,o),
(598,700,o),
(584,700,cs),
(536,700,ls),
(522,700,o),
(513,690,o),
(513,676,cs),
(513,176,l),
(181,686,ls),
(179,690,o),
(172,700,o),
(156,700,cs),
(110,700,ls),
(96,700,o),
(87,690,o),
(87,676,cs),
(87,23,ls),
(87,10,o),
(96,0,o),
(110,0,cs)
);
}
);
width = 695;
},
{
anchors = (
{
name = bottom;
position = "{345, 0}";
},
{
name = top;
position = "{342, 700}";
}
);
layerId = "6EF32D45-28F0-4679-BEBE-D25700A745C9";
shapes = (
{
closed = 1;
nodes = (
(134,0,ls),
(148,0,o),
(157,9,o),
(157,22,cs),
(157,574,l),
(525,12,l),
(527,9,o),
(533,0,o),
(546,0,cs),
(568,0,ls),
(581,0,o),
(590,9,o),
(590,23,cs),
(590,677,ls),
(590,691,o),
(581,700,o),
(567,700,cs),
(549,700,ls),
(536,700,o),
(527,691,o),
(527,677,cs),
(527,124,l),
(158,688,ls),
(156,691,o),
(150,700,o),
(137,700,cs),
(116,700,ls),
(103,700,o),
(94,691,o),
(94,677,cs),
(94,22,ls),
(94,9,o),
(103,0,o),
(116,0,cs)
);
}
);
width = 684;
}
);
leftKerningGroup = I;
rightKerningGroup = I;
unicode = 78;
},
{
color = 6;
glyphname = Eng;
layers = (
{
hints = (
{
horizontal = 1;
place = (0,0);
type = Stem;
}
);
layerId = "CA6E37E7-75D1-4C8E-8071-E5CF96F45DBF";
shapes = (
{
closed = 1;
nodes = (
(359,-225,ls),
(541,-225,o),
(685,-145,o),
(685,26,cs),
(685,673,ls),
(685,688,o),
(673,700,o),
(658,700,cs),
(477,700,ls),
(462,700,o),
(450,688,o),
(450,673,cs),
(450,400,l),
(281,677,ls),
(277,684,o),
(267,700,o),
(240,700,cs),
(82,700,ls),
(67,700,o),
(55,688,o),
(55,673,cs),
(55,27,ls),
(55,12,o),
(67,0,o),
(82,0,cs),
(263,0,ls),
(278,0,o),
(290,12,o),
(290,27,cs),
(290,278,l),
(450,38,l),
(450,36,l),
(450,2,o),
(426,-22,o),
(383,-22,cs),
(343,-22,ls),
(328,-22,o),
(316,-34,o),
(316,-49,c),
(316,-198,ls),
(316,-213,o),
(328,-225,o),
(343,-225,cs)
);
}
);
width = 740;
},
{
layerId = "5BD13F11-F1FA-4397-9D6F-5672E4B50E04";
shapes = (
{
closed = 1;
nodes = (
(382,-225,ls),
(548,-225,o),
(658,-147,o),
(658,3,cs),
(658,674,ls),
(658,689,o),
(647,700,o),
(632,700,cs),
(497,700,ls),
(483,700,o),
(472,689,o),
(472,674,cs),
(472,322,l),
(246,680,l),
(243,686,o),
(234,700,o),
(211,700,cs),
(92,700,ls),
(77,700,o),
(66,689,o),
(66,674,cs),
(66,26,ls),
(66,11,o),
(77,0,o),
(92,0,cs),
(227,0,ls),
(241,0,o),
(253,11,o),
(253,26,cs),
(253,361,l),
(472,30,l),
(472,10,ls),
(472,-32,o),
(451,-62,o),
(399,-62,cs),
(369,-62,ls),
(354,-62,o),
(343,-73,o),
(343,-88,cs),
(343,-199,ls),
(343,-214,o),
(354,-225,o),
(369,-225,cs)
);
}
);
width = 724;
},
{
layerId = "C994FF3D-7AF7-4E09-8BD7-9052037F2305";
shapes = (
{
closed = 1;
nodes = (
(424,-225,ls),
(560,-225,o),
(608,-150,o),
(608,-41,cs),
(608,676,ls),
(608,690,o),
(598,700,o),
(584,700,cs),
(536,700,ls),
(522,700,o),
(513,690,o),
(513,676,cs),
(513,176,l),
(181,686,ls),
(179,690,o),
(172,700,o),
(156,700,cs),
(110,700,ls),
(96,700,o),
(87,690,o),
(87,676,cs),
(87,23,ls),
(87,10,o),
(96,0,o),
(110,0,cs),
(158,0,ls),
(172,0,o),
(182,10,o),
(182,23,cs),
(182,519,l),
(513,14,l),
(513,-40,ls),
(513,-96,o),
(498,-138,o),
(429,-138,cs),
(418,-138,ls),
(404,-138,o),
(395,-148,o),
(395,-161,cs),
(395,-202,ls),
(395,-215,o),
(404,-225,o),
(418,-225,cs)
);
}
);
width = 695;
},
{
layerId = "6EF32D45-28F0-4679-BEBE-D25700A745C9";
shapes = (
{
closed = 1;
nodes = (
(439,-225,l),
(564,-225,o),
(590,-151,o),
(590,-57,c),
(590,677,l),
(590,691,o),
(581,700,o),
(567,700,c),
(549,700,l),
(536,700,o),
(527,691,o),
(527,677,c),
(527,124,l),
(158,688,l),
(156,691,o),
(150,700,o),
(137,700,c),
(116,700,l),
(103,700,o),
(94,691,o),
(94,677,c),
(94,22,l),
(94,9,o),
(103,0,o),
(116,0,c),
(134,0,l),
(148,0,o),
(157,9,o),
(157,22,c),
(157,574,l),
(527,8,l),
(527,-57,l),
(527,-118,o),
(515,-165,o),
(439,-165,c),
(435,-165,l),
(422,-165,o),
(413,-174,o),
(413,-187,c),
(413,-203,l),
(413,-216,o),
(422,-225,o),
(435,-225,c)
);
}
);
width = 684;
}
);
leftKerningGroup = I;
rightKerningGroup = I;
unicode = 330;
},
{
color = 6;
glyphname = O;
layers = (
{
anchors = (
{
name = bottom;
position = "{371, 0}";
},
{
name = center;
position = "{371, 350}";
},
{
name = ogonek;
position = "{668, 10}";
},
{
name = top;
position = "{371, 700}";
},
{
name = topleft;
position = "{20, 700}";
},
{
name = topright;
position = "{722, 700}";
}
);
layerId = "CA6E37E7-75D1-4C8E-8071-E5CF96F45DBF";
shapes = (
{
closed = 1;
nodes = (
(567,-10,o),
(697,81,o),
(705,260,cs),
(707,314,o),
(707,379,o),
(705,436,cs),
(698,611,o),
(567,710,o),
(371,710,cs),
(175,710,o),
(44,611,o),
(37,436,cs),
(35,379,o),
(35,314,o),
(37,260,cs),
(45,81,o),
(175,-10,o),
(371,-10,cs)
);
},
{
closed = 1;
nodes = (
(327,185,o),
(299,210,o),
(297,266,cs),
(295,323,o),
(295,379,o),
(297,434,cs),
(299,490,o),
(328,515,o),
(371,515,cs),
(414,515,o),
(443,490,o),
(445,434,cs),
(447,379,o),
(447,323,o),
(445,266,cs),
(443,210,o),
(415,185,o),
(371,185,cs)
);
}
);
width = 742;
},
{
layerId = "5BD13F11-F1FA-4397-9D6F-5672E4B50E04";
shapes = (
{
closed = 1;
nodes = (
(550,-10,o),
(657,111,o),
(664,261,cs),
(667,316,o),
(667,382,o),
(664,439,cs),
(657,589,o),
(550,710,o),
(356,710,cs),
(163,710,o),
(56,589,o),
(48,439,cs),
(46,382,o),
(46,316,o),
(48,261,cs),
(56,111,o),
(163,-10,o),
(356,-10,cs)
);
},
{
closed = 1;
nodes = (
(271,142,o),
(229,193,o),
(223,266,cs),
(220,314,o),
(220,387,o),
(223,434,cs),
(229,507,o),
(271,558,o),
(356,558,cs),
(442,558,o),
(484,507,o),
(489,434,cs),
(493,387,o),
(493,314,o),
(489,266,cs),
(484,193,o),
(442,142,o),
(356,142,cs)
);
}
);
width = 713;
},
{
layerId = "C994FF3D-7AF7-4E09-8BD7-9052037F2305";
shapes = (
{
closed = 1;
nodes = (
(510,-10,o),
(605,106,o),
(610,262,cs),
(612,322,o),
(612,378,o),
(610,438,c),
(606,593,o),
(508,710,o),
(335,710,cs),
(162,710,o),
(64,593,o),
(61,438,c),
(59,378,o),
(59,322,o),
(61,262,cs),
(66,106,o),
(161,-10,o),
(335,-10,cs)
);
},
{
closed = 1;
nodes = (
(231,76,o),
(156,136,o),
(151,267,cs),
(149,327,o),
(149,373,o),
(151,433,cs),
(156,564,o),
(231,624,o),
(335,624,cs),
(440,624,o),
(515,564,o),
(519,433,cs),
(521,373,o),
(521,327,o),
(519,267,cs),
(515,136,o),
(440,76,o),
(335,76,cs)
);
}
);
width = 671;
},
{
anchors = (
{
name = bottom;
position = "{331, 0}";
},
{
name = center;
position = "{331, 350}";
},
{
name = ogonek;
position = "{596, 10}";
},
{
name = top;
position = "{331, 700}";
},
{
name = topleft;
position = "{20, 700}";
},
{
name = topright;
position = "{642, 700}";
}
);
layerId = "6EF32D45-28F0-4679-BEBE-D25700A745C9";
shapes = (
{
closed = 1;
nodes = (
(497,-10,o),
(590,77,o),
(595,266,cs),
(597,326,o),
(597,374,o),
(595,434,cs),
(590,620,o),
(487,710,o),
(331,710,cs),
(175,710,o),
(72,620,o),
(67,434,cs),
(65,374,o),
(65,326,o),
(67,266,cs),
(72,77,o),
(165,-10,o),
(331,-10,cs)
);
},
{
closed = 1;
nodes = (
(217,50,o),
(135,115,o),
(130,271,cs),
(128,331,o),
(128,369,o),
(130,429,cs),
(135,585,o),
(218,650,o),
(331,650,cs),
(444,650,o),
(527,585,o),
(532,429,cs),
(534,369,o),
(534,331,o),
(532,271,cs),
(527,115,o),
(445,50,o),
(331,50,cs)
);
}
);
width = 662;
}
);
leftKerningGroup = O;
rightKerningGroup = O;
unicode = 79;
},
{
color = 6;
glyphname = OE;
layers = (
{
anchors = (
{
name = bottom;
position = "{501, 0}";
},
{
name = top;
position = "{501, 700}";
}
);
hints = (
{
horizontal = 1;
place = (0,0);
type = Stem;
}
);
layerId = "CA6E37E7-75D1-4C8E-8071-E5CF96F45DBF";
shapes = (
{
closed = 1;
nodes = (
(937,0,l),
(952,0,o),
(964,12,o),
(964,27,c),
(964,168,l),
(964,183,o),
(952,195,o),
(937,195,c),
(649,195,l),
(649,258,l),
(907,258,l),
(922,258,o),
(934,270,o),
(934,285,c),
(934,415,l),
(934,430,o),
(922,442,o),
(907,442,c),
(649,442,l),
(649,505,l),
(929,505,l),
(944,505,o),
(956,517,o),
(956,532,c),
(956,673,l),
(956,688,o),
(944,700,o),
(929,700,c),
(369,700,l),
(182,700,o),
(42,604,o),
(35,425,cs),
(33,368,o),
(33,330,o),
(35,276,cs),
(43,87,o),
(173,0,o),
(364,0,c)
);
},
{
closed = 1;
nodes = (
(369,195,l),
(325,195,o),
(292,220,o),
(289,276,cs),
(286,333,o),
(286,370,o),
(289,425,cs),
(292,481,o),
(329,505,o),
(374,505,c),
(410,505,l),
(410,195,l)
);
}
);
width = 1002;
},
{
layerId = "5BD13F11-F1FA-4397-9D6F-5672E4B50E04";
shapes = (
{
closed = 1;
nodes = (
(902,0,ls),
(917,0,o),
(929,12,o),
(929,27,cs),
(929,125,ls),
(929,140,o),
(917,152,o),
(902,152,cs),
(610,152,l),
(610,276,l),
(872,276,ls),
(887,276,o),
(899,288,o),
(899,303,cs),
(899,401,ls),
(899,416,o),
(887,428,o),
(872,428,cs),
(610,428,l),
(610,548,l),
(894,548,ls),
(909,548,o),
(921,560,o),
(921,575,cs),
(921,673,ls),
(921,688,o),
(909,700,o),
(894,700,cs),
(359,700,ls),
(177,700,o),
(53,586,o),
(47,422,cs),
(45,365,o),
(45,333,o),
(47,278,cs),
(53,114,o),
(172,0,o),
(354,0,cs)
);
},
{
closed = 1;
nodes = (
(359,152,ls),
(268,152,o),
(224,197,o),
(222,275,cs),
(220,332,o),
(220,369,o),
(222,425,cs),
(225,503,o),
(273,548,o),
(364,548,cs),
(435,548,l),
(435,152,l)
);
}
);
width = 975;
},
{
layerId = "C994FF3D-7AF7-4E09-8BD7-9052037F2305";
shapes = (
{
closed = 1;
nodes = (
(842,0,ls),
(857,0,o),
(868,12,o),
(868,26,cs),
(868,59,ls),
(868,74,o),
(857,86,o),
(842,86,cs),
(509,86,l),
(509,311,l),
(812,311,ls),
(827,311,o),
(838,323,o),
(838,338,cs),
(838,371,ls),
(838,385,o),
(827,397,o),
(812,397,cs),
(509,397,l),
(509,614,l),
(834,614,ls),
(849,614,o),
(860,626,o),
(860,641,cs),
(860,674,ls),
(860,688,o),
(849,700,o),
(834,700,cs),
(346,700,ls),
(174,700,o),
(64,599,o),
(61,429,cs),
(60,369,o),
(60,331,o),
(61,271,cs),
(64,100,o),
(170,0,o),
(340,0,cs)
);
},
{
closed = 1;
nodes = (
(345,86,ls),
(199,86,o),
(153,171,o),
(151,276,cs),
(150,336,o),
(150,364,o),
(151,424,cs),
(153,527,o),
(204,614,o),
(350,614,cs),
(418,614,l),
(418,86,l)
);
}
);
width = 917;
},
{
anchors = (
{
name = bottom;
position = "{450, 0}";
},
{
name = top;
position = "{450, 700}";
}
);
layerId = "6EF32D45-28F0-4679-BEBE-D25700A745C9";
shapes = (
{
closed = 1;
nodes = (
(823,0,l),
(837,0,o),
(846,9,o),
(846,22,c),
(846,37,l),
(846,51,o),
(837,60,o),
(823,60,c),
(506,60,l),
(506,325,l),
(793,325,l),
(807,325,o),
(816,334,o),
(816,347,c),
(816,362,l),
(816,376,o),
(807,385,o),
(793,385,c),
(506,385,l),
(506,640,l),
(815,640,l),
(829,640,o),
(838,649,o),
(838,662,c),
(838,677,l),
(838,691,o),
(829,700,o),
(815,700,c),
(348,700,l),
(136,700,o),
(73,604,o),
(70,430,cs),
(69,370,o),
(69,331,o),
(70,271,cs),
(74,87,o),
(137,0,o),
(343,0,c)
);
},
{
closed = 1;
nodes = (
(348,60,l),
(189,60,o),
(136,120,o),
(133,276,cs),
(132,336,o),
(132,365,o),
(133,425,cs),
(136,571,o),
(193,640,o),
(353,640,c),
(443,640,l),
(443,60,l)
);
}
);
width = 900;
}
);
leftKerningGroup = O;
rightKerningGroup = E;
unicode = 338;
},
{
color = 6;
glyphname = P;
layers = (
{
anchors = (
{
name = bottom;
position = "{353, 0}";
},
{
name = top;
position = "{353, 700}";
}
);
hints = (
{
horizontal = 1;
place = (0,0);
type = Stem;
}
);
layerId = "CA6E37E7-75D1-4C8E-8071-E5CF96F45DBF";
shapes = (
{
closed = 1;
nodes = (
(288,0,ls),
(303,0,o),
(315,12,o),
(315,27,cs),
(315,218,l),
(385,218,ls),
(566,218,o),
(686,289,o),
(686,455,cs),
(686,621,o),
(566,700,o),
(385,700,cs),
(82,700,ls),
(67,700,o),
(55,688,o),
(55,673,cs),
(55,27,ls),
(55,12,o),
(67,0,o),
(82,0,cs)
);
},
{
closed = 1;
nodes = (
(310,514,l),
(380,514,ls),
(416,514,o),
(426,482,o),
(426,457,cs),
(426,418,o),
(401,403,o),
(380,403,cs),
(310,403,l)
);
}
);
width = 705;
},
{
anchors = (
{
name = bottom;
position = "{342, 0}";
},
{
name = top;
position = "{342, 700}";
}
);
layerId = "5BD13F11-F1FA-4397-9D6F-5672E4B50E04";
shapes = (
{
closed = 1;
nodes = (
(245,0,ls),
(259,0,o),
(271,11,o),
(271,26,cs),
(271,237,l),
(378,237,ls),
(547,237,o),
(659,308,o),
(659,466,cs),
(659,623,o),
(547,700,o),
(378,700,cs),
(92,700,ls),
(77,700,o),
(66,689,o),
(66,674,cs),
(66,26,ls),
(66,11,o),
(77,0,o),
(92,0,cs)
);
},
{
closed = 1;
nodes = (
(267,549,l),
(373,549,ls),
(431,549,o),
(454,512,o),
(454,467,cs),
(454,412,o),
(420,387,o),
(373,387,cs),
(267,387,l)
);
}
);
width = 683;
},
{
anchors = (
{
name = bottom;
position = "{321, 0}";
},
{
name = top;
position = "{321, 700}";
}
);
layerId = "C994FF3D-7AF7-4E09-8BD7-9052037F2305";
shapes = (
{
closed = 1;
nodes = (
(163,0,ls),
(177,0,o),
(187,10,o),
(187,23,cs),
(187,273,l),
(364,273,ls),
(512,273,o),
(607,344,o),
(607,486,cs),
(607,628,o),
(512,700,o),
(364,700,cs),
(110,700,ls),
(96,700,o),
(87,690,o),
(87,676,cs),
(87,23,ls),
(87,10,o),
(96,0,o),
(110,0,cs)
);
},
{
closed = 1;
nodes = (
(186,616,l),
(359,616,ls),
(460,616,o),
(507,568,o),
(507,486,cs),
(507,402,o),
(457,357,o),
(359,357,cs),
(186,357,l)
);
}
);
width = 642;
},
{
anchors = (
{
name = bottom;
position = "{314, 0}";
},
{
name = top;
position = "{314, 700}";
}
);
layerId = "6EF32D45-28F0-4679-BEBE-D25700A745C9";
shapes = (
{
closed = 1;
nodes = (
(134,0,ls),
(148,0,o),
(157,9,o),
(157,22,cs),
(157,286,l),
(359,286,ls),
(499,286,o),
(589,357,o),
(589,493,cs),
(589,629,o),
(499,700,o),
(359,700,cs),
(116,700,ls),
(103,700,o),
(94,691,o),
(94,677,cs),
(94,22,ls),
(94,9,o),
(103,0,o),
(116,0,cs)
);
},
{
closed = 1;
nodes = (
(157,640,l),
(354,640,ls),
(470,640,o),
(526,588,o),
(526,493,cs),
(526,398,o),
(470,346,o),
(354,346,cs),
(157,346,l)
);
}
);
width = 628;
}
);
leftKerningGroup = I;
unicode = 80;
},
{
color = 6;
glyphname = Thorn;
layers = (
{
anchors = (
{
name = bottom;
position = "{353, 0}";
},
{
name = top;
position = "{353, 700}";
}
);
hints = (
{
horizontal = 1;
place = (0,0);
type = Stem;
}
);
layerId = "CA6E37E7-75D1-4C8E-8071-E5CF96F45DBF";
shapes = (
{
closed = 1;
nodes = (
(288,0,ls),
(303,0,o),
(315,12,o),
(315,27,cs),
(315,119,l),
(380,119,ls),
(566,119,o),
(686,190,o),
(686,356,cs),
(686,522,o),
(566,601,o),
(380,601,c),
(315,601,l),
(315,673,ls),
(315,688,o),
(303,700,o),
(288,700,cs),
(82,700,l),
(67,700,o),
(55,688,o),
(55,673,cs),
(55,27,ls),
(55,12,o),
(67,0,o),
(82,0,cs)
);
},
{
closed = 1;
nodes = (
(310,415,l),
(380,415,ls),
(416,415,o),
(426,383,o),
(426,358,cs),
(426,319,o),
(401,304,o),
(380,304,cs),
(310,304,l)
);
}
);
width = 705;
},
{
anchors = (
{
name = bottom;
position = "{343, 0}";
},
{
name = top;
position = "{343, 700}";
}
);
layerId = "5BD13F11-F1FA-4397-9D6F-5672E4B50E04";
shapes = (
{
closed = 1;
nodes = (
(245,0,ls),
(259,0,o),
(271,11,o),
(271,26,cs),
(271,126,l),
(374,126,ls),
(547,126,o),
(659,197,o),
(659,354,cs),
(659,512,o),
(547,589,o),
(374,589,cs),
(271,589,l),
(271,674,ls),
(271,689,o),
(259,700,o),
(245,700,cs),
(92,700,ls),
(77,700,o),
(66,689,o),
(66,674,cs),
(66,26,ls),
(66,11,o),
(77,0,o),
(92,0,cs)
);
},
{
closed = 1;
nodes = (
(267,438,l),
(373,438,ls),
(431,438,o),
(454,400,o),
(454,356,cs),
(454,301,o),
(420,276,o),
(373,276,cs),
(267,276,l)
);
}
);
width = 685;
},
{
anchors = (
{
name = bottom;
position = "{324, 0}";
},
{
name = top;
position = "{324, 700}";
}
);
layerId = "C994FF3D-7AF7-4E09-8BD7-9052037F2305";
shapes = (
{
closed = 1;
nodes = (
(163,0,ls),
(177,0,o),
(187,10,o),
(187,23,cs),
(187,139,l),
(363,139,ls),
(512,139,o),
(607,210,o),
(607,351,cs),
(607,493,o),
(512,565,o),
(363,565,cs),
(187,565,l),
(187,677,ls),
(187,690,o),
(177,700,o),
(164,700,cs),
(110,700,ls),
(96,700,o),
(87,690,o),
(87,677,cs),
(87,23,ls),
(87,10,o),
(96,0,o),
(110,0,cs)
);
},
{
closed = 1;
nodes = (
(186,482,l),
(359,482,ls),
(460,482,o),
(507,433,o),
(507,352,cs),
(507,267,o),
(457,222,o),
(359,222,cs),
(186,222,l)
);
}
);
width = 647;
},
{
anchors = (
{
name = bottom;
position = "{317, 0}";
},
{
name = top;
position = "{317, 700}";
}
);
layerId = "6EF32D45-28F0-4679-BEBE-D25700A745C9";
shapes = (
{
closed = 1;
nodes = (
(134,0,l),
(148,0,o),
(157,9,o),
(157,22,c),
(157,143,l),
(359,143,l),
(499,143,o),
(589,214,o),
(589,350,cs),
(589,486,o),
(499,557,o),
(359,557,c),
(157,557,l),
(157,678,l),
(157,691,o),
(148,700,o),
(135,700,c),
(116,700,l),
(103,700,o),
(94,691,o),
(94,678,c),
(94,22,l),
(94,9,o),
(103,0,o),
(116,0,c)
);
},
{
closed = 1;
nodes = (
(157,497,l),
(354,497,l),
(470,497,o),
(526,445,o),
(526,350,cs),
(526,255,o),
(470,203,o),
(354,203,c),
(157,203,l)
);
}
);
width = 633;
}
);
leftKerningGroup = I;
unicode = 222;
},
{
color = 6;
glyphname = Q;
layers = (
{
anchors = (
{
name = bottom;
position = "{371, 0}";
},
{
name = top;
position = "{371, 700}";
}
);
hints = (
{
horizontal = 1;
place = (0,0);
type = Stem;
}
);
layerId = "CA6E37E7-75D1-4C8E-8071-E5CF96F45DBF";
shapes = (
{
closed = 1;
nodes = (
(694,-65,l),
(706,-65,o),
(716,-55,o),
(714,-43,c),
(714,-40,o),
(712,-36,o),
(711,-34,c),
(632,79,l),
(675,123,o),
(700,184,o),
(704,260,cs),
(706,314,o),
(706,379,o),
(704,436,cs),
(697,611,o),
(566,710,o),
(370,710,cs),
(174,710,o),
(43,611,o),
(36,436,cs),
(34,379,o),
(34,314,o),
(36,260,cs),
(44,81,o),
(174,-10,o),
(370,-10,cs),
(390,-10,o),
(410,-9,o),
(428,-7,c),
(456,-42,l),
(462,-50,o),
(473,-65,o),
(498,-65,c)
);
},
{
closed = 1;
nodes = (
(326,185,o),
(298,210,o),
(296,266,cs),
(294,323,o),
(294,379,o),
(296,434,cs),
(298,490,o),
(327,515,o),
(370,515,cs),
(413,515,o),
(442,490,o),
(444,434,cs),
(446,379,o),
(446,323,o),
(444,266,cs),
(442,210,o),
(414,185,o),
(370,185,cs)
);
}
);
width = 742;
},
{
layerId = "5BD13F11-F1FA-4397-9D6F-5672E4B50E04";
shapes = (
{
closed = 1;
nodes = (
(652,-65,ls),
(664,-65,o),
(673,-55,o),
(672,-43,c),
(672,-40,o),
(670,-36,o),
(669,-34,cs),
(590,79,l),
(635,127,o),
(661,190,o),
(664,261,cs),
(667,316,o),
(667,382,o),
(664,439,cs),
(657,589,o),
(550,710,o),
(356,710,cs),
(163,710,o),
(56,589,o),
(48,439,cs),
(46,382,o),
(46,316,o),
(48,261,cs),
(56,111,o),
(163,-10,o),
(356,-10,cs),
(390,-10,o),
(421,-5,o),
(449,2,c),
(479,-42,ls),
(485,-50,o),
(496,-65,o),
(521,-65,cs)
);
},
{
closed = 1;
nodes = (
(271,142,o),
(229,193,o),
(223,266,cs),
(220,314,o),
(220,387,o),
(223,434,cs),
(229,507,o),
(271,558,o),
(356,558,cs),
(442,558,o),
(484,507,o),
(489,434,cs),
(493,387,o),
(493,314,o),
(489,266,cs),
(484,193,o),
(442,142,o),
(356,142,cs)
);
}
);
width = 713;
},
{
layerId = "C994FF3D-7AF7-4E09-8BD7-9052037F2305";
shapes = (
{
closed = 1;
nodes = (
(589,-65,ls),
(601,-65,o),
(609,-56,o),
(609,-44,cs),
(609,-40,o),
(607,-36,o),
(606,-34,cs),
(533,65,l),
(581,114,o),
(607,183,o),
(610,262,cs),
(612,322,o),
(612,378,o),
(610,438,c),
(606,593,o),
(508,710,o),
(335,710,cs),
(162,710,o),
(64,593,o),
(61,438,c),
(59,378,o),
(59,322,o),
(61,262,cs),
(66,106,o),
(161,-10,o),
(335,-10,cs),
(384,-10,o),
(427,-1,o),
(462,16,c),
(505,-42,ls),
(511,-50,o),
(522,-65,o),
(545,-65,cs)
);
},
{
closed = 1;
nodes = (
(231,76,o),
(156,136,o),
(151,267,cs),
(149,327,o),
(149,373,o),
(151,433,cs),
(156,564,o),
(231,624,o),
(335,624,cs),
(440,624,o),
(515,564,o),
(519,433,cs),
(521,373,o),
(521,327,o),
(519,267,cs),
(515,136,o),
(440,76,o),
(335,76,cs)
);
}
);
width = 671;
},
{
anchors = (
{
name = bottom;
position = "{331, 0}";
},
{
name = top;
position = "{331, 700}";
}
);
layerId = "6EF32D45-28F0-4679-BEBE-D25700A745C9";
shapes = (
{
closed = 1;
nodes = (
(569,-65,l),
(580,-65,o),
(589,-56,o),
(589,-45,cs),
(589,-39,o),
(587,-36,o),
(586,-34,c),
(522,56,l),
(568,101,o),
(592,171,o),
(595,266,cs),
(597,326,o),
(597,374,o),
(595,434,cs),
(590,620,o),
(487,710,o),
(331,710,cs),
(175,710,o),
(72,620,o),
(67,434,cs),
(65,374,o),
(65,326,o),
(67,266,cs),
(72,77,o),
(165,-10,o),
(331,-10,cs),
(386,-10,o),
(432,0,o),
(471,19,c),
(515,-42,l),
(521,-50,o),
(532,-65,o),
(547,-65,c)
);
},
{
closed = 1;
nodes = (
(217,50,o),
(135,115,o),
(130,271,cs),
(128,331,o),
(128,369,o),
(130,429,cs),
(135,585,o),
(218,650,o),
(331,650,cs),
(444,650,o),
(527,585,o),
(532,429,cs),
(534,369,o),
(534,331,o),
(532,271,cs),
(527,115,o),
(445,50,o),
(331,50,cs)
);
}
);
width = 662;
}
);
leftKerningGroup = O;
rightKerningGroup = O;
unicode = 81;
},
{
color = 6;
glyphname = R;
layers = (
{
anchors = (
{
name = bottom;
position = "{369, 0}";
},
{
name = top;
position = "{341, 700}";
}
);
layerId = "CA6E37E7-75D1-4C8E-8071-E5CF96F45DBF";
shapes = (
{
closed = 1;
nodes = (
(305,232,l),
(432,27,ls),
(438,18,o),
(448,0,o),
(475,0,cs),
(695,0,ls),
(707,0,o),
(717,10,o),
(717,22,cs),
(717,27,o),
(717,29,o),
(714,33,cs),
(565,274,l)
);
},
{
alignment = -1;
ref = P;
}
);
width = 722;
},
{
anchors = (
{
name = bottom;
position = "{356, 0}";
},
{
name = top;
position = "{329, 700}";
}
);
layerId = "5BD13F11-F1FA-4397-9D6F-5672E4B50E04";
shapes = (
{
closed = 1;
nodes = (
(291,254,l),
(455,27,ls),
(462,17,o),
(471,0,o),
(496,0,cs),
(660,0,ls),
(672,0,o),
(682,10,o),
(682,21,cs),
(682,26,o),
(682,28,o),
(679,32,cs),
(499,286,l)
);
},
{
alignment = -1;
ref = P;
}
);
width = 699;
},
{
anchors = (
{
name = bottom;
position = "{332, 0}";
},
{
name = top;
position = "{307, 700}";
}
);
layerId = "C994FF3D-7AF7-4E09-8BD7-9052037F2305";
shapes = (
{
closed = 1;
nodes = (
(264,295,l),
(497,27,ls),
(507,15,o),
(513,0,o),
(536,0,cs),
(595,0,ls),
(606,0,o),
(615,9,o),
(615,20,cs),
(615,25,o),
(615,27,o),
(612,31,cs),
(374,310,l)
);
},
{
alignment = -1;
ref = P;
}
);
width = 655;
},
{
anchors = (
{
name = bottom;
position = "{324, 0}";
},
{
name = top;
position = "{299, 700}";
}
);
layerId = "6EF32D45-28F0-4679-BEBE-D25700A745C9";
shapes = (
{
closed = 1;
nodes = (
(255,309,l),
(512,27,ls),
(523,14,o),
(528,0,o),
(550,0,cs),
(572,0,ls),
(583,0,o),
(592,9,o),
(592,20,cs),
(592,24,o),
(592,27,o),
(589,31,cs),
(330,318,l)
);
},
{
alignment = -1;
ref = P;
}
);
width = 640;
}
);
leftKerningGroup = I;
rightKerningGroup = R;
unicode = 82;
},
{
color = 6;
glyphname = S;
layers = (
{
anchors = (
{
name = bottom;
position = "{349, 0}";
},
{
name = top;
position = "{349, 700}";
}
);
layerId = "CA6E37E7-75D1-4C8E-8071-E5CF96F45DBF";
shapes = (
{
closed = 1;
nodes = (
(536,-10,o),
(679,80,o),
(679,226,cs),
(679,356,o),
(603,419,o),
(403,444,cs),
(313,455,o),
(292,468,o),
(292,487,cs),
(292,504,o),
(306,515,o),
(340,515,cs),
(368,515,o),
(386,503,o),
(393,497,cs),
(405,486,o),
(414,481,o),
(433,481,cs),
(633,481,ls),
(644,481,o),
(654,491,o),
(654,503,c),
(651,590,o),
(540,710,o),
(340,710,cs),
(158,710,o),
(35,616,o),
(35,480,cs),
(35,347,o),
(135,281,o),
(293,260,cs),
(392,247,o),
(422,237,o),
(422,213,cs),
(422,195,o),
(392,185,o),
(347,185,cs),
(314,185,o),
(292,193,o),
(273,208,cs),
(259,219,o),
(251,225,o),
(230,225,cs),
(40,225,ls),
(28,225,o),
(18,215,o),
(18,203,c),
(21,92,o),
(126,-10,o),
(347,-10,cs)
);
}
);
width = 697;
},
{
layerId = "5BD13F11-F1FA-4397-9D6F-5672E4B50E04";
shapes = (
{
closed = 1;
nodes = (
(509,-10,o),
(636,73,o),
(636,206,cs),
(636,329,o),
(565,385,o),
(418,416,cs),
(271,447,o),
(224,458,o),
(224,501,cs),
(224,544,o),
(274,558,o),
(327,558,cs),
(400,558,o),
(426,519,o),
(435,509,c),
(447,498,o),
(456,493,o),
(474,493,cs),
(595,493,ls),
(606,493,o),
(616,503,o),
(616,515,c),
(613,599,o),
(496,710,o),
(327,710,cs),
(154,710,o),
(49,610,o),
(49,496,cs),
(49,385,o),
(109,317,o),
(245,288,cs),
(392,256,o),
(461,245,o),
(461,202,cs),
(461,159,o),
(404,142,o),
(332,142,cs),
(249,142,o),
(220,188,o),
(208,202,cs),
(198,212,o),
(188,217,o),
(170,217,cs),
(49,217,ls),
(38,217,o),
(28,207,o),
(28,195,c),
(31,96,o),
(155,-10,o),
(332,-10,cs)
);
}
);
width = 668;
},
{
layerId = "C994FF3D-7AF7-4E09-8BD7-9052037F2305";
shapes = (
{
closed = 1;
nodes = (
(467,-10,o),
(572,72,o),
(572,192,cs),
(572,294,o),
(512,344,o),
(361,385,cs),
(214,425,o),
(154,447,o),
(154,518,cs),
(154,590,o),
(223,624,o),
(301,624,cs),
(400,624,o),
(450,562,o),
(463,530,c),
(471,512,o),
(478,508,o),
(492,508,cs),
(530,508,ls),
(543,508,o),
(553,518,o),
(552,530,cs),
(549,598,o),
(462,710,o),
(301,710,cs),
(143,710,o),
(64,618,o),
(64,518,cs),
(64,425,o),
(115,364,o),
(250,327,cs),
(396,288,o),
(482,263,o),
(482,192,cs),
(482,121,o),
(405,76,o),
(306,76,cs),
(194,76,o),
(144,136,o),
(129,175,cs),
(122,192,o),
(112,197,o),
(99,197,cs),
(61,197,ls),
(49,197,o),
(39,187,o),
(39,175,c),
(42,90,o),
(150,-10,o),
(306,-10,cs)
);
}
);
width = 616;
},
{
anchors = (
{
name = bottom;
position = "{305, 0}";
},
{
name = top;
position = "{303, 700}";
}
);
layerId = "6EF32D45-28F0-4679-BEBE-D25700A745C9";
shapes = (
{
closed = 1;
nodes = (
(459,-10,o),
(555,60,o),
(555,181,cs),
(555,291,o),
(484,329,o),
(334,377,cs),
(191,423,o),
(131,450,o),
(131,530,cs),
(131,612,o),
(200,650,o),
(299,650,cs),
(397,650,o),
(464,601,o),
(472,535,cs),
(474,519,o),
(487,515,o),
(494,515,cs),
(514,515,ls),
(528,515,o),
(535,525,o),
(535,535,c),
(532,612,o),
(457,710,o),
(299,710,cs),
(151,710,o),
(68,631,o),
(68,530,cs),
(68,420,o),
(131,379,o),
(274,333,cs),
(423,285,o),
(492,260,o),
(492,181,cs),
(492,101,o),
(434,50,o),
(304,50,cs),
(174,50,o),
(119,114,o),
(111,170,cs),
(109,181,o),
(102,190,o),
(89,190,cs),
(69,190,ls),
(57,190,o),
(48,181,o),
(48,170,c),
(51,79,o),
(142,-10,o),
(304,-10,cs)
);
}
);
width = 605;
}
);
leftKerningGroup = S;
rightKerningGroup = S;
unicode = 83;
},
{
color = 6;
glyphname = Germandbls;
layers = (
{
anchors = (
{
name = bottom;
position = "{341, 0}";
}
);
hints = (
{
horizontal = 1;
place = (0,0);
type = Stem;
}
);
layerId = "CA6E37E7-75D1-4C8E-8071-E5CF96F45DBF";
shapes = (
{
closed = 1;
nodes = (
(250,0,ls),
(265,0,o),
(277,12,o),
(277,27,c),
(277,459,ls),
(277,516,o),
(299,541,o),
(348,541,cs),
(376,541,o),
(395,531,o),
(395,517,cs),
(395,513,o),
(393,510,o),
(389,506,cs),
(325,432,ls),
(310,414,o),
(307,409,o),
(307,391,cs),
(307,298,ls),
(307,281,o),
(317,271,o),
(336,271,cs),
(377,271,ls),
(436,271,o),
(459,250,o),
(459,219,cs),
(459,188,o),
(437,168,o),
(378,168,cs),
(340,168,ls),
(320,168,o),
(307,157,o),
(307,141,cs),
(307,27,ls),
(307,11,o),
(320,0,o),
(340,0,c),
(435,0,ls),
(593,0,o),
(705,81,o),
(705,207,cs),
(705,307,o),
(632,394,o),
(463,394,c),
(491,290,l),
(651,469,ls),
(676,496,o),
(679,508,o),
(679,526,cs),
(679,610,o),
(553,710,o),
(362,710,cs),
(170,710,o),
(45,617,o),
(45,452,cs),
(45,27,ls),
(45,12,o),
(57,0,o),
(72,0,cs)
);
}
);
width = 715;
},
{
anchors = (
{
name = bottom;
position = "{325, 0}";
}
);
layerId = "5BD13F11-F1FA-4397-9D6F-5672E4B50E04";
shapes = (
{
closed = 1;
nodes = (
(214,0,ls),
(229,0,o),
(240,11,o),
(240,26,cs),
(240,458,ls),
(240,539,o),
(276,572,o),
(344,572,cs),
(386,572,o),
(418,555,o),
(418,536,cs),
(418,530,o),
(414,525,o),
(408,519,cs),
(316,420,l),
(302,403,o),
(299,399,o),
(299,383,cs),
(299,313,ls),
(299,297,o),
(309,287,o),
(326,287,cs),
(368,287,ls),
(443,287,o),
(476,260,o),
(476,214,cs),
(476,165,o),
(444,137,o),
(368,137,cs),
(308,137,ls),
(290,137,o),
(278,127,o),
(278,112,cs),
(278,26,ls),
(278,10,o),
(290,0,o),
(308,0,cs),
(412,0,ls),
(565,0,o),
(670,80,o),
(670,205,cs),
(670,310,o),
(592,392,o),
(427,392,c),
(447,306,l),
(611,484,ls),
(635,509,o),
(641,522,o),
(641,543,cs),
(641,622,o),
(524,710,o),
(355,710,cs),
(173,710,o),
(56,622,o),
(56,455,cs),
(56,26,ls),
(56,11,o),
(67,0,o),
(82,0,cs)
);
}
);
width = 682;
},
{
anchors = (
{
name = bottom;
position = "{296, 0}";
}
);
layerId = "C994FF3D-7AF7-4E09-8BD7-9052037F2305";
shapes = (
{
closed = 1;
nodes = (
(147,0,ls),
(160,0,o),
(170,10,o),
(170,23,cs),
(170,457,ls),
(170,583,o),
(232,631,o),
(335,631,cs),
(405,631,o),
(462,601,o),
(462,573,cs),
(462,563,o),
(455,554,o),
(443,543,c),
(300,397,ls),
(286,383,o),
(284,379,o),
(284,367,cs),
(284,340,ls),
(284,327,o),
(293,317,o),
(308,317,cs),
(352,317,ls),
(456,317,o),
(508,278,o),
(508,204,cs),
(508,121,o),
(456,79,o),
(349,79,cs),
(248,79,ls),
(234,79,o),
(224,69,o),
(224,56,cs),
(224,23,ls),
(224,9,o),
(234,0,o),
(248,0,cs),
(368,0,ls),
(511,0,o),
(603,78,o),
(603,202,cs),
(603,316,o),
(517,388,o),
(360,388,c),
(363,336,l),
(536,513,l),
(557,533,o),
(568,548,o),
(568,576,cs),
(568,644,o),
(469,710,o),
(342,710,cs),
(179,710,o),
(77,631,o),
(77,460,cs),
(77,23,ls),
(77,10,o),
(86,0,o),
(100,0,cs)
);
}
);
width = 620;
},
{
anchors = (
{
name = bottom;
position = "{286, 0}";
}
);
layerId = "6EF32D45-28F0-4679-BEBE-D25700A745C9";
shapes = (
{
closed = 1;
nodes = (
(123,0,ls),
(136,0,o),
(145,9,o),
(145,22,cs),
(145,457,ls),
(145,598,o),
(216,652,o),
(332,652,cs),
(412,652,o),
(477,617,o),
(477,586,cs),
(477,574,o),
(469,564,o),
(456,551,cs),
(294,389,ls),
(281,376,o),
(279,372,o),
(279,361,cs),
(279,350,ls),
(279,337,o),
(288,328,o),
(301,328,cs),
(346,328,ls),
(461,328,o),
(519,285,o),
(519,201,cs),
(519,106,o),
(460,58,o),
(342,58,cs),
(227,58,ls),
(214,58,o),
(205,49,o),
(205,36,cs),
(205,22,ls),
(205,9,o),
(214,0,o),
(227,0,cs),
(352,0,ls),
(492,0,o),
(580,77,o),
(580,201,cs),
(580,318,o),
(490,386,o),
(336,386,c),
(334,346,l),
(510,523,ls),
(529,542,o),
(542,557,o),
(542,588,cs),
(542,652,o),
(449,710,o),
(337,710,cs),
(181,710,o),
(84,634,o),
(84,462,cs),
(84,22,ls),
(84,9,o),
(93,0,o),
(106,0,cs)
);
}
);
width = 598;
}
);
unicode = 7838;
},
{
color = 6;
glyphname = T;
layers = (
{
anchors = (
{
name = bottom;
position = "{337, 0}";
},
{
name = center;
position = "{337, 350}";
},
{
name = top;
position = "{337, 700}";
}
);
hints = (
{
horizontal = 1;
place = (0,0);
type = Stem;
}
);
layerId = "CA6E37E7-75D1-4C8E-8071-E5CF96F45DBF";
shapes = (
{
closed = 1;
nodes = (
(437,0,ls),
(452,0,o),
(464,12,o),
(464,27,cs),
(464,485,l),
(630,485,ls),
(645,485,o),
(657,497,o),
(657,512,cs),
(657,673,ls),
(657,688,o),
(645,700,o),
(630,700,cs),
(44,700,ls),
(29,700,o),
(17,688,o),
(17,673,cs),
(17,512,ls),
(17,497,o),
(29,485,o),
(44,485,cs),
(210,485,l),
(210,27,ls),
(210,12,o),
(222,0,o),
(237,0,cs)
);
}
);
width = 674;
},
{
anchors = (
{
name = bottom;
position = "{321, 0}";
},
{
name = center;
position = "{321, 350}";
},
{
name = top;
position = "{321, 700}";
}
);
layerId = "5BD13F11-F1FA-4397-9D6F-5672E4B50E04";
shapes = (
{
closed = 1;
nodes = (
(395,0,ls),
(409,0,o),
(421,11,o),
(421,26,cs),
(421,529,l),
(595,529,ls),
(610,529,o),
(621,540,o),
(621,554,cs),
(621,674,ls),
(621,689,o),
(610,700,o),
(595,700,cs),
(45,700,ls),
(31,700,o),
(20,689,o),
(20,674,cs),
(20,554,ls),
(20,540,o),
(31,529,o),
(45,529,cs),
(220,529,l),
(220,26,ls),
(220,11,o),
(232,0,o),
(246,0,cs)
);
}
);
width = 641;
},
{
anchors = (
{
name = bottom;
position = "{290, 0}";
},
{
name = center;
position = "{290, 350}";
},
{
name = top;
position = "{290, 700}";
}
);
layerId = "C994FF3D-7AF7-4E09-8BD7-9052037F2305";
shapes = (
{
closed = 1;
nodes = (
(315,0,ls),
(329,0,o),
(339,10,o),
(339,23,cs),
(339,611,l),
(530,611,ls),
(544,611,o),
(554,621,o),
(554,634,cs),
(554,676,ls),
(554,690,o),
(544,700,o),
(530,700,cs),
(48,700,ls),
(35,700,o),
(25,690,o),
(25,676,cs),
(25,634,ls),
(25,621,o),
(35,611,o),
(48,611,cs),
(240,611,l),
(240,23,ls),
(240,10,o),
(250,0,o),
(263,0,cs)
);
}
);
width = 579;
},
{
anchors = (
{
name = bottom;
position = "{279, 0}";
},
{
name = center;
position = "{279, 350}";
},
{
name = top;
position = "{279, 700}";
}
);
layerId = "6EF32D45-28F0-4679-BEBE-D25700A745C9";
shapes = (
{
closed = 1;
nodes = (
(287,0,ls),
(301,0,o),
(310,9,o),
(310,22,cs),
(310,640,l),
(507,640,ls),
(521,640,o),
(530,649,o),
(530,662,cs),
(530,677,ls),
(530,691,o),
(521,700,o),
(507,700,cs),
(49,700,ls),
(36,700,o),
(27,691,o),
(27,677,cs),
(27,662,ls),
(27,649,o),
(36,640,o),
(49,640,cs),
(247,640,l),
(247,22,ls),
(247,9,o),
(256,0,o),
(269,0,cs)
);
}
);
width = 557;
}
);
leftKerningGroup = T;
rightKerningGroup = T;
unicode = 84;
},
{
color = 6;
glyphname = Tbar;
layers = (
{
hints = (
{
horizontal = 1;
place = (0,0);
type = Stem;
}
);
layerId = "CA6E37E7-75D1-4C8E-8071-E5CF96F45DBF";
shapes = (
{
closed = 1;
nodes = (
(441,0,ls),
(456,0,o),
(468,12,o),
(468,27,cs),
(468,258,l),
(558,258,ls),
(573,258,o),
(585,270,o),
(585,285,cs),
(585,356,ls),
(585,371,o),
(573,383,o),
(558,383,cs),
(468,383,l),
(468,485,l),
(634,485,ls),
(649,485,o),
(661,497,o),
(661,512,cs),
(661,673,ls),
(661,688,o),
(649,700,o),
(634,700,cs),
(48,700,ls),
(33,700,o),
(21,688,o),
(21,673,cs),
(21,512,ls),
(21,497,o),
(33,485,o),
(48,485,cs),
(214,485,l),
(214,383,l),
(124,383,ls),
(109,383,o),
(97,371,o),
(97,356,cs),
(97,285,ls),
(97,270,o),
(109,258,o),
(124,258,cs),
(214,258,l),
(214,27,ls),
(214,12,o),
(226,0,o),
(241,0,cs)
);
}
);
width = 682;
},
{
layerId = "5BD13F11-F1FA-4397-9D6F-5672E4B50E04";
shapes = (
{
closed = 1;
nodes = (
(399,0,ls),
(414,0,o),
(425,11,o),
(425,26,cs),
(425,284,l),
(523,284,ls),
(537,284,o),
(548,295,o),
(548,310,cs),
(548,365,ls),
(548,379,o),
(537,391,o),
(523,391,cs),
(425,391,l),
(425,529,l),
(600,529,ls),
(614,529,o),
(626,540,o),
(626,554,cs),
(626,674,ls),
(626,689,o),
(614,700,o),
(600,700,cs),
(50,700,ls),
(35,700,o),
(24,689,o),
(24,674,cs),
(24,554,ls),
(24,540,o),
(35,529,o),
(50,529,cs),
(225,529,l),
(225,391,l),
(127,391,ls),
(112,391,o),
(101,379,o),
(101,365,cs),
(101,310,ls),
(101,295,o),
(112,284,o),
(127,284,cs),
(225,284,l),
(225,26,ls),
(225,11,o),
(236,0,o),
(250,0,cs)
);
}
);
width = 650;
},
{
layerId = "C994FF3D-7AF7-4E09-8BD7-9052037F2305";
shapes = (
{
closed = 1;
nodes = (
(320,0,ls),
(334,0,o),
(344,10,o),
(344,23,cs),
(344,333,l),
(456,333,ls),
(470,333,o),
(479,342,o),
(479,356,cs),
(479,381,ls),
(479,395,o),
(470,405,o),
(456,405,cs),
(344,405,l),
(344,611,l),
(535,611,ls),
(549,611,o),
(559,621,o),
(559,634,cs),
(559,676,ls),
(559,690,o),
(549,700,o),
(535,700,cs),
(53,700,ls),
(40,700,o),
(30,690,o),
(30,676,cs),
(30,634,ls),
(30,621,o),
(40,611,o),
(53,611,cs),
(245,611,l),
(245,405,l),
(132,405,ls),
(119,405,o),
(109,395,o),
(109,381,cs),
(109,356,ls),
(109,342,o),
(119,333,o),
(132,333,cs),
(245,333,l),
(245,23,ls),
(245,10,o),
(254,0,o),
(268,0,cs)
);
}
);
width = 589;
},
{
layerId = "6EF32D45-28F0-4679-BEBE-D25700A745C9";
shapes = (
{
closed = 1;
nodes = (
(292,0,ls),
(306,0,o),
(315,9,o),
(315,22,cs),
(315,350,l),
(432,350,ls),
(446,350,o),
(455,359,o),
(455,372,cs),
(455,387,ls),
(455,401,o),
(446,410,o),
(432,410,cs),
(315,410,l),
(315,640,l),
(512,640,ls),
(526,640,o),
(535,649,o),
(535,662,cs),
(535,677,ls),
(535,691,o),
(526,700,o),
(512,700,cs),
(54,700,ls),
(41,700,o),
(32,691,o),
(32,677,cs),
(32,662,ls),
(32,649,o),
(41,640,o),
(54,640,cs),
(252,640,l),
(252,410,l),
(134,410,ls),
(121,410,o),
(112,401,o),
(112,387,cs),
(112,372,ls),
(112,359,o),
(121,350,o),
(134,350,cs),
(252,350,l),
(252,22,ls),
(252,9,o),
(261,0,o),
(274,0,cs)
);
}
);
width = 567;
}
);
leftKerningGroup = T;
rightKerningGroup = T;
unicode = 358;
},
{
color = 6;
glyphname = U;
layers = (
{
anchors = (
{
name = bottom;
position = "{373, 0}";
},
{
name = ogonek;
position = "{469, 115}";
},
{
name = top;
position = "{373, 700}";
},
{
name = topright;
position = "{726, 700}";
}
);
layerId = "CA6E37E7-75D1-4C8E-8071-E5CF96F45DBF";
shapes = (
{
closed = 1;
nodes = (
(564,-10,o),
(697,75,o),
(697,264,cs),
(697,673,ls),
(697,688,o),
(685,700,o),
(670,700,cs),
(474,700,ls),
(459,700,o),
(447,688,o),
(447,673,cs),
(447,268,ls),
(447,218,o),
(422,191,o),
(373,191,cs),
(324,191,o),
(299,218,o),
(299,268,cs),
(299,673,ls),
(299,688,o),
(287,700,o),
(272,700,cs),
(76,700,ls),
(61,700,o),
(49,688,o),
(49,673,cs),
(49,264,ls),
(49,75,o),
(182,-10,o),
(374,-10,cs)
);
}
);
width = 746;
},
{
anchors = (
{
name = bottom;
position = "{365, 0}";
},
{
name = ogonek;
position = "{452, 97}";
},
{
name = top;
position = "{365, 700}";
},
{
name = topright;
position = "{710, 700}";
}
);
layerId = "5BD13F11-F1FA-4397-9D6F-5672E4B50E04";
shapes = (
{
closed = 1;
nodes = (
(548,-10,o),
(671,76,o),
(671,266,cs),
(671,674,ls),
(671,689,o),
(659,700,o),
(645,700,cs),
(499,700,ls),
(484,700,o),
(473,689,o),
(473,674,cs),
(473,268,ls),
(473,190,o),
(434,151,o),
(365,151,cs),
(296,151,o),
(257,190,o),
(257,268,cs),
(257,674,ls),
(257,689,o),
(246,700,o),
(232,700,cs),
(86,700,ls),
(71,700,o),
(60,689,o),
(60,674,cs),
(60,266,ls),
(60,76,o),
(183,-10,o),
(366,-10,cs)
);
}
);
width = 730;
},
{
anchors = (
{
name = bottom;
position = "{351, 0}";
},
{
name = ogonek;
position = "{421, 62}";
},
{
name = top;
position = "{351, 700}";
},
{
name = topright;
position = "{681, 700}";
}
);
layerId = "C994FF3D-7AF7-4E09-8BD7-9052037F2305";
shapes = (
{
closed = 1;
nodes = (
(519,-10,o),
(621,77,o),
(621,270,cs),
(621,676,ls),
(621,690,o),
(611,700,o),
(598,700,cs),
(546,700,ls),
(532,700,o),
(523,690,o),
(523,676,cs),
(523,268,ls),
(523,137,o),
(457,76,o),
(351,76,cs),
(244,76,o),
(179,137,o),
(179,268,cs),
(179,676,ls),
(179,690,o),
(169,700,o),
(155,700,cs),
(104,700,ls),
(90,700,o),
(81,690,o),
(81,676,cs),
(81,270,ls),
(81,77,o),
(184,-10,o),
(351,-10,cs)
);
}
);
width = 701;
},
{
anchors = (
{
name = bottom;
position = "{346, 0}";
},
{
name = ogonek;
position = "{410, 50}";
},
{
name = top;
position = "{346, 700}";
},
{
name = topright;
position = "{671, 700}";
}
);
layerId = "6EF32D45-28F0-4679-BEBE-D25700A745C9";
shapes = (
{
closed = 1;
nodes = (
(509,-10,o),
(603,77,o),
(603,271,cs),
(603,677,l),
(603,691,o),
(594,700,o),
(581,700,c),
(563,700,l),
(549,700,o),
(540,691,o),
(540,677,c),
(540,268,ls),
(540,118,o),
(465,50,o),
(346,50,cs),
(226,50,o),
(151,118,o),
(151,268,cs),
(151,677,l),
(151,691,o),
(142,700,o),
(128,700,c),
(110,700,l),
(97,700,o),
(88,691,o),
(88,677,c),
(88,271,ls),
(88,77,o),
(184,-10,o),
(346,-10,cs)
);
}
);
width = 691;
}
);
leftKerningGroup = U;
rightKerningGroup = U;
unicode = 85;
},
{
color = 6;
glyphname = Uogonek;
layers = (
{
hints = (
{
horizontal = 1;
place = (0,0);
type = Stem;
}
);
layerId = "CA6E37E7-75D1-4C8E-8071-E5CF96F45DBF";
shapes = (
{
closed = 1;
nodes = (
(471,-220,l),
(486,-220,o),
(498,-208,o),
(498,-193,c),
(498,-125,l),
(498,-110,o),
(486,-98,o),
(471,-98,c),
(461,-98,l),
(422,-98,o),
(411,-70,o),
(411,-49,cs),
(411,-30,o),
(416,-11,o),
(448,-5,cs),
(596,21,o),
(697,100,o),
(697,264,c),
(697,673,l),
(697,688,o),
(685,700,o),
(670,700,c),
(474,700,l),
(459,700,o),
(447,688,o),
(447,673,c),
(447,268,l),
(447,218,o),
(422,191,o),
(373,191,cs),
(324,191,o),
(299,218,o),
(299,268,c),
(299,673,l),
(299,688,o),
(287,700,o),
(272,700,c),
(76,700,l),
(61,700,o),
(49,688,o),
(49,673,c),
(49,264,l),
(49,104,o),
(144,19,o),
(289,-3,c),
(286,-18,o),
(285,-33,o),
(285,-49,cs),
(285,-144,o),
(336,-220,o),
(457,-220,c)
);
}
);
width = 746;
},
{
layerId = "5BD13F11-F1FA-4397-9D6F-5672E4B50E04";
shapes = (
{
closed = 1;
nodes = (
(459,-220,ls),
(473,-220,o),
(485,-209,o),
(485,-194,cs),
(485,-142,ls),
(485,-127,o),
(473,-116,o),
(459,-116,cs),
(448,-116,ls),
(407,-116,o),
(390,-88,o),
(390,-58,cs),
(390,-30,o),
(403,-12,o),
(438,-5,cs),
(579,20,o),
(671,101,o),
(671,266,cs),
(671,674,ls),
(671,689,o),
(659,700,o),
(645,700,cs),
(499,700,ls),
(484,700,o),
(473,689,o),
(473,674,cs),
(473,268,ls),
(473,190,o),
(434,151,o),
(365,151,cs),
(296,151,o),
(257,190,o),
(257,268,cs),
(257,674,ls),
(257,689,o),
(246,700,o),
(232,700,cs),
(86,700,ls),
(71,700,o),
(60,689,o),
(60,674,cs),
(60,266,ls),
(60,103,o),
(149,17,o),
(290,-4,c),
(285,-20,o),
(283,-37,o),
(283,-58,cs),
(283,-151,o),
(334,-220,o),
(444,-220,cs)
);
}
);
width = 730;
},
{
layerId = "C994FF3D-7AF7-4E09-8BD7-9052037F2305";
shapes = (
{
closed = 1;
nodes = (
(436,-220,ls),
(449,-220,o),
(459,-210,o),
(459,-197,cs),
(459,-174,ls),
(459,-160,o),
(449,-151,o),
(436,-151,cs),
(422,-151,ls),
(379,-151,o),
(351,-121,o),
(351,-76,cs),
(351,-31,o),
(378,-13,o),
(419,-5,c),
(546,17,o),
(621,104,o),
(621,270,cs),
(621,676,ls),
(621,690,o),
(611,700,o),
(598,700,cs),
(546,700,ls),
(532,700,o),
(523,690,o),
(523,676,cs),
(523,268,ls),
(523,137,o),
(457,76,o),
(351,76,cs),
(244,76,o),
(179,137,o),
(179,268,cs),
(179,676,ls),
(179,690,o),
(169,700,o),
(155,700,cs),
(104,700,ls),
(90,700,o),
(81,690,o),
(81,676,cs),
(81,270,ls),
(81,100,o),
(159,13,o),
(291,-5,c),
(283,-23,o),
(279,-44,o),
(279,-76,cs),
(279,-163,o),
(330,-220,o),
(418,-220,cs)
);
}
);
width = 701;
},
{
layerId = "6EF32D45-28F0-4679-BEBE-D25700A745C9";
shapes = (
{
closed = 1;
nodes = (
(428,-220,l),
(441,-220,o),
(450,-211,o),
(450,-198,c),
(450,-185,l),
(450,-172,o),
(441,-163,o),
(428,-163,c),
(413,-163,l),
(369,-163,o),
(337,-133,o),
(337,-82,cs),
(337,-31,o),
(369,-14,o),
(412,-5,c),
(534,16,o),
(603,105,o),
(603,271,cs),
(603,677,l),
(603,691,o),
(594,700,o),
(581,700,c),
(563,700,l),
(549,700,o),
(540,691,o),
(540,677,c),
(540,268,ls),
(540,118,o),
(465,50,o),
(346,50,cs),
(226,50,o),
(151,118,o),
(151,268,cs),
(151,677,l),
(151,691,o),
(142,700,o),
(128,700,c),
(110,700,l),
(97,700,o),
(88,691,o),
(88,677,c),
(88,271,ls),
(88,99,o),
(163,11,o),
(292,-6,c),
(282,-24,o),
(277,-47,o),
(277,-82,cs),
(277,-167,o),
(328,-220,o),
(409,-220,c)
);
}
);
width = 691;
}
);
leftKerningGroup = U;
rightKerningGroup = U;
unicode = 370;
},
{
color = 6;
glyphname = V;
layers = (
{
anchors = (
{
name = bottom;
position = "{363, 0}";
},
{
name = top;
position = "{363, 700}";
}
);
hints = (
{
horizontal = 1;
place = (0,0);
type = Stem;
}
);
layerId = "CA6E37E7-75D1-4C8E-8071-E5CF96F45DBF";
shapes = (
{
closed = 1;
nodes = (
(477,0,ls),
(504,0,o),
(518,18,o),
(522,33,cs),
(710,671,ls),
(711,675,o),
(711,676,o),
(711,678,cs),
(711,690,o),
(701,700,o),
(689,700,cs),
(503,700,ls),
(476,700,o),
(462,682,o),
(458,667,cs),
(363,295,l),
(268,667,ls),
(264,682,o),
(250,700,o),
(223,700,cs),
(37,700,ls),
(25,700,o),
(15,690,o),
(15,678,cs),
(15,676,o),
(15,675,o),
(16,671,cs),
(204,33,ls),
(208,18,o),
(222,0,o),
(249,0,cs)
);
}
);
width = 726;
},
{
anchors = (
{
name = bottom;
position = "{351, 0}";
},
{
name = top;
position = "{351, 700}";
}
);
layerId = "5BD13F11-F1FA-4397-9D6F-5672E4B50E04";
shapes = (
{
closed = 1;
nodes = (
(437,0,ls),
(461,0,o),
(474,15,o),
(478,31,c),
(679,670,ls),
(680,674,o),
(680,677,o),
(680,679,cs),
(680,690,o),
(670,700,o),
(659,700,cs),
(519,700,ls),
(496,700,o),
(484,684,o),
(481,672,c),
(351,233,l),
(221,672,ls),
(217,684,o),
(205,700,o),
(182,700,cs),
(43,700,ls),
(31,700,o),
(21,690,o),
(21,679,cs),
(21,677,o),
(22,674,o),
(23,670,cs),
(223,31,l),
(227,15,o),
(240,0,o),
(265,0,cs)
);
}
);
width = 701;
},
{
anchors = (
{
name = bottom;
position = "{327, 0}";
},
{
name = top;
position = "{327, 700}";
}
);
layerId = "C994FF3D-7AF7-4E09-8BD7-9052037F2305";
shapes = (
{
closed = 1;
nodes = (
(360,0,ls),
(380,0,o),
(390,10,o),
(396,26,cs),
(620,669,ls),
(621,673,o),
(622,678,o),
(622,680,cs),
(622,691,o),
(612,700,o),
(601,700,cs),
(549,700,ls),
(534,700,o),
(525,689,o),
(523,682,cs),
(327,115,l),
(132,682,l),
(129,689,o),
(121,700,o),
(105,700,cs),
(53,700,ls),
(42,700,o),
(33,691,o),
(33,680,cs),
(33,678,o),
(34,673,o),
(35,669,cs),
(258,26,ls),
(264,10,o),
(275,0,o),
(295,0,cs)
);
}
);
width = 655;
},
{
anchors = (
{
name = bottom;
position = "{319, 0}";
},
{
name = top;
position = "{319, 700}";
}
);
layerId = "6EF32D45-28F0-4679-BEBE-D25700A745C9";
shapes = (
{
closed = 1;
nodes = (
(333,0,ls),
(351,0,o),
(361,8,o),
(367,24,cs),
(599,669,ls),
(600,672,o),
(601,678,o),
(601,680,cs),
(601,691,o),
(592,700,o),
(581,700,cs),
(560,700,ls),
(547,700,o),
(540,690,o),
(538,685,cs),
(319,73,l),
(100,685,ls),
(98,690,o),
(91,700,o),
(78,700,cs),
(57,700,ls),
(46,700,o),
(37,691,o),
(37,680,cs),
(37,678,o),
(38,672,o),
(39,669,cs),
(271,24,ls),
(277,8,o),
(287,0,o),
(305,0,cs)
);
}
);
width = 638;
}
);
unicode = 86;
},
{
color = 6;
glyphname = W;
layers = (
{
anchors = (
{
name = bottom;
position = "{428, 0}";
},
{
name = top;
position = "{428, 700}";
}
);
layerId = "CA6E37E7-75D1-4C8E-8071-E5CF96F45DBF";
shapes = (
{
closed = 1;
nodes = (
(305,0,ls),
(332,0,o),
(344,19,o),
(346,27,cs),
(428,387,l),
(510,27,ls),
(512,19,o),
(524,0,o),
(551,0,cs),
(694,0,ls),
(721,0,o),
(738,20,o),
(740,38,c),
(832,675,l),
(832,676,o),
(832,677,o),
(832,678,cs),
(832,690,o),
(822,700,o),
(810,700,cs),
(624,700,ls),
(601,700,o),
(590,693,o),
(588,673,cs),
(554,392,l),
(513,671,ls),
(512,680,o),
(503,700,o),
(479,700,cs),
(377,700,ls),
(353,700,o),
(344,680,o),
(343,671,cs),
(302,391,l),
(268,673,ls),
(266,693,o),
(255,700,o),
(232,700,cs),
(46,700,ls),
(34,700,o),
(24,690,o),
(24,678,cs),
(24,677,o),
(24,676,o),
(24,675,c),
(116,38,l),
(118,20,o),
(135,0,o),
(162,0,cs)
);
}
);
width = 856;
},
{
layerId = "5BD13F11-F1FA-4397-9D6F-5672E4B50E04";
shapes = (
{
closed = 1;
nodes = (
(287,0,ls),
(314,0,o),
(332,19,o),
(337,40,c),
(414,433,l),
(491,40,ls),
(495,19,o),
(513,0,o),
(541,0,cs),
(619,0,ls),
(647,0,o),
(665,20,o),
(669,40,cs),
(797,670,ls),
(798,675,o),
(798,677,o),
(798,678,c),
(798,690,o),
(788,700,o),
(776,700,cs),
(655,700,ls),
(642,700,o),
(628,693,o),
(624,673,cs),
(556,311,l),
(491,671,ls),
(489,680,o),
(481,700,o),
(457,700,cs),
(370,700,ls),
(346,700,o),
(338,680,o),
(336,671,cs),
(271,311,l),
(203,673,ls),
(199,693,o),
(185,700,o),
(172,700,cs),
(51,700,ls),
(39,700,o),
(29,690,o),
(29,678,c),
(29,677,o),
(29,675,o),
(30,670,cs),
(159,40,l),
(162,20,o),
(181,0,o),
(209,0,cs)
);
}
);
width = 828;
},
{
layerId = "C994FF3D-7AF7-4E09-8BD7-9052037F2305";
shapes = (
{
closed = 1;
nodes = (
(250,0,ls),
(279,0,o),
(290,20,o),
(298,48,c),
(396,550,l),
(494,48,l),
(501,20,o),
(513,0,o),
(542,0,cs),
(578,0,ls),
(608,0,o),
(618,17,o),
(624,48,cs),
(749,670,ls),
(750,675,o),
(750,677,o),
(750,678,cs),
(750,690,o),
(740,700,o),
(729,700,cs),
(691,700,ls),
(678,700,o),
(665,693,o),
(662,675,cs),
(557,119,l),
(445,672,ls),
(443,681,o),
(435,700,o),
(412,700,cs),
(380,700,ls),
(356,700,o),
(348,681,o),
(346,672,cs),
(234,119,l),
(130,675,l),
(126,693,o),
(113,700,o),
(100,700,cs),
(63,700,ls),
(51,700,o),
(41,690,o),
(41,678,cs),
(41,677,o),
(41,675,o),
(42,670,cs),
(167,48,ls),
(174,17,o),
(184,0,o),
(213,0,cs)
);
}
);
width = 791;
},
{
anchors = (
{
name = bottom;
position = "{394, 0}";
},
{
name = top;
position = "{394, 700}";
}
);
layerId = "6EF32D45-28F0-4679-BEBE-D25700A745C9";
shapes = (
{
closed = 1;
nodes = (
(230,0,l),
(246,0,o),
(256,8,o),
(261,24,c),
(394,601,l),
(527,24,l),
(532,8,o),
(542,0,o),
(558,0,c),
(573,0,l),
(589,0,o),
(597,7,o),
(601,24,c),
(738,668,l),
(739,673,o),
(740,678,o),
(740,680,cs),
(740,691,o),
(731,700,o),
(720,700,c),
(699,700,l),
(686,700,o),
(679,694,o),
(677,685,c),
(560,115,l),
(436,677,l),
(432,689,o),
(423,700,o),
(405,700,c),
(383,700,l),
(365,700,o),
(356,689,o),
(352,677,c),
(228,115,l),
(111,685,l),
(109,694,o),
(102,700,o),
(89,700,c),
(68,700,l),
(57,700,o),
(48,691,o),
(48,680,cs),
(48,678,o),
(49,673,o),
(50,668,c),
(187,24,l),
(191,7,o),
(199,0,o),
(215,0,c)
);
}
);
width = 788;
}
);
leftKerningGroup = W;
rightKerningGroup = W;
unicode = 87;
},
{
color = 6;
glyphname = X;
layers = (
{
anchors = (
{
name = bottom;
position = "{370, 0}";
},
{
name = top;
position = "{370, 700}";
}
);
hints = (
{
horizontal = 1;
place = (0,0);
type = Stem;
}
);
layerId = "CA6E37E7-75D1-4C8E-8071-E5CF96F45DBF";
shapes = (
{
closed = 1;
nodes = (
(240,0,ls),
(266,0,o),
(278,18,o),
(281,23,cs),
(364,157,l),
(451,23,ls),
(454,18,o),
(466,0,o),
(492,0,cs),
(717,0,ls),
(729,0,o),
(739,10,o),
(739,22,cs),
(739,24,o),
(739,28,o),
(736,33,cs),
(523,361,l),
(716,667,ls),
(719,672,o),
(719,673,o),
(719,678,cs),
(719,690,o),
(709,700,o),
(697,700,cs),
(490,700,ls),
(464,700,o),
(452,682,o),
(448,675,cs),
(372,553,l),
(302,675,ls),
(298,682,o),
(286,700,o),
(260,700,cs),
(43,700,ls),
(31,700,o),
(21,690,o),
(21,678,cs),
(21,673,o),
(22,671,o),
(24,667,cs),
(213,358,l),
(3,33,ls),
(0,28,o),
(0,24,o),
(0,22,cs),
(0,10,o),
(10,0,o),
(22,0,cs)
);
}
);
width = 739;
},
{
anchors = (
{
name = bottom;
position = "{352, 0}";
},
{
name = top;
position = "{352, 700}";
}
);
layerId = "5BD13F11-F1FA-4397-9D6F-5672E4B50E04";
shapes = (
{
closed = 1;
nodes = (
(193,0,ls),
(214,0,o),
(225,14,o),
(229,21,cs),
(347,198,l),
(468,21,ls),
(473,14,o),
(483,0,o),
(504,0,cs),
(673,0,ls),
(685,0,o),
(694,10,o),
(694,21,cs),
(694,24,o),
(694,29,o),
(691,33,cs),
(473,359,l),
(673,667,ls),
(676,671,o),
(677,674,o),
(677,679,cs),
(677,690,o),
(667,700,o),
(655,700,cs),
(500,700,ls),
(479,700,o),
(469,686,o),
(464,678,cs),
(354,511,l),
(247,678,ls),
(242,686,o),
(231,700,o),
(210,700,cs),
(48,700,ls),
(36,700,o),
(26,690,o),
(26,679,cs),
(26,674,o),
(27,671,o),
(29,667,cs),
(228,357,l),
(12,33,ls),
(9,29,o),
(8,24,o),
(8,21,cs),
(8,10,o),
(18,0,o),
(30,0,cs)
);
}
);
width = 702;
},
{
anchors = (
{
name = bottom;
position = "{317, 0}";
},
{
name = top;
position = "{317, 700}";
}
);
layerId = "C994FF3D-7AF7-4E09-8BD7-9052037F2305";
shapes = (
{
closed = 1;
nodes = (
(104,0,ls),
(116,0,o),
(124,7,o),
(130,17,c),
(315,276,l),
(501,17,ls),
(508,7,o),
(516,0,o),
(528,0,cs),
(589,0,ls),
(601,0,o),
(610,9,o),
(610,20,cs),
(610,25,o),
(608,30,o),
(606,33,cs),
(378,355,l),
(593,667,l),
(596,670,o),
(597,675,o),
(597,680,cs),
(597,691,o),
(588,700,o),
(577,700,cs),
(520,700,ls),
(508,700,o),
(500,693,o),
(494,683,c),
(319,433,l),
(143,683,ls),
(136,693,o),
(128,700,o),
(116,700,cs),
(56,700,ls),
(45,700,o),
(36,691,o),
(36,680,cs),
(36,675,o),
(37,670,o),
(39,667,cs),
(257,356,l),
(28,33,ls),
(26,30,o),
(24,25,o),
(24,20,cs),
(24,9,o),
(34,0,o),
(45,0,cs)
);
}
);
width = 633;
},
{
anchors = (
{
name = bottom;
position = "{305, 0}";
},
{
name = top;
position = "{305, 700}";
}
);
layerId = "6EF32D45-28F0-4679-BEBE-D25700A745C9";
shapes = (
{
closed = 1;
nodes = (
(72,0,l),
(81,0,o),
(88,5,o),
(95,15,c),
(304,304,l),
(513,15,l),
(520,5,o),
(527,0,o),
(536,0,c),
(560,0,l),
(571,0,o),
(580,9,o),
(580,20,cs),
(580,25,o),
(578,30,o),
(576,33,c),
(344,354,l),
(565,667,l),
(567,670,o),
(569,675,o),
(569,680,cs),
(569,691,o),
(560,700,o),
(549,700,c),
(527,700,l),
(518,700,o),
(511,695,o),
(504,685,c),
(307,405,l),
(106,685,l),
(99,695,o),
(92,700,o),
(83,700,c),
(59,700,l),
(48,700,o),
(39,691,o),
(39,680,cs),
(39,675,o),
(41,670,o),
(43,667,c),
(267,356,l),
(34,33,l),
(32,30,o),
(30,25,o),
(30,20,cs),
(30,9,o),
(39,0,o),
(50,0,c)
);
}
);
width = 609;
}
);
unicode = 88;
},
{
color = 6;
glyphname = Y;
layers = (
{
anchors = (
{
name = bottom;
position = "{355, 0}";
},
{
name = top;
position = "{355, 700}";
},
{
name = topleft;
position = "{20, 700}";
}
);
layerId = "CA6E37E7-75D1-4C8E-8071-E5CF96F45DBF";
shapes = (
{
closed = 1;
nodes = (
(453,0,ls),
(468,0,o),
(480,12,o),
(480,27,cs),
(480,224,l),
(705,669,ls),
(706,671,o),
(707,675,o),
(707,678,cs),
(707,690,o),
(697,700,o),
(685,700,cs),
(497,700,ls),
(470,700,o),
(458,681,o),
(455,675,cs),
(355,474,l),
(255,675,ls),
(252,681,o),
(240,700,o),
(213,700,cs),
(25,700,ls),
(13,700,o),
(3,690,o),
(3,678,cs),
(3,675,o),
(4,671,o),
(5,669,cs),
(230,224,l),
(230,27,ls),
(230,12,o),
(242,0,o),
(257,0,cs)
);
}
);
width = 710;
},
{
anchors = (
{
name = bottom;
position = "{344, 0}";
},
{
name = top;
position = "{344, 700}";
},
{
name = topleft;
position = "{20, 700}";
}
);
layerId = "5BD13F11-F1FA-4397-9D6F-5672E4B50E04";
shapes = (
{
closed = 1;
nodes = (
(417,0,ls),
(432,0,o),
(443,11,o),
(443,26,cs),
(443,236,l),
(673,668,ls),
(675,671,o),
(676,675,o),
(676,679,cs),
(676,690,o),
(666,700,o),
(654,700,cs),
(514,700,ls),
(492,700,o),
(481,685,o),
(477,678,cs),
(344,434,l),
(211,678,ls),
(207,685,o),
(196,700,o),
(175,700,cs),
(34,700,ls),
(22,700,o),
(12,690,o),
(12,679,cs),
(12,675,o),
(14,671,o),
(15,668,cs),
(245,236,l),
(245,26,ls),
(245,11,o),
(256,0,o),
(271,0,cs)
);
}
);
width = 688;
},
{
anchors = (
{
name = bottom;
position = "{323, 0}";
},
{
name = top;
position = "{323, 700}";
},
{
name = topleft;
position = "{20, 700}";
}
);
layerId = "C994FF3D-7AF7-4E09-8BD7-9052037F2305";
shapes = (
{
closed = 1;
nodes = (
(349,0,ls),
(363,0,o),
(373,10,o),
(373,23,cs),
(373,259,l),
(613,667,ls),
(615,671,o),
(617,675,o),
(617,680,cs),
(617,691,o),
(608,700,o),
(596,700,cs),
(545,700,ls),
(533,700,o),
(524,692,o),
(518,683,cs),
(323,359,l),
(128,683,ls),
(123,692,o),
(114,700,o),
(102,700,cs),
(50,700,ls),
(39,700,o),
(30,691,o),
(30,680,cs),
(30,675,o),
(32,671,o),
(33,667,c),
(274,259,l),
(274,23,ls),
(274,10,o),
(283,0,o),
(297,0,cs)
);
}
);
width = 647;
},
{
anchors = (
{
name = bottom;
position = "{316, 0}";
},
{
name = top;
position = "{316, 700}";
},
{
name = topleft;
position = "{20, 700}";
}
);
layerId = "6EF32D45-28F0-4679-BEBE-D25700A745C9";
shapes = (
{
closed = 1;
nodes = (
(325,0,ls),
(339,0,o),
(348,9,o),
(348,22,cs),
(348,267,l),
(592,667,ls),
(594,671,o),
(596,675,o),
(596,680,cs),
(596,691,o),
(587,700,o),
(576,700,cs),
(556,700,ls),
(547,700,o),
(539,695,o),
(533,685,cs),
(316,332,l),
(99,685,ls),
(93,695,o),
(85,700,o),
(76,700,cs),
(56,700,ls),
(45,700,o),
(36,691,o),
(36,680,cs),
(36,675,o),
(38,671,o),
(40,667,cs),
(284,267,l),
(284,22,ls),
(284,9,o),
(293,0,o),
(306,0,cs)
);
}
);
width = 632;
}
);
leftKerningGroup = Y;
rightKerningGroup = Y;
unicode = 89;
},
{
color = 6;
glyphname = Z;
layers = (
{
anchors = (
{
name = bottom;
position = "{347, 0}";
},
{
name = center;
position = "{347, 350}";
},
{
name = top;
position = "{337, 700}";
}
);
layerId = "CA6E37E7-75D1-4C8E-8071-E5CF96F45DBF";
shapes = (
{
closed = 1;
nodes = (
(633,0,ls),
(648,0,o),
(660,12,o),
(660,27,cs),
(660,178,ls),
(660,193,o),
(648,205,o),
(633,205,cs),
(369,205,l),
(634,498,ls),
(642,506,o),
(647,517,o),
(647,531,cs),
(647,673,ls),
(647,688,o),
(635,700,o),
(620,700,cs),
(72,700,ls),
(57,700,o),
(45,688,o),
(45,673,cs),
(45,524,ls),
(45,509,o),
(57,497,o),
(72,497,cs),
(330,497,l),
(50,206,ls),
(45,201,o),
(35,190,o),
(35,171,cs),
(35,27,ls),
(35,12,o),
(47,0,o),
(62,0,cs)
);
}
);
width = 693;
},
{
anchors = (
{
name = bottom;
position = "{331, 0}";
},
{
name = center;
position = "{331, 350}";
},
{
name = top;
position = "{321, 700}";
}
);
layerId = "5BD13F11-F1FA-4397-9D6F-5672E4B50E04";
shapes = (
{
closed = 1;
nodes = (
(599,0,ls),
(614,0,o),
(625,11,o),
(625,26,cs),
(625,138,ls),
(625,153,o),
(614,164,o),
(599,164,cs),
(299,164,l),
(600,533,l),
(608,541,o),
(613,552,o),
(613,566,cs),
(613,674,ls),
(613,689,o),
(602,700,o),
(587,700,cs),
(72,700,ls),
(58,700,o),
(47,689,o),
(47,674,cs),
(47,563,ls),
(47,548,o),
(58,537,o),
(72,537,cs),
(364,537,l),
(52,171,ls),
(47,166,o),
(37,154,o),
(37,135,cs),
(37,26,ls),
(37,11,o),
(48,0,o),
(63,0,cs)
);
}
);
width = 661;
},
{
anchors = (
{
name = bottom;
position = "{301, 0}";
},
{
name = center;
position = "{301, 350}";
},
{
name = top;
position = "{291, 700}";
}
);
layerId = "C994FF3D-7AF7-4E09-8BD7-9052037F2305";
shapes = (
{
closed = 1;
nodes = (
(536,0,ls),
(551,0,o),
(560,10,o),
(560,23,cs),
(560,63,ls),
(560,78,o),
(551,87,o),
(536,87,cs),
(168,87,l),
(537,598,ls),
(543,607,o),
(550,617,o),
(550,633,cs),
(550,676,ls),
(550,690,o),
(540,700,o),
(526,700,cs),
(73,700,ls),
(59,700,o),
(50,690,o),
(50,676,cs),
(50,636,ls),
(50,623,o),
(59,613,o),
(73,613,cs),
(428,613,l),
(56,104,ls),
(52,99,o),
(41,87,o),
(41,67,cs),
(41,24,ls),
(41,10,o),
(50,0,o),
(64,0,cs)
);
}
);
width = 600;
},
{
anchors = (
{
name = bottom;
position = "{290, 0}";
},
{
name = center;
position = "{290, 350}";
},
{
name = top;
position = "{280, 700}";
}
);
layerId = "6EF32D45-28F0-4679-BEBE-D25700A745C9";
shapes = (
{
closed = 1;
nodes = (
(514,0,ls),
(528,0,o),
(537,9,o),
(537,22,cs),
(537,37,ls),
(537,51,o),
(528,60,o),
(514,60,cs),
(122,60,l),
(514,621,ls),
(520,630,o),
(527,640,o),
(527,657,cs),
(527,677,ls),
(527,691,o),
(518,700,o),
(504,700,cs),
(73,700,ls),
(60,700,o),
(51,691,o),
(51,677,cs),
(51,662,ls),
(51,649,o),
(60,640,o),
(73,640,cs),
(451,640,l),
(57,81,ls),
(53,75,o),
(42,63,o),
(42,43,cs),
(42,23,ls),
(42,9,o),
(51,0,o),
(64,0,cs)
);
}
);
width = 579;
}
);
leftKerningGroup = Z;
rightKerningGroup = Z;
unicode = 90;
},
{
color = 6;
glyphname = a;
layers = (
{
anchors = (
{
name = bottom;
position = "{311, 0}";
},
{
name = ogonek;
position = "{580, 122}";
},
{
name = top;
position = "{310, 520}";
}
);
hints = (
{
horizontal = 1;
place = (0,0);
type = Stem;
}
);
layerId = "CA6E37E7-75D1-4C8E-8071-E5CF96F45DBF";
shapes = (
{
closed = 1;
nodes = (
(255,138,o),
(242,151,o),
(242,166,cs),
(242,180,o),
(251,195,o),
(286,203,cs),
(345,216,l),
(345,215,ls),
(345,162,o),
(319,138,o),
(280,138,cs)
);
},
{
closed = 1;
nodes = (
(297,-10,o),
(336,14,o),
(395,104,c),
(353,178,l),
(353,4,o),
(459,-10,o),
(605,-10,cs),
(620,-10,o),
(632,2,o),
(632,17,cs),
(632,138,ls),
(632,153,o),
(620,165,o),
(605,165,cs),
(590,165,o),
(582,169,o),
(582,178,cs),
(582,314,ls),
(582,451,o),
(495,530,o),
(314,530,cs),
(127,530,o),
(54,431,o),
(51,380,cs),
(50,367,o),
(60,358,o),
(73,358,cs),
(243,358,ls),
(255,358,o),
(264,362,o),
(271,369,cs),
(284,382,o),
(293,390,o),
(312,390,cs),
(340,390,o),
(342,375,o),
(342,340,cs),
(342,339,l),
(236,322,ls),
(103,299,o),
(17,246,o),
(17,149,cs),
(17,59,o),
(96,-10,o),
(211,-10,cs)
);
}
);
width = 636;
},
{
layerId = "5BD13F11-F1FA-4397-9D6F-5672E4B50E04";
shapes = (
{
closed = 1;
nodes = (
(214,120,o),
(196,132,o),
(196,157,cs),
(196,184,o),
(223,202,o),
(264,210,c),
(359,224,l),
(359,220,ls),
(359,164,o),
(311,120,o),
(249,120,cs)
);
},
{
closed = 1;
nodes = (
(302,-10,o),
(360,24,o),
(406,107,c),
(371,159,l),
(371,42,o),
(428,-10,o),
(556,-10,cs),
(572,-10,o),
(587,-4,o),
(587,15,cs),
(587,91,ls),
(587,104,o),
(576,115,o),
(562,115,cs),
(541,115,o),
(529,131,o),
(529,159,cs),
(529,330,ls),
(529,448,o),
(454,530,o),
(295,530,cs),
(161,530,o),
(66,450,o),
(61,389,cs),
(60,376,o),
(70,366,o),
(83,366,cs),
(199,366,ls),
(214,366,o),
(223,367,o),
(235,378,c),
(244,388,o),
(261,400,o),
(295,400,cs),
(339,400,o),
(359,377,o),
(359,342,cs),
(359,339,l),
(239,318,ls),
(93,293,o),
(26,235,o),
(26,146,cs),
(26,57,o),
(90,-10,o),
(204,-10,cs)
);
}
);
width = 597;
},
{
layerId = "C994FF3D-7AF7-4E09-8BD7-9052037F2305";
shapes = (
{
closed = 1;
nodes = (
(155,72,o),
(125,108,o),
(125,141,cs),
(125,189,o),
(180,220,o),
(266,233,cs),
(386,252,l),
(386,225,ls),
(386,133,o),
(320,72,o),
(223,72,cs)
);
},
{
closed = 1;
nodes = (
(307,-10,o),
(365,22,o),
(407,106,c),
(385,131,l),
(385,32,o),
(428,-10,o),
(525,-10,cs),
(538,-10,o),
(548,0,o),
(548,13,cs),
(548,44,ls),
(548,57,o),
(538,67,o),
(525,67,cs),
(487,67,o),
(473,83,o),
(473,125,cs),
(473,335,ls),
(473,456,o),
(393,530,o),
(266,530,cs),
(157,530,o),
(78,460,o),
(74,403,cs),
(73,389,o),
(85,377,o),
(100,377,cs),
(128,377,ls),
(143,377,o),
(151,380,o),
(158,391,cs),
(179,423,o),
(206,448,o),
(266,448,cs),
(336,448,o),
(386,413,o),
(386,344,cs),
(386,328,l),
(243,305,ls),
(129,288,o),
(39,237,o),
(39,132,cs),
(39,52,o),
(110,-10,o),
(213,-10,cs)
);
}
);
width = 563;
},
{
anchors = (
{
name = bottom;
position = "{268, 0}";
},
{
name = ogonek;
position = "{459, 57}";
},
{
name = top;
position = "{265, 520}";
}
);
layerId = "6EF32D45-28F0-4679-BEBE-D25700A745C9";
shapes = (
{
closed = 1;
nodes = (
(169,48,o),
(103,78,o),
(103,144,cs),
(103,198,o),
(160,235,o),
(269,250,cs),
(398,268,l),
(398,234,ls),
(398,108,o),
(323,48,o),
(231,48,cs)
);
},
{
closed = 1;
nodes = (
(313,-10,o),
(398,30,o),
(426,124,c),
(398,138,l),
(398,34,o),
(431,-10,o),
(509,-10,cs),
(522,-10,o),
(531,-1,o),
(531,12,cs),
(531,26,ls),
(531,39,o),
(522,48,o),
(509,48,cs),
(476,48,o),
(459,65,o),
(459,98,cs),
(459,355,ls),
(459,435,o),
(420,530,o),
(262,530,cs),
(129,530,o),
(77,442,o),
(77,405,cs),
(77,393,o),
(83,383,o),
(99,383,cs),
(115,383,ls),
(125,383,o),
(131,389,o),
(134,398,cs),
(150,442,o),
(192,472,o),
(262,472,cs),
(356,472,o),
(398,429,o),
(398,358,cs),
(398,323,l),
(240,301,ls),
(123,285,o),
(42,229,o),
(42,139,cs),
(42,55,o),
(125,-10,o),
(221,-10,cs)
);
}
);
width = 561;
}
);
leftKerningGroup = a;
rightKerningGroup = a;
unicode = 97;
},
{
color = 6;
glyphname = ae;
layers = (
{
anchors = (
{
name = bottom;
position = "{468, 0}";
},
{
name = top;
position = "{468, 520}";
}
);
hints = (
{
horizontal = 1;
place = (0,0);
type = Stem;
}
);
layerId = "CA6E37E7-75D1-4C8E-8071-E5CF96F45DBF";
shapes = (
{
closed = 1;
nodes = (
(290,-10,o),
(367,-1,o),
(428,51,c),
(476,11,o),
(544,-10,o),
(625,-10,cs),
(810,-10,o),
(896,94,o),
(896,145,cs),
(896,158,o),
(887,167,o),
(874,167,cs),
(685,167,ls),
(669,167,o),
(664,165,o),
(652,153,cs),
(641,142,o),
(635,135,o),
(623,135,cs),
(594,135,o),
(584,156,o),
(584,196,cs),
(584,201,l),
(882,201,ls),
(897,201,o),
(909,213,o),
(909,228,cs),
(909,258,ls),
(909,405,o),
(820,530,o),
(624,530,cs),
(565,530,o),
(514,516,o),
(471,493,c),
(438,517,o),
(388,530,o),
(314,530,cs),
(127,530,o),
(51,431,o),
(51,380,cs),
(51,367,o),
(60,358,o),
(73,358,cs),
(240,358,l),
(241,358,o),
(242,358,o),
(243,358,cs),
(275,358,o),
(278,390,o),
(312,390,cs),
(339,390,o),
(342,376,o),
(342,342,c),
(342,339,l),
(236,322,l),
(103,299,o),
(17,246,o),
(17,149,cs),
(17,59,o),
(95,-10,o),
(231,-10,cs)
);
},
{
closed = 1;
nodes = (
(255,138,o),
(242,151,o),
(242,166,cs),
(242,180,o),
(251,195,o),
(286,203,cs),
(345,216,l),
(345,215,l),
(345,162,o),
(319,138,o),
(280,138,cs)
);
},
{
closed = 1;
nodes = (
(584,330,ls),
(584,371,o),
(598,390,o),
(624,390,cs),
(649,390,o),
(664,371,o),
(664,330,cs),
(664,326,l),
(584,326,l)
);
}
);
width = 935;
},
{
layerId = "5BD13F11-F1FA-4397-9D6F-5672E4B50E04";
shapes = (
{
closed = 1;
nodes = (
(322,-10,o),
(375,17,o),
(424,68,c),
(469,18,o),
(536,-10,o),
(625,-10,cs),
(805,-10,o),
(881,104,o),
(882,137,c),
(882,150,o),
(872,160,o),
(859,160,cs),
(740,160,ls),
(724,160,o),
(721,157,o),
(707,146,c),
(691,130,o),
(669,120,o),
(625,120,cs),
(581,120,o),
(529,141,o),
(529,203,cs),
(529,205,l),
(864,205,ls),
(879,205,o),
(891,217,o),
(891,232,cs),
(891,260,ls),
(891,390,o),
(815,530,o),
(625,530,cs),
(558,530,o),
(503,512,o),
(462,481,c),
(423,512,o),
(367,530,o),
(295,530,cs),
(161,530,o),
(66,450,o),
(61,389,cs),
(60,376,o),
(70,366,o),
(83,366,cs),
(199,366,ls),
(214,366,o),
(223,367,o),
(235,378,c),
(244,388,o),
(261,400,o),
(295,400,cs),
(338,400,o),
(359,378,o),
(359,344,cs),
(359,339,l),
(239,318,ls),
(93,293,o),
(26,235,o),
(26,146,cs),
(26,57,o),
(90,-10,o),
(222,-10,cs)
);
},
{
closed = 1;
nodes = (
(214,120,o),
(196,132,o),
(196,157,cs),
(196,184,o),
(223,202,o),
(264,210,c),
(359,224,l),
(359,220,ls),
(359,164,o),
(311,120,o),
(249,120,cs)
);
},
{
closed = 1;
nodes = (
(529,315,l),
(530,360,o),
(568,400,o),
(625,400,cs),
(682,400,o),
(721,360,o),
(721,315,cs),
(721,313,l),
(529,313,l)
);
}
);
width = 925;
},
{
layerId = "C994FF3D-7AF7-4E09-8BD7-9052037F2305";
shapes = (
{
closed = 1;
nodes = (
(320,-10,o),
(381,28,o),
(428,92,c),
(467,30,o),
(530,-10,o),
(616,-10,cs),
(757,-10,o),
(824,67,o),
(830,113,c),
(831,127,o),
(818,139,o),
(804,139,cs),
(776,139,ls),
(760,139,o),
(755,135,o),
(744,124,c),
(720,96,o),
(687,72,o),
(616,72,cs),
(538,72,o),
(474,122,o),
(474,218,c),
(474,225,l),
(818,225,ls),
(833,225,o),
(845,236,o),
(845,251,cs),
(845,276,ls),
(845,424,o),
(765,530,o),
(616,530,cs),
(540,530,o),
(480,498,o),
(442,449,c),
(408,500,o),
(346,530,o),
(266,530,cs),
(157,530,o),
(78,460,o),
(74,403,cs),
(73,389,o),
(85,377,o),
(100,377,cs),
(128,377,ls),
(143,377,o),
(151,380,o),
(158,392,c),
(179,422,o),
(205,448,o),
(266,448,cs),
(336,448,o),
(386,413,o),
(386,344,cs),
(386,329,l),
(243,306,ls),
(129,288,o),
(39,237,o),
(39,132,cs),
(39,52,o),
(108,-10,o),
(213,-10,cs)
);
},
{
closed = 1;
nodes = (
(155,72,o),
(125,108,o),
(125,141,cs),
(125,189,o),
(180,220,o),
(267,233,cs),
(386,252,l),
(386,225,ls),
(386,133,o),
(320,72,o),
(223,72,cs)
);
},
{
closed = 1;
nodes = (
(474,308,l),
(476,395,o),
(540,448,o),
(616,448,cs),
(704,448,o),
(759,392,o),
(759,308,cs),
(759,305,l),
(474,305,l)
);
}
);
width = 891;
},
{
anchors = (
{
name = bottom;
position = "{441, 0}";
},
{
name = top;
position = "{443, 520}";
}
);
layerId = "6EF32D45-28F0-4679-BEBE-D25700A745C9";
shapes = (
{
closed = 1;
nodes = (
(320,-10,o),
(388,26,o),
(427,100,c),
(458,36,o),
(516,-10,o),
(614,-10,cs),
(749,-10,o),
(816,81,o),
(816,111,cs),
(816,123,o),
(807,131,o),
(795,131,c),
(783,131,l),
(768,131,o),
(764,129,o),
(753,113,cs),
(721,67,o),
(666,48,o),
(614,48,cs),
(545,48,o),
(465,95,o),
(461,225,c),
(461,235,l),
(807,235,l),
(820,235,o),
(830,244,o),
(830,257,c),
(830,272,l),
(830,373,o),
(801,530,o),
(615,530,cs),
(531,530,o),
(475,494,o),
(441,442,c),
(417,491,o),
(364,530,o),
(263,530,cs),
(130,530,o),
(77,442,o),
(77,405,cs),
(77,393,o),
(87,383,o),
(99,383,c),
(113,383,l),
(125,383,o),
(132,388,o),
(137,404,cs),
(148,437,o),
(189,472,o),
(263,472,cs),
(357,472,o),
(399,429,o),
(399,358,c),
(399,326,l),
(241,304,l),
(124,288,o),
(43,229,o),
(43,139,cs),
(43,55,o),
(116,-10,o),
(222,-10,cs)
);
},
{
closed = 1;
nodes = (
(170,48,o),
(104,78,o),
(104,144,cs),
(104,198,o),
(161,235,o),
(270,250,c),
(399,268,l),
(399,234,l),
(399,108,o),
(324,48,o),
(232,48,cs)
);
},
{
closed = 1;
nodes = (
(461,295,l),
(465,416,o),
(539,472,o),
(615,472,cs),
(720,472,o),
(769,396,o),
(769,295,c),
(769,291,l),
(461,291,l)
);
}
);
width = 881;
}
);
leftKerningGroup = a;
rightKerningGroup = e;
unicode = 230;
},
{
color = 6;
glyphname = b;
layers = (
{
anchors = (
{
name = bottom;
position = "{331, 0}";
},
{
name = top;
position = "{331, 750}";
}
);
hints = (
{
horizontal = 1;
place = (0,0);
type = Stem;
}
);
layerId = "CA6E37E7-75D1-4C8E-8071-E5CF96F45DBF";
shapes = (
{
closed = 1;
nodes = (
(533,-10,o),
(622,54,o),
(629,221,cs),
(630,251,o),
(630,270,o),
(629,300,cs),
(623,457,o),
(533,530,o),
(417,530,cs),
(361,530,o),
(316,512,o),
(284,483,c),
(284,683,ls),
(284,698,o),
(272,710,o),
(257,710,cs),
(72,710,ls),
(57,710,o),
(45,698,o),
(45,683,cs),
(45,27,ls),
(45,12,o),
(57,0,o),
(72,0,cs),
(242,0,ls),
(257,0,o),
(269,12,o),
(269,27,cs),
(269,50,l),
(301,14,o),
(348,-10,o),
(417,-10,cs)
);
},
{
closed = 1;
nodes = (
(297,169,o),
(286,191,o),
(284,227,cs),
(282,257,o),
(282,271,o),
(284,301,cs),
(286,333,o),
(300,351,o),
(334,351,cs),
(371,351,o),
(380,329,o),
(384,293,cs),
(386,273,o),
(386,247,o),
(384,227,cs),
(380,191,o),
(371,169,o),
(334,169,cs)
);
}
);
width = 661;
},
{
anchors = (
{
name = bottom;
position = "{320, 0}";
},
{
name = top;
position = "{320, 750}";
}
);
layerId = "5BD13F11-F1FA-4397-9D6F-5672E4B50E04";
shapes = (
{
closed = 1;
nodes = (
(514,-10,o),
(594,71,o),
(600,224,cs),
(601,251,o),
(601,269,o),
(600,297,cs),
(594,442,o),
(514,530,o),
(387,530,cs),
(324,530,o),
(277,507,o),
(244,474,c),
(244,684,ls),
(244,699,o),
(233,710,o),
(219,710,cs),
(81,710,ls),
(67,710,o),
(55,699,o),
(55,684,cs),
(55,26,ls),
(55,11,o),
(67,0,o),
(81,0,cs),
(208,0,ls),
(222,0,o),
(234,11,o),
(234,26,cs),
(234,55,l),
(266,17,o),
(314,-10,o),
(387,-10,cs)
);
},
{
closed = 1;
nodes = (
(267,135,o),
(247,177,o),
(244,226,cs),
(243,253,o),
(243,274,o),
(244,301,cs),
(246,347,o),
(270,385,o),
(326,385,cs),
(385,385,o),
(403,345,o),
(407,292,cs),
(408,272,o),
(408,248,o),
(407,228,cs),
(403,175,o),
(385,135,o),
(326,135,cs)
);
}
);
width = 638;
},
{
anchors = (
{
name = bottom;
position = "{298, 0}";
},
{
name = top;
position = "{298, 750}";
}
);
layerId = "C994FF3D-7AF7-4E09-8BD7-9052037F2305";
shapes = (
{
closed = 1;
nodes = (
(479,-10,o),
(540,104,o),
(545,230,cs),
(546,252,o),
(546,268,o),
(545,290,cs),
(540,415,o),
(479,530,o),
(331,530,cs),
(253,530,o),
(202,498,o),
(169,457,c),
(169,687,ls),
(169,700,o),
(160,710,o),
(147,710,cs),
(98,710,ls),
(85,710,o),
(75,700,o),
(75,687,cs),
(75,23,ls),
(75,10,o),
(85,0,o),
(98,0,cs),
(144,0,ls),
(157,0,o),
(167,10,o),
(167,23,cs),
(167,65,l),
(199,22,o),
(251,-10,o),
(331,-10,cs)
);
},
{
closed = 1;
nodes = (
(211,71,o),
(172,151,o),
(169,225,cs),
(168,246,o),
(168,280,o),
(169,302,cs),
(171,373,o),
(214,449,o),
(310,449,cs),
(412,449,o),
(445,374,o),
(449,289,cs),
(450,269,o),
(450,251,o),
(449,231,cs),
(445,146,o),
(412,71,o),
(310,71,cs)
);
}
);
width = 595;
},
{
anchors = (
{
name = bottom;
position = "{290, 0}";
},
{
name = top;
position = "{290, 750}";
}
);
layerId = "6EF32D45-28F0-4679-BEBE-D25700A745C9";
shapes = (
{
closed = 1;
nodes = (
(467,-10,o),
(521,115,o),
(525,232,cs),
(526,252,o),
(526,268,o),
(525,288,cs),
(521,405,o),
(467,530,o),
(311,530,cs),
(228,530,o),
(176,495,o),
(143,451,c),
(143,688,ls),
(143,701,o),
(134,710,o),
(121,710,cs),
(104,710,ls),
(91,710,o),
(82,701,o),
(82,688,cs),
(82,22,ls),
(82,9,o),
(91,0,o),
(104,0,cs),
(121,0,ls),
(134,0,o),
(143,9,o),
(143,22,cs),
(143,69,l),
(176,24,o),
(228,-10,o),
(311,-10,cs)
);
},
{
closed = 1;
nodes = (
(191,48,o),
(146,142,o),
(143,224,cs),
(142,244,o),
(142,282,o),
(143,302,cs),
(145,382,o),
(194,472,o),
(305,472,cs),
(422,472,o),
(460,384,o),
(464,288,cs),
(465,268,o),
(465,252,o),
(464,232,cs),
(460,136,o),
(422,48,o),
(305,48,cs)
);
}
);
width = 580;
}
);
leftKerningGroup = l;
rightKerningGroup = b;
unicode = 98;
},
{
color = 6;
glyphname = c;
layers = (
{
anchors = (
{
name = bottom;
position = "{311, 0}";
},
{
name = top;
position = "{311, 520}";
}
);
hints = (
{
horizontal = 1;
place = (0,0);
type = Stem;
}
);
layerId = "CA6E37E7-75D1-4C8E-8071-E5CF96F45DBF";
shapes = (
{
closed = 1;
nodes = (
(531,-10,o),
(600,141,o),
(603,184,cs),
(604,199,o),
(591,211,o),
(576,211,cs),
(381,211,ls),
(366,211,o),
(357,203,o),
(352,191,cs),
(344,172,o),
(339,161,o),
(315,161,cs),
(284,161,o),
(277,181,o),
(275,224,cs),
(274,243,o),
(274,266,o),
(275,295,cs),
(276,335,o),
(284,359,o),
(315,359,cs),
(335,359,o),
(343,348,o),
(352,329,cs),
(358,317,o),
(366,309,o),
(381,309,cs),
(576,309,ls),
(591,309,o),
(604,321,o),
(603,336,cs),
(600,389,o),
(521,530,o),
(310,530,cs),
(157,530,o),
(37,448,o),
(30,300,cs),
(29,277,o),
(29,240,o),
(30,219,cs),
(38,71,o),
(157,-10,o),
(310,-10,cs)
);
}
);
width = 622;
},
{
anchors = (
{
name = bottom;
position = "{299, 0}";
},
{
name = top;
position = "{300, 520}";
}
);
layerId = "5BD13F11-F1FA-4397-9D6F-5672E4B50E04";
shapes = (
{
closed = 1;
nodes = (
(500,-10,o),
(567,123,o),
(570,174,cs),
(571,189,o),
(558,200,o),
(544,200,cs),
(400,200,ls),
(385,200,o),
(378,193,o),
(372,180,c),
(359,144,o),
(341,129,o),
(305,129,cs),
(257,129,o),
(233,158,o),
(231,224,cs),
(230,244,o),
(230,268,o),
(231,295,cs),
(233,359,o),
(257,391,o),
(305,391,cs),
(339,391,o),
(358,376,o),
(372,340,c),
(378,327,o),
(385,320,o),
(400,320,cs),
(544,320,ls),
(558,320,o),
(571,331,o),
(570,346,cs),
(567,404,o),
(492,530,o),
(301,530,cs),
(151,530,o),
(44,447,o),
(38,300,cs),
(37,278,o),
(37,240,o),
(38,219,cs),
(45,73,o),
(151,-10,o),
(301,-10,cs)
);
}
);
width = 598;
},
{
anchors = (
{
name = bottom;
position = "{276, 0}";
},
{
name = top;
position = "{279, 520}";
}
);
layerId = "C994FF3D-7AF7-4E09-8BD7-9052037F2305";
shapes = (
{
closed = 1;
nodes = (
(440,-10,o),
(504,89,o),
(507,156,cs),
(508,169,o),
(497,179,o),
(484,179,cs),
(436,179,ls),
(422,179,o),
(417,173,o),
(411,158,cs),
(387,92,o),
(346,69,o),
(285,69,cs),
(205,69,o),
(151,115,o),
(147,225,cs),
(146,245,o),
(146,273,o),
(147,295,cs),
(151,404,o),
(205,451,o),
(285,451,cs),
(346,451,o),
(387,428,o),
(411,362,cs),
(417,347,o),
(422,342,o),
(436,342,cs),
(484,342,ls),
(497,342,o),
(508,351,o),
(507,364,cs),
(504,433,o),
(438,530,o),
(284,530,cs),
(141,530,o),
(57,444,o),
(52,300,cs),
(51,279,o),
(51,240,o),
(52,220,cs),
(57,76,o),
(141,-10,o),
(284,-10,cs)
);
}
);
width = 552;
},
{
anchors = (
{
name = bottom;
position = "{268, 0}";
},
{
name = top;
position = "{271, 520}";
}
);
layerId = "6EF32D45-28F0-4679-BEBE-D25700A745C9";
shapes = (
{
closed = 1;
nodes = (
(419,-10,o),
(482,77,o),
(485,149,cs),
(486,162,o),
(475,171,o),
(463,171,cs),
(449,171,ls),
(435,171,o),
(431,166,o),
(425,150,cs),
(397,74,o),
(348,48,o),
(278,48,cs),
(187,48,o),
(122,100,o),
(118,225,cs),
(117,245,o),
(117,275,o),
(118,295,cs),
(122,420,o),
(187,472,o),
(278,472,cs),
(348,472,o),
(397,446,o),
(425,370,cs),
(431,354,o),
(435,349,o),
(449,349,cs),
(463,349,ls),
(475,349,o),
(486,358,o),
(485,371,cs),
(482,443,o),
(419,530,o),
(278,530,cs),
(137,530,o),
(61,443,o),
(57,300,cs),
(56,280,o),
(56,240,o),
(57,220,cs),
(61,77,o),
(137,-10,o),
(278,-10,cs)
);
}
);
width = 536;
}
);
leftKerningGroup = o;
rightKerningGroup = c;
unicode = 99;
},
{
color = 6;
glyphname = ccedilla;
layers = (
{
hints = (
{
horizontal = 1;
place = (0,0);
type = Stem;
}
);
layerId = "CA6E37E7-75D1-4C8E-8071-E5CF96F45DBF";
shapes = (
{
closed = 1;
nodes = (
(371,-220,o),
(410,-183,o),
(410,-130,cs),
(410,-77,o),
(380,-40,o),
(329,-40,cs),
(325,-40,o),
(307,-42,o),
(299,-45,c),
(317,-10,l),
(532,-7,o),
(600,141,o),
(603,184,cs),
(604,199,o),
(591,211,o),
(576,211,c),
(381,211,l),
(366,211,o),
(357,203,o),
(352,191,cs),
(344,172,o),
(339,161,o),
(315,161,cs),
(284,161,o),
(277,181,o),
(275,224,cs),
(274,243,o),
(274,266,o),
(275,295,cs),
(276,335,o),
(284,359,o),
(315,359,cs),
(335,359,o),
(343,348,o),
(352,329,cs),
(358,317,o),
(366,309,o),
(381,309,c),
(576,309,l),
(591,309,o),
(604,321,o),
(603,336,cs),
(600,389,o),
(521,530,o),
(310,530,cs),
(157,530,o),
(37,448,o),
(30,300,cs),
(29,277,o),
(29,240,o),
(30,219,cs),
(37,89,o),
(129,11,o),
(254,-6,c),
(234,-52,l),
(225,-71,o),
(227,-76,o),
(236,-85,c),
(257,-106,l),
(270,-119,o),
(293,-106,o),
(311,-106,cs),
(331,-106,o),
(339,-118,o),
(339,-130,cs),
(339,-142,o),
(330,-154,o),
(311,-154,cs),
(277,-154,o),
(272,-136,o),
(255,-151,c),
(234,-169,l),
(211,-189,o),
(258,-220,o),
(311,-220,cs)
);
}
);
width = 622;
},
{
layerId = "5BD13F11-F1FA-4397-9D6F-5672E4B50E04";
shapes = (
{
closed = 1;
nodes = (
(362,-220,o),
(399,-182,o),
(399,-131,cs),
(399,-79,o),
(368,-43,o),
(319,-43,cs),
(312,-43,o),
(295,-45,o),
(287,-49,c),
(306,-10,l),
(500,-8,o),
(567,123,o),
(570,174,cs),
(571,189,o),
(558,200,o),
(544,200,cs),
(400,200,ls),
(385,200,o),
(378,193,o),
(372,180,c),
(359,144,o),
(341,129,o),
(305,129,cs),
(257,129,o),
(233,158,o),
(231,224,cs),
(230,244,o),
(230,268,o),
(231,295,cs),
(233,359,o),
(257,391,o),
(305,391,cs),
(339,391,o),
(358,376,o),
(372,340,c),
(378,327,o),
(385,320,o),
(400,320,cs),
(544,320,ls),
(558,320,o),
(571,331,o),
(570,346,cs),
(567,404,o),
(492,530,o),
(301,530,cs),
(151,530,o),
(44,447,o),
(38,300,cs),
(37,278,o),
(37,240,o),
(38,219,cs),
(44,91,o),
(126,12,o),
(246,-6,c),
(226,-52,l),
(218,-69,o),
(217,-76,o),
(226,-84,c),
(245,-104,ls),
(259,-118,o),
(279,-103,o),
(301,-103,cs),
(322,-103,o),
(333,-116,o),
(333,-131,cs),
(333,-147,o),
(321,-160,o),
(301,-160,cs),
(264,-160,o),
(259,-137,o),
(242,-152,cs),
(223,-169,ls),
(201,-188,o),
(247,-220,o),
(301,-220,cs)
);
}
);
width = 598;
},
{
layerId = "C994FF3D-7AF7-4E09-8BD7-9052037F2305";
shapes = (
{
closed = 1;
nodes = (
(344,-221,o),
(377,-181,o),
(377,-132,cs),
(377,-83,o),
(345,-48,o),
(300,-48,cs),
(287,-48,o),
(271,-51,o),
(263,-56,c),
(285,-10,l),
(440,-9,o),
(504,89,o),
(507,156,cs),
(508,169,o),
(497,179,o),
(484,179,cs),
(436,179,ls),
(422,179,o),
(417,173,o),
(411,158,cs),
(387,92,o),
(346,69,o),
(285,69,cs),
(205,69,o),
(151,115,o),
(147,225,cs),
(146,245,o),
(146,273,o),
(147,295,cs),
(151,404,o),
(205,451,o),
(285,451,cs),
(346,451,o),
(387,428,o),
(411,362,cs),
(417,347,o),
(422,342,o),
(436,342,cs),
(484,342,ls),
(497,342,o),
(508,351,o),
(507,364,cs),
(504,433,o),
(438,530,o),
(284,530,cs),
(141,530,o),
(57,444,o),
(52,300,cs),
(51,279,o),
(51,240,o),
(52,220,cs),
(56,95,o),
(120,13,o),
(230,-5,c),
(210,-53,ls),
(205,-65,o),
(199,-75,o),
(206,-83,cs),
(223,-101,ls),
(238,-117,o),
(252,-98,o),
(282,-98,cs),
(304,-98,o),
(322,-112,o),
(322,-133,cs),
(322,-156,o),
(304,-170,o),
(282,-170,cs),
(240,-170,o),
(233,-139,o),
(216,-155,cs),
(201,-169,ls),
(183,-185,o),
(226,-219,o),
(282,-220,cs)
);
}
);
width = 552;
},
{
layerId = "6EF32D45-28F0-4679-BEBE-D25700A745C9";
shapes = (
{
closed = 1;
nodes = (
(338,-221,o),
(369,-180,o),
(369,-132,cs),
(369,-84,o),
(337,-50,o),
(293,-50,cs),
(278,-50,o),
(263,-53,o),
(255,-58,c),
(278,-10,l),
(419,-10,o),
(482,77,o),
(485,149,cs),
(486,162,o),
(475,171,o),
(463,171,c),
(449,171,l),
(435,171,o),
(431,166,o),
(425,150,cs),
(397,74,o),
(348,48,o),
(278,48,cs),
(187,48,o),
(122,100,o),
(118,225,cs),
(117,245,o),
(117,275,o),
(118,295,cs),
(122,420,o),
(187,472,o),
(278,472,cs),
(348,472,o),
(397,446,o),
(425,370,cs),
(431,354,o),
(435,349,o),
(449,349,c),
(463,349,l),
(475,349,o),
(486,358,o),
(485,371,cs),
(482,443,o),
(419,530,o),
(278,530,cs),
(137,530,o),
(61,443,o),
(57,300,cs),
(56,280,o),
(56,240,o),
(57,220,cs),
(60,96,o),
(118,14,o),
(225,-5,c),
(204,-53,l),
(200,-63,o),
(192,-75,o),
(199,-83,c),
(215,-100,l),
(230,-116,o),
(243,-96,o),
(275,-96,cs),
(298,-96,o),
(318,-110,o),
(318,-134,cs),
(318,-159,o),
(298,-174,o),
(275,-174,cs),
(231,-174,o),
(224,-140,o),
(207,-156,c),
(193,-169,l),
(177,-184,o),
(218,-219,o),
(275,-220,cs)
);
}
);
width = 536;
}
);
leftKerningGroup = o;
rightKerningGroup = c;
unicode = 231;
},
{
color = 6;
glyphname = d;
layers = (
{
anchors = (
{
name = bottom;
position = "{331, 0}";
},
{
name = center;
position = "{466, 612}";
},
{
name = top;
position = "{331, 750}";
},
{
name = topright;
position = "{781, 710}";
}
);
hints = (
{
horizontal = 1;
place = (0,0);
type = Stem;
}
);
layerId = "CA6E37E7-75D1-4C8E-8071-E5CF96F45DBF";
shapes = (
{
closed = 1;
nodes = (
(313,-10,o),
(360,14,o),
(392,50,c),
(392,27,ls),
(392,12,o),
(404,0,o),
(419,0,cs),
(589,0,ls),
(604,0,o),
(616,12,o),
(616,27,cs),
(616,683,ls),
(616,698,o),
(604,710,o),
(589,710,cs),
(404,710,ls),
(389,710,o),
(377,698,o),
(377,683,cs),
(377,483,l),
(345,512,o),
(300,530,o),
(244,530,cs),
(128,530,o),
(38,457,o),
(32,300,cs),
(31,270,o),
(31,251,o),
(32,221,cs),
(39,54,o),
(128,-10,o),
(244,-10,cs)
);
},
{
closed = 1;
nodes = (
(290,169,o),
(281,191,o),
(277,227,cs),
(275,247,o),
(275,273,o),
(277,293,cs),
(281,329,o),
(290,351,o),
(327,351,cs),
(361,351,o),
(375,333,o),
(377,301,cs),
(379,271,o),
(379,257,o),
(377,227,cs),
(375,191,o),
(364,169,o),
(327,169,cs)
);
}
);
width = 661;
},
{
anchors = (
{
name = bottom;
position = "{320, 0}";
},
{
name = center;
position = "{458, 613}";
},
{
name = top;
position = "{320, 750}";
},
{
name = topright;
position = "{720, 710}";
}
);
layerId = "5BD13F11-F1FA-4397-9D6F-5672E4B50E04";
shapes = (
{
closed = 1;
nodes = (
(324,-10,o),
(372,17,o),
(405,55,c),
(405,26,ls),
(405,11,o),
(416,0,o),
(430,0,cs),
(557,0,ls),
(572,0,o),
(583,11,o),
(583,26,cs),
(583,684,ls),
(583,699,o),
(572,710,o),
(557,710,cs),
(420,710,ls),
(405,710,o),
(394,699,o),
(394,684,cs),
(394,474,l),
(362,507,o),
(315,530,o),
(251,530,cs),
(124,530,o),
(44,442,o),
(39,297,cs),
(38,269,o),
(38,251,o),
(39,224,cs),
(45,71,o),
(124,-10,o),
(251,-10,cs)
);
},
{
closed = 1;
nodes = (
(253,135,o),
(236,175,o),
(232,228,cs),
(230,248,o),
(230,272,o),
(232,292,cs),
(236,345,o),
(253,385,o),
(312,385,cs),
(368,385,o),
(392,347,o),
(394,301,c),
(396,274,o),
(396,253,o),
(394,226,c),
(392,177,o),
(371,135,o),
(312,135,cs)
);
}
);
width = 638;
},
{
anchors = (
{
name = bottom;
position = "{298, 0}";
},
{
name = center;
position = "{443, 614}";
},
{
name = top;
position = "{298, 750}";
},
{
name = topright;
position = "{606, 710}";
}
);
layerId = "C994FF3D-7AF7-4E09-8BD7-9052037F2305";
shapes = (
{
closed = 1;
nodes = (
(345,-10,o),
(396,22,o),
(429,65,c),
(429,23,ls),
(429,10,o),
(438,0,o),
(452,0,cs),
(497,0,ls),
(511,0,o),
(520,10,o),
(520,23,cs),
(520,687,ls),
(520,700,o),
(511,710,o),
(497,710,cs),
(449,710,ls),
(435,710,o),
(426,700,o),
(426,687,cs),
(426,457,l),
(393,498,o),
(342,530,o),
(264,530,cs),
(116,530,o),
(55,415,o),
(51,290,cs),
(50,268,o),
(50,252,o),
(51,230,cs),
(55,104,o),
(116,-10,o),
(264,-10,cs)
);
},
{
closed = 1;
nodes = (
(183,71,o),
(150,146,o),
(146,231,cs),
(145,251,o),
(145,269,o),
(146,289,cs),
(150,374,o),
(183,449,o),
(285,449,cs),
(381,449,o),
(424,373,o),
(426,302,cs),
(427,280,o),
(427,246,o),
(426,225,cs),
(423,151,o),
(384,71,o),
(285,71,cs)
);
}
);
width = 595;
},
{
anchors = (
{
name = bottom;
position = "{290, 0}";
},
{
name = center;
position = "{438, 615}";
},
{
name = top;
position = "{290, 750}";
},
{
name = topright;
position = "{565, 710}";
}
);
layerId = "6EF32D45-28F0-4679-BEBE-D25700A745C9";
shapes = (
{
closed = 1;
nodes = (
(352,-10,o),
(404,24,o),
(437,69,c),
(437,22,ls),
(437,9,o),
(446,0,o),
(459,0,cs),
(476,0,ls),
(489,0,o),
(498,9,o),
(498,22,cs),
(498,688,ls),
(498,701,o),
(489,710,o),
(476,710,cs),
(459,710,ls),
(446,710,o),
(437,701,o),
(437,688,cs),
(437,451,l),
(404,495,o),
(352,530,o),
(269,530,cs),
(113,530,o),
(59,405,o),
(55,288,cs),
(54,268,o),
(54,252,o),
(55,232,cs),
(59,115,o),
(113,-10,o),
(269,-10,cs)
);
},
{
closed = 1;
nodes = (
(158,48,o),
(120,136,o),
(116,232,cs),
(115,252,o),
(115,268,o),
(116,288,cs),
(120,384,o),
(158,472,o),
(275,472,cs),
(386,472,o),
(435,382,o),
(437,302,cs),
(438,282,o),
(438,244,o),
(437,224,cs),
(434,142,o),
(389,48,o),
(275,48,cs)
);
}
);
width = 580;
}
);
leftKerningGroup = d;
rightKerningGroup = l;
unicode = 100;
},
{
color = 6;
glyphname = eth;
layers = (
{
hints = (
{
horizontal = 1;
place = (0,0);
type = Stem;
}
);
layerId = "CA6E37E7-75D1-4C8E-8071-E5CF96F45DBF";
shapes = (
{
closed = 1;
nodes = (
(489,-10,o),
(597,68,o),
(606,225,cs),
(607,245,o),
(607,268,o),
(606,288,cs),
(599,424,o),
(560,524,o),
(498,601,c),
(539,617,l),
(555,623,o),
(561,632,o),
(561,650,c),
(561,678,l),
(561,690,o),
(552,699,o),
(540,699,cs),
(538,699,o),
(534,698,o),
(529,696,c),
(439,661,l),
(429,670,o),
(417,678,o),
(406,687,cs),
(396,694,o),
(380,700,o),
(353,700,c),
(165,700,l),
(153,700,o),
(143,690,o),
(143,678,cs),
(143,673,o),
(147,665,o),
(156,659,cs),
(188,637,o),
(219,613,o),
(246,586,c),
(172,557,l),
(156,551,o),
(150,542,o),
(150,524,c),
(150,496,l),
(150,484,o),
(159,475,o),
(171,475,cs),
(173,475,o),
(177,476,o),
(182,478,c),
(300,524,l),
(312,506,o),
(322,488,o),
(330,470,c),
(325,470,o),
(321,470,o),
(316,470,c),
(153,470,o),
(26,392,o),
(26,230,cs),
(26,68,o),
(142,-10,o),
(316,-10,cs)
);
},
{
closed = 1;
nodes = (
(279,150,o),
(272,171,o),
(271,204,cs),
(270,224,o),
(270,236,o),
(271,256,cs),
(273,288,o),
(279,310,o),
(316,310,cs),
(353,310,o),
(359,288,o),
(361,256,cs),
(362,236,o),
(362,223,o),
(361,203,cs),
(360,171,o),
(350,150,o),
(316,150,cs)
);
}
);
width = 638;
},
{
layerId = "5BD13F11-F1FA-4397-9D6F-5672E4B50E04";
shapes = (
{
closed = 1;
nodes = (
(469,-10,o),
(568,75,o),
(574,226,cs),
(575,241,o),
(575,258,o),
(574,272,cs),
(568,418,o),
(531,517,o),
(470,594,c),
(517,612,ls),
(533,618,o),
(539,625,o),
(539,643,cs),
(539,668,ls),
(539,680,o),
(530,688,o),
(518,688,cs),
(516,688,o),
(512,687,o),
(507,685,cs),
(416,650,l),
(403,663,o),
(388,674,o),
(373,687,c),
(363,694,o),
(349,700,o),
(325,700,cs),
(184,700,ls),
(172,700,o),
(162,691,o),
(162,679,cs),
(162,674,o),
(166,666,o),
(176,659,cs),
(206,637,o),
(235,614,o),
(260,590,c),
(189,562,ls),
(173,556,o),
(167,549,o),
(167,531,cs),
(167,506,ls),
(167,494,o),
(176,486,o),
(188,486,cs),
(190,486,o),
(194,487,o),
(199,489,cs),
(311,532,l),
(328,509,o),
(341,486,o),
(351,459,c),
(338,466,o),
(322,470,o),
(304,470,cs),
(146,470,o),
(34,385,o),
(34,230,cs),
(34,75,o),
(138,-10,o),
(304,-10,cs)
);
},
{
closed = 1;
nodes = (
(248,121,o),
(228,159,o),
(227,210,c),
(226,225,o),
(226,234,o),
(227,249,cs),
(229,300,o),
(248,339,o),
(304,339,cs),
(360,339,o),
(379,300,o),
(381,249,c),
(381,234,o),
(381,225,o),
(381,210,cs),
(380,159,o),
(358,121,o),
(304,121,cs)
);
}
);
width = 613;
},
{
layerId = "C994FF3D-7AF7-4E09-8BD7-9052037F2305";
shapes = (
{
closed = 1;
nodes = (
(430,-10,o),
(512,88,o),
(513,228,c),
(514,233,o),
(514,238,o),
(513,243,c),
(510,406,o),
(475,505,o),
(417,580,c),
(475,602,ls),
(491,608,o),
(497,613,o),
(497,629,cs),
(497,650,ls),
(497,662,o),
(489,668,o),
(477,668,cs),
(474,668,o),
(470,667,o),
(465,665,cs),
(372,629,l),
(353,649,o),
(333,667,o),
(310,687,cs),
(300,695,o),
(289,700,o),
(271,700,cs),
(219,700,ls),
(207,700,o),
(199,692,o),
(199,680,cs),
(199,675,o),
(202,668,o),
(215,658,cs),
(241,638,o),
(265,617,o),
(287,597,c),
(222,572,ls),
(206,566,o),
(200,561,o),
(200,545,cs),
(200,524,ls),
(200,512,o),
(209,506,o),
(220,506,cs),
(223,506,o),
(227,507,o),
(232,509,cs),
(333,548,l),
(358,516,o),
(376,481,o),
(391,438,c),
(362,459,o),
(325,470,o),
(281,470,cs),
(134,470,o),
(48,373,o),
(49,231,c),
(48,89,o),
(131,-10,o),
(281,-10,cs)
);
},
{
closed = 1;
nodes = (
(190,67,o),
(146,135,o),
(144,222,cs),
(144,226,o),
(144,230,o),
(144,237,cs),
(145,324,o),
(189,393,o),
(281,393,cs),
(373,393,o),
(418,324,o),
(418,237,cs),
(418,231,o),
(418,228,o),
(418,223,cs),
(417,136,o),
(372,67,o),
(281,67,cs)
);
}
);
width = 567;
},
{
layerId = "6EF32D45-28F0-4679-BEBE-D25700A745C9";
shapes = (
{
closed = 1;
nodes = (
(416,-10,o),
(492,92,o),
(492,229,cs),
(492,230,o),
(492,231,o),
(492,232,cs),
(490,402,o),
(455,501,o),
(398,575,c),
(460,599,l),
(476,605,o),
(482,609,o),
(482,624,c),
(482,643,l),
(482,655,o),
(474,661,o),
(463,661,cs),
(459,661,o),
(455,660,o),
(450,658,c),
(357,622,l),
(336,644,o),
(313,665,o),
(288,687,cs),
(278,695,o),
(268,700,o),
(252,700,c),
(232,700,l),
(220,700,o),
(212,692,o),
(212,680,cs),
(212,675,o),
(215,669,o),
(229,658,cs),
(253,638,o),
(276,618,o),
(296,599,c),
(234,575,l),
(218,569,o),
(212,565,o),
(212,550,c),
(212,531,l),
(212,519,o),
(220,513,o),
(231,513,cs),
(235,513,o),
(239,514,o),
(244,516,c),
(340,553,l),
(368,518,o),
(389,479,o),
(405,431,c),
(371,456,o),
(326,470,o),
(273,470,cs),
(129,470,o),
(53,368,o),
(54,231,c),
(53,94,o),
(129,-10,o),
(273,-10,cs)
);
},
{
closed = 1;
nodes = (
(170,48,o),
(117,127,o),
(115,226,cs),
(115,227,o),
(115,229,o),
(115,232,cs),
(115,332,o),
(168,412,o),
(273,412,cs),
(378,412,o),
(431,332,o),
(431,232,cs),
(431,230,o),
(431,229,o),
(431,228,cs),
(430,128,o),
(377,48,o),
(273,48,cs)
);
}
);
width = 550;
}
);
unicode = 240;
},
{
color = 6;
glyphname = dcroat;
layers = (
{
hints = (
{
horizontal = 1;
place = (0,0);
type = Stem;
}
);
layerId = "CA6E37E7-75D1-4C8E-8071-E5CF96F45DBF";
shapes = (
{
closed = 1;
nodes = (
(313,-10,o),
(362,18,o),
(392,57,c),
(392,27,ls),
(392,12,o),
(404,0,o),
(419,0,cs),
(589,0,ls),
(604,0,o),
(616,12,o),
(616,27,cs),
(616,548,l),
(646,548,ls),
(661,548,o),
(673,560,o),
(673,575,cs),
(673,626,ls),
(673,641,o),
(661,653,o),
(646,653,cs),
(616,653,l),
(616,683,ls),
(616,698,o),
(604,710,o),
(589,710,cs),
(404,710,ls),
(389,710,o),
(377,698,o),
(377,683,cs),
(377,653,l),
(347,653,ls),
(332,653,o),
(320,641,o),
(320,626,cs),
(320,575,ls),
(320,560,o),
(332,548,o),
(347,548,cs),
(377,548,l),
(377,483,l),
(345,512,o),
(300,530,o),
(244,530,cs),
(128,530,o),
(38,457,o),
(32,300,cs),
(31,270,o),
(31,251,o),
(32,221,cs),
(39,54,o),
(128,-10,o),
(244,-10,cs)
);
},
{
closed = 1;
nodes = (
(290,169,o),
(281,191,o),
(277,227,cs),
(275,247,o),
(275,273,o),
(277,293,cs),
(281,329,o),
(290,351,o),
(327,351,cs),
(361,351,o),
(375,333,o),
(377,301,cs),
(379,271,o),
(379,257,o),
(377,227,cs),
(375,191,o),
(364,169,o),
(327,169,cs)
);
}
);
width = 662;
},
{
layerId = "5BD13F11-F1FA-4397-9D6F-5672E4B50E04";
shapes = (
{
closed = 1;
nodes = (
(324,-10,o),
(374,20,o),
(405,60,c),
(405,26,ls),
(405,11,o),
(416,0,o),
(430,0,cs),
(558,0,ls),
(572,0,o),
(583,11,o),
(583,26,cs),
(583,555,l),
(621,555,ls),
(635,555,o),
(647,566,o),
(647,580,cs),
(647,621,ls),
(647,635,o),
(635,646,o),
(621,646,cs),
(583,646,l),
(583,684,ls),
(583,699,o),
(572,710,o),
(558,710,cs),
(420,710,ls),
(405,710,o),
(394,699,o),
(394,684,cs),
(394,646,l),
(356,646,ls),
(342,646,o),
(331,635,o),
(331,621,cs),
(331,580,ls),
(331,566,o),
(342,555,o),
(356,555,cs),
(394,555,l),
(394,474,l),
(362,507,o),
(315,530,o),
(251,530,cs),
(118,530,o),
(44,437,o),
(39,297,cs),
(38,269,o),
(38,251,o),
(39,224,cs),
(45,77,o),
(118,-10,o),
(251,-10,cs)
);
},
{
closed = 1;
nodes = (
(253,135,o),
(236,175,o),
(232,228,cs),
(230,248,o),
(230,272,o),
(232,292,cs),
(236,345,o),
(253,385,o),
(313,385,cs),
(368,385,o),
(392,347,o),
(394,301,c),
(396,274,o),
(396,253,o),
(394,226,c),
(392,177,o),
(371,135,o),
(313,135,cs)
);
}
);
width = 639;
},
{
layerId = "C994FF3D-7AF7-4E09-8BD7-9052037F2305";
shapes = (
{
closed = 1;
nodes = (
(346,-10,o),
(397,23,o),
(429,67,c),
(429,23,ls),
(429,10,o),
(439,0,o),
(452,0,cs),
(498,0,ls),
(511,0,o),
(521,10,o),
(521,23,cs),
(521,567,l),
(574,567,ls),
(587,567,o),
(597,576,o),
(597,590,cs),
(597,611,ls),
(597,624,o),
(587,634,o),
(574,634,cs),
(521,634,l),
(521,687,ls),
(521,700,o),
(511,710,o),
(498,710,cs),
(450,710,ls),
(436,710,o),
(427,700,o),
(427,687,cs),
(427,634,l),
(374,634,ls),
(360,634,o),
(351,624,o),
(351,611,cs),
(351,590,ls),
(351,576,o),
(360,567,o),
(374,567,cs),
(427,567,l),
(427,457,l),
(394,498,o),
(343,530,o),
(265,530,cs),
(100,530,o),
(55,399,o),
(52,290,cs),
(51,268,o),
(51,252,o),
(52,230,cs),
(55,120,o),
(100,-10,o),
(265,-10,cs)
);
},
{
closed = 1;
nodes = (
(184,71,o),
(150,146,o),
(147,231,cs),
(146,251,o),
(146,269,o),
(147,289,cs),
(150,374,o),
(184,449,o),
(286,449,cs),
(382,449,o),
(425,373,o),
(427,302,cs),
(428,280,o),
(428,246,o),
(427,225,cs),
(424,151,o),
(385,71,o),
(286,71,cs)
);
}
);
width = 595;
},
{
layerId = "6EF32D45-28F0-4679-BEBE-D25700A745C9";
shapes = (
{
closed = 1;
nodes = (
(353,-10,o),
(405,24,o),
(438,69,c),
(438,22,ls),
(438,9,o),
(447,0,o),
(460,0,cs),
(477,0,ls),
(490,0,o),
(499,9,o),
(499,22,cs),
(499,571,l),
(557,571,ls),
(570,571,o),
(579,580,o),
(579,593,cs),
(579,607,ls),
(579,620,o),
(570,629,o),
(557,629,cs),
(499,629,l),
(499,688,ls),
(499,701,o),
(490,710,o),
(477,710,cs),
(460,710,ls),
(447,710,o),
(438,701,o),
(438,688,cs),
(438,629,l),
(380,629,ls),
(367,629,o),
(358,620,o),
(358,607,cs),
(358,593,ls),
(358,580,o),
(367,571,o),
(380,571,cs),
(438,571,l),
(438,451,l),
(405,495,o),
(353,530,o),
(270,530,cs),
(94,530,o),
(59,385,o),
(56,288,cs),
(55,268,o),
(55,252,o),
(56,232,cs),
(59,135,o),
(94,-10,o),
(270,-10,cs)
);
},
{
closed = 1;
nodes = (
(159,48,o),
(120,136,o),
(117,232,cs),
(116,252,o),
(116,268,o),
(117,288,cs),
(120,384,o),
(159,472,o),
(276,472,cs),
(387,472,o),
(436,382,o),
(438,302,cs),
(439,282,o),
(439,244,o),
(438,224,cs),
(435,142,o),
(390,48,o),
(276,48,cs)
);
}
);
width = 580;
}
);
leftKerningGroup = d;
rightKerningGroup = d;
unicode = 273;
},
{
color = 6;
glyphname = e;
layers = (
{
anchors = (
{
name = bottom;
position = "{312, 0}";
},
{
name = ogonek;
position = "{561, 10}";
},
{
name = top;
position = "{312, 520}";
}
);
hints = (
{
horizontal = 1;
place = (0,0);
type = Stem;
}
);
layerId = "CA6E37E7-75D1-4C8E-8071-E5CF96F45DBF";
shapes = (
{
closed = 1;
nodes = (
(499,-10,o),
(582,94,o),
(585,145,cs),
(586,158,o),
(576,167,o),
(563,167,cs),
(374,167,ls),
(358,167,o),
(353,165,o),
(341,153,cs),
(330,142,o),
(324,135,o),
(312,135,cs),
(283,135,o),
(273,156,o),
(273,196,cs),
(273,201,l),
(571,201,ls),
(586,201,o),
(598,213,o),
(598,228,cs),
(598,258,ls),
(598,405,o),
(509,530,o),
(313,530,cs),
(142,530,o),
(31,438,o),
(28,266,cs),
(28,264,o),
(28,261,o),
(28,259,cs),
(28,72,o),
(139,-10,o),
(314,-10,cs)
);
},
{
closed = 1;
nodes = (
(273,327,l),
(273,371,o),
(287,390,o),
(313,390,cs),
(339,390,o),
(353,371,o),
(353,327,c),
(353,326,l),
(273,326,l)
);
}
);
width = 623;
},
{
layerId = "5BD13F11-F1FA-4397-9D6F-5672E4B50E04";
shapes = (
{
closed = 1;
nodes = (
(482,-10,o),
(557,104,o),
(558,137,c),
(558,150,o),
(549,160,o),
(536,160,cs),
(417,160,ls),
(401,160,o),
(397,157,o),
(384,146,cs),
(367,130,o),
(345,120,o),
(301,120,cs),
(257,120,o),
(206,140,o),
(206,203,cs),
(206,205,l),
(540,205,ls),
(555,205,o),
(567,217,o),
(567,232,cs),
(567,260,ls),
(567,390,o),
(491,530,o),
(301,530,cs),
(132,530,o),
(37,418,o),
(36,266,cs),
(36,258,o),
(36,250,o),
(36,242,c),
(41,87,o),
(136,-10,o),
(301,-10,cs)
);
},
{
closed = 1;
nodes = (
(206,318,ls),
(206,363,o),
(247,400,o),
(301,400,cs),
(357,400,o),
(397,363,o),
(397,319,cs),
(397,313,l),
(206,313,l)
);
}
);
width = 601;
},
{
layerId = "C994FF3D-7AF7-4E09-8BD7-9052037F2305";
shapes = (
{
closed = 1;
nodes = (
(419,-10,o),
(487,66,o),
(494,113,cs),
(496,127,o),
(482,139,o),
(468,139,cs),
(440,139,ls),
(424,139,o),
(418,135,o),
(408,124,cs),
(387,100,o),
(355,72,o),
(279,72,cs),
(198,72,o),
(137,128,o),
(137,218,cs),
(137,225,l),
(482,225,ls),
(497,225,o),
(509,236,o),
(509,251,cs),
(509,276,ls),
(509,432,o),
(422,530,o),
(279,530,cs),
(147,530,o),
(63,433,o),
(52,309,cs),
(49,280,o),
(49,247,o),
(52,218,cs),
(63,87,o),
(148,-10,o),
(279,-10,cs)
);
},
{
closed = 1;
nodes = (
(137,308,ls),
(137,392,o),
(200,448,o),
(279,448,cs),
(366,448,o),
(423,392,o),
(423,308,cs),
(423,305,l),
(137,305,l)
);
}
);
width = 555;
},
{
anchors = (
{
name = bottom;
position = "{273, 0}";
},
{
name = ogonek;
position = "{381, 60}";
},
{
name = top;
position = "{274, 520}";
}
);
layerId = "6EF32D45-28F0-4679-BEBE-D25700A745C9";
shapes = (
{
closed = 1;
nodes = (
(400,-10,o),
(478,73,o),
(480,111,cs),
(481,123,o),
(471,131,o),
(459,131,cs),
(443,131,ls),
(428,131,o),
(425,130,o),
(413,113,cs),
(402,97,o),
(359,48,o),
(274,48,cs),
(177,48,o),
(116,134,o),
(116,225,cs),
(116,235,l),
(472,235,ls),
(485,235,o),
(495,244,o),
(495,257,cs),
(495,272,ls),
(495,432,o),
(413,530,o),
(274,530,cs),
(144,530,o),
(65,436,o),
(55,300,cs),
(54,280,o),
(54,240,o),
(55,220,cs),
(65,83,o),
(145,-10,o),
(274,-10,cs)
);
},
{
closed = 1;
nodes = (
(116,295,ls),
(116,395,o),
(174,472,o),
(274,472,cs),
(374,472,o),
(434,395,o),
(434,295,cs),
(434,291,l),
(116,291,l)
);
}
);
width = 546;
}
);
leftKerningGroup = o;
rightKerningGroup = e;
unicode = 101;
},
{
color = 6;
glyphname = eogonek;
layers = (
{
anchors = (
{
name = top;
position = "{312, 520}";
}
);
hints = (
{
horizontal = 1;
place = (0,0);
type = Stem;
}
);
layerId = "CA6E37E7-75D1-4C8E-8071-E5CF96F45DBF";
shapes = (
{
closed = 1;
nodes = (
(382,-220,l),
(397,-220,o),
(409,-208,o),
(409,-193,c),
(409,-125,l),
(409,-110,o),
(397,-98,o),
(382,-98,c),
(372,-98,l),
(333,-98,o),
(322,-70,o),
(322,-49,cs),
(322,-28,o),
(338,-12,o),
(380,-5,c),
(519,15,o),
(582,100,o),
(585,145,cs),
(586,158,o),
(576,167,o),
(563,167,c),
(374,167,l),
(358,167,o),
(353,165,o),
(341,153,cs),
(330,142,o),
(324,135,o),
(312,135,cs),
(283,135,o),
(273,156,o),
(273,196,c),
(273,201,l),
(571,201,l),
(586,201,o),
(598,213,o),
(598,228,c),
(598,258,l),
(598,405,o),
(509,530,o),
(313,530,cs),
(142,530,o),
(30,437,o),
(28,264,cs),
(28,262,o),
(28,261,o),
(28,259,cs),
(28,116,o),
(93,34,o),
(202,3,c),
(198,-13,o),
(196,-30,o),
(196,-49,cs),
(196,-144,o),
(247,-220,o),
(368,-220,cs)
);
},
{
closed = 1;
nodes = (
(273,327,l),
(273,371,o),
(287,390,o),
(313,390,cs),
(339,390,o),
(353,371,o),
(353,327,c),
(353,326,l),
(273,326,l)
);
}
);
width = 623;
},
{
layerId = "5BD13F11-F1FA-4397-9D6F-5672E4B50E04";
shapes = (
{
closed = 1;
nodes = (
(366,-220,ls),
(379,-220,o),
(388,-211,o),
(388,-198,cs),
(388,-138,ls),
(388,-125,o),
(379,-116,o),
(366,-116,cs),
(351,-116,ls),
(316,-116,o),
(296,-91,o),
(296,-58,cs),
(296,-25,o),
(315,-12,o),
(349,-7,cs),
(495,13,o),
(557,107,o),
(558,137,c),
(558,150,o),
(549,160,o),
(536,160,cs),
(417,160,ls),
(401,160,o),
(397,157,o),
(384,146,cs),
(367,130,o),
(345,120,o),
(301,120,cs),
(257,120,o),
(206,140,o),
(206,203,c),
(206,205,l),
(540,205,ls),
(555,205,o),
(567,217,o),
(567,232,cs),
(567,260,ls),
(567,390,o),
(491,530,o),
(301,530,cs),
(132,530,o),
(37,418,o),
(36,266,cs),
(36,261,o),
(36,256,o),
(36,252,cs),
(38,127,o),
(94,39,o),
(197,5,c),
(190,-13,o),
(187,-35,o),
(187,-58,cs),
(187,-153,o),
(248,-220,o),
(347,-220,cs)
);
},
{
closed = 1;
nodes = (
(206,316,l),
(206,360,o),
(248,400,o),
(301,400,cs),
(357,400,o),
(397,360,o),
(397,316,cs),
(397,313,l),
(206,313,l)
);
}
);
width = 601;
},
{
layerId = "C994FF3D-7AF7-4E09-8BD7-9052037F2305";
shapes = (
{
closed = 1;
nodes = (
(335,-220,ls),
(348,-220,o),
(357,-211,o),
(357,-198,cs),
(357,-172,ls),
(357,-159,o),
(348,-150,o),
(335,-150,cs),
(320,-150,ls),
(276,-150,o),
(252,-126,o),
(252,-75,cs),
(252,-29,o),
(274,-15,o),
(314,-8,c),
(430,4,o),
(488,70,o),
(494,113,cs),
(496,127,o),
(482,139,o),
(468,139,cs),
(440,139,ls),
(424,139,o),
(418,135,o),
(408,124,cs),
(387,100,o),
(355,72,o),
(279,72,cs),
(198,72,o),
(140,128,o),
(137,218,c),
(137,225,l),
(482,225,ls),
(497,225,o),
(509,236,o),
(509,251,cs),
(509,276,ls),
(509,432,o),
(422,530,o),
(279,530,cs),
(147,530,o),
(63,433,o),
(52,309,cs),
(49,280,o),
(49,247,o),
(52,218,cs),
(61,118,o),
(111,38,o),
(193,6,c),
(181,-16,o),
(174,-43,o),
(174,-75,cs),
(174,-169,o),
(235,-220,o),
(316,-220,cs)
);
},
{
closed = 1;
nodes = (
(137,308,l),
(138,392,o),
(200,448,o),
(279,448,cs),
(366,448,o),
(423,392,o),
(423,308,cs),
(423,305,l),
(137,305,l)
);
}
);
width = 556;
},
{
anchors = (
{
name = top;
position = "{274, 520}";
}
);
layerId = "6EF32D45-28F0-4679-BEBE-D25700A745C9";
shapes = (
{
closed = 1;
nodes = (
(345,-220,l),
(358,-220,o),
(367,-211,o),
(367,-198,c),
(367,-185,l),
(367,-172,o),
(358,-163,o),
(345,-163,c),
(330,-163,l),
(286,-163,o),
(254,-133,o),
(254,-82,cs),
(254,-35,o),
(280,-14,o),
(320,-6,cs),
(418,14,o),
(479,77,o),
(481,111,cs),
(482,123,o),
(472,131,o),
(460,131,cs),
(444,131,ls),
(429,131,o),
(426,130,o),
(414,113,cs),
(403,97,o),
(360,48,o),
(275,48,cs),
(178,48,o),
(121,134,o),
(117,225,c),
(117,235,l),
(473,235,ls),
(486,235,o),
(496,244,o),
(496,257,cs),
(496,272,ls),
(496,432,o),
(414,530,o),
(275,530,cs),
(145,530,o),
(66,436,o),
(56,300,cs),
(55,280,o),
(55,240,o),
(56,220,cs),
(64,106,o),
(120,23,o),
(213,-2,c),
(200,-23,o),
(194,-51,o),
(194,-82,cs),
(194,-167,o),
(245,-220,o),
(326,-220,c)
);
},
{
closed = 1;
nodes = (
(116,295,ls),
(116,395,o),
(174,472,o),
(274,472,cs),
(374,472,o),
(434,395,o),
(434,295,cs),
(434,291,l),
(116,291,l)
);
}
);
width = 547;
}
);
leftKerningGroup = o;
rightKerningGroup = e;
unicode = 281;
},
{
color = 6;
glyphname = f;
layers = (
{
anchors = (
{
name = bottom;
position = "{246, 0}";
},
{
name = top;
position = "{246, 750}";
}
);
hints = (
{
horizontal = 1;
place = (0,0);
type = Stem;
}
);
layerId = "CA6E37E7-75D1-4C8E-8071-E5CF96F45DBF";
shapes = (
{
closed = 1;
nodes = (
(313,0,ls),
(328,0,o),
(340,12,o),
(340,27,cs),
(340,345,l),
(454,345,ls),
(469,345,o),
(481,357,o),
(481,372,cs),
(481,493,ls),
(481,508,o),
(469,520,o),
(454,520,cs),
(340,520,l),
(340,532,ls),
(340,553,o),
(353,565,o),
(383,565,cs),
(464,565,ls),
(479,565,o),
(491,577,o),
(491,592,cs),
(491,713,ls),
(491,728,o),
(479,740,o),
(464,740,cs),
(371,740,ls),
(226,740,o),
(111,701,o),
(111,537,cs),
(111,520,l),
(42,520,ls),
(27,520,o),
(15,508,o),
(15,493,cs),
(15,372,ls),
(15,357,o),
(27,345,o),
(42,345,cs),
(111,345,l),
(111,27,ls),
(111,12,o),
(123,0,o),
(138,0,cs)
);
}
);
width = 492;
},
{
anchors = (
{
name = bottom;
position = "{227, 0}";
},
{
name = top;
position = "{227, 739}";
}
);
layerId = "5BD13F11-F1FA-4397-9D6F-5672E4B50E04";
shapes = (
{
closed = 1;
nodes = (
(273,0,ls),
(287,0,o),
(298,11,o),
(298,26,cs),
(298,378,l),
(417,378,ls),
(432,378,o),
(443,389,o),
(443,404,cs),
(443,494,ls),
(443,509,o),
(432,520,o),
(417,520,cs),
(298,520,l),
(298,543,ls),
(298,578,o),
(313,598,o),
(354,598,cs),
(427,598,ls),
(442,598,o),
(453,609,o),
(453,624,cs),
(453,714,ls),
(453,729,o),
(442,740,o),
(427,740,cs),
(346,740,ls),
(207,740,o),
(116,691,o),
(116,548,cs),
(116,520,l),
(42,520,ls),
(27,520,o),
(16,509,o),
(16,494,cs),
(16,404,ls),
(16,389,o),
(27,378,o),
(42,378,cs),
(116,378,l),
(116,26,ls),
(116,11,o),
(128,0,o),
(142,0,cs)
);
}
);
width = 455;
},
{
anchors = (
{
name = bottom;
position = "{192, 0}";
},
{
name = top;
position = "{192, 718}";
}
);
layerId = "C994FF3D-7AF7-4E09-8BD7-9052037F2305";
shapes = (
{
closed = 1;
nodes = (
(196,0,ls),
(209,0,o),
(219,10,o),
(219,23,cs),
(219,440,l),
(348,440,ls),
(361,440,o),
(371,450,o),
(371,463,cs),
(371,497,ls),
(371,510,o),
(361,520,o),
(348,520,cs),
(219,520,l),
(219,565,ls),
(219,626,o),
(237,660,o),
(300,660,cs),
(358,660,ls),
(371,660,o),
(381,670,o),
(381,683,cs),
(381,717,ls),
(381,730,o),
(371,740,o),
(358,740,cs),
(298,740,ls),
(172,740,o),
(126,673,o),
(126,570,cs),
(126,520,l),
(41,520,ls),
(28,520,o),
(18,510,o),
(18,497,cs),
(18,463,ls),
(18,450,o),
(28,440,o),
(41,440,cs),
(126,440,l),
(126,23,ls),
(126,10,o),
(136,0,o),
(149,0,cs)
);
}
);
width = 385;
},
{
anchors = (
{
name = bottom;
position = "{180, 0}";
},
{
name = top;
position = "{180, 710}";
}
);
layerId = "6EF32D45-28F0-4679-BEBE-D25700A745C9";
shapes = (
{
closed = 1;
nodes = (
(169,0,ls),
(182,0,o),
(191,9,o),
(191,22,cs),
(191,462,l),
(323,462,ls),
(336,462,o),
(345,471,o),
(345,484,cs),
(345,498,ls),
(345,511,o),
(336,520,o),
(323,520,cs),
(191,520,l),
(191,572,ls),
(191,643,o),
(210,682,o),
(281,682,cs),
(333,682,ls),
(346,682,o),
(355,691,o),
(355,704,cs),
(355,718,ls),
(355,731,o),
(346,740,o),
(333,740,cs),
(281,740,ls),
(159,740,o),
(130,666,o),
(130,577,cs),
(130,520,l),
(41,520,ls),
(28,520,o),
(19,511,o),
(19,498,cs),
(19,484,ls),
(19,471,o),
(28,462,o),
(41,462,cs),
(130,462,l),
(130,22,ls),
(130,9,o),
(139,0,o),
(152,0,cs)
);
}
);
width = 360;
}
);
leftKerningGroup = f;
rightKerningGroup = f;
unicode = 102;
},
{
color = 6;
glyphname = g;
layers = (
{
anchors = (
{
name = bottom;
position = "{333, -225}";
},
{
name = top;
position = "{327, 520}";
}
);
hints = (
{
horizontal = 1;
place = (0,0);
type = Stem;
}
);
layerId = "CA6E37E7-75D1-4C8E-8071-E5CF96F45DBF";
shapes = (
{
closed = 1;
nodes = (
(496,-220,o),
(621,-151,o),
(621,17,c),
(620,493,l),
(620,508,o),
(608,520,o),
(593,520,c),
(418,520,l),
(403,520,o),
(391,508,o),
(391,493,c),
(391,462,l),
(359,502,o),
(308,530,o),
(243,530,cs),
(117,530,o),
(39,457,o),
(31,300,c),
(30,280,o),
(30,269,o),
(31,249,c),
(40,82,o),
(117,23,o),
(243,23,cs),
(301,23,o),
(345,39,o),
(376,66,c),
(376,0,l),
(376,-40,o),
(362,-59,o),
(333,-59,cs),
(309,-59,o),
(300,-51,o),
(291,-34,cs),
(285,-22,o),
(278,-14,o),
(263,-14,c),
(68,-14,l),
(53,-14,o),
(40,-26,o),
(41,-41,cs),
(44,-84,o),
(112,-220,o),
(338,-220,cs)
);
},
{
closed = 1;
nodes = (
(289,197,o),
(279,219,o),
(276,255,cs),
(275,265,o),
(275,283,o),
(276,293,c),
(279,329,o),
(289,351,o),
(326,351,cs),
(360,351,o),
(373,333,o),
(376,301,cs),
(377,291,o),
(377,257,o),
(376,247,cs),
(373,215,o),
(360,197,o),
(326,197,cs)
);
}
);
width = 666;
},
{
anchors = (
{
name = bottom;
position = "{321, -225}";
},
{
name = top;
position = "{313, 520}";
}
);
layerId = "5BD13F11-F1FA-4397-9D6F-5672E4B50E04";
shapes = (
{
closed = 1;
nodes = (
(484,-220,o),
(587,-142,o),
(587,15,c),
(586,494,l),
(586,509,o),
(574,520,o),
(560,520,cs),
(430,520,ls),
(415,520,o),
(404,509,o),
(404,494,cs),
(404,459,l),
(372,500,o),
(320,530,o),
(251,530,cs),
(116,530,o),
(45,442,o),
(38,297,cs),
(37,277,o),
(37,264,o),
(38,244,cs),
(45,91,o),
(116,14,o),
(251,14,cs),
(315,14,o),
(362,35,o),
(393,67,c),
(393,0,ls),
(393,-65,o),
(367,-88,o),
(315,-88,cs),
(269,-88,o),
(254,-66,o),
(245,-44,cs),
(239,-31,o),
(231,-24,o),
(218,-24,cs),
(74,-24,ls),
(60,-24,o),
(47,-36,o),
(48,-50,cs),
(51,-92,o),
(110,-220,o),
(320,-220,cs)
);
},
{
closed = 1;
nodes = (
(252,155,o),
(234,196,o),
(231,248,cs),
(230,261,o),
(230,279,o),
(231,292,cs),
(234,345,o),
(252,385,o),
(312,385,cs),
(368,385,o),
(390,346,o),
(393,300,cs),
(394,287,o),
(394,253,o),
(393,240,cs),
(390,195,o),
(368,155,o),
(312,155,cs)
);
}
);
width = 642;
},
{
anchors = (
{
name = bottom;
position = "{299, -225}";
},
{
name = top;
position = "{287, 520}";
}
);
layerId = "C994FF3D-7AF7-4E09-8BD7-9052037F2305";
shapes = (
{
closed = 1;
nodes = (
(461,-220,o),
(522,-124,o),
(522,11,c),
(522,496,l),
(522,510,o),
(511,520,o),
(498,520,cs),
(452,520,ls),
(439,520,o),
(429,510,o),
(429,496,cs),
(429,453,l),
(396,496,o),
(344,530,o),
(265,530,cs),
(115,530,o),
(55,415,o),
(51,290,cs),
(50,270,o),
(50,255,o),
(51,235,cs),
(55,109,o),
(115,-4,o),
(265,-4,cs),
(342,-4,o),
(394,27,o),
(426,68,c),
(426,0,ls),
(426,-111,o),
(376,-143,o),
(282,-143,cs),
(193,-143,o),
(168,-93,o),
(157,-64,cs),
(151,-47,o),
(143,-43,o),
(132,-43,cs),
(84,-43,ls),
(72,-43,o),
(60,-54,o),
(61,-67,cs),
(64,-108,o),
(106,-220,o),
(287,-220,cs)
);
},
{
closed = 1;
nodes = (
(183,76,o),
(150,152,o),
(147,236,cs),
(146,254,o),
(146,271,o),
(147,289,cs),
(150,374,o),
(183,449,o),
(285,449,cs),
(384,449,o),
(423,370,o),
(426,297,cs),
(427,279,o),
(427,246,o),
(426,228,cs),
(423,156,o),
(384,76,o),
(285,76,cs)
);
}
);
width = 597;
},
{
anchors = (
{
name = bottom;
position = "{291, -225}";
},
{
name = top;
position = "{278, 520}";
}
);
layerId = "6EF32D45-28F0-4679-BEBE-D25700A745C9";
shapes = (
{
closed = 1;
nodes = (
(453,-220,o),
(499,-118,o),
(499,10,cs),
(499,497,ls),
(499,510,o),
(489,520,o),
(476,520,cs),
(460,520,ls),
(447,520,o),
(438,510,o),
(438,497,cs),
(438,451,l),
(405,495,o),
(352,530,o),
(270,530,cs),
(114,530,o),
(59,405,o),
(56,288,cs),
(55,268,o),
(55,252,o),
(56,232,cs),
(59,115,o),
(114,-10,o),
(270,-10,cs),
(352,-10,o),
(405,24,o),
(438,69,c),
(438,0,ls),
(438,-127,o),
(379,-162,o),
(270,-162,cs),
(166,-162,o),
(137,-103,o),
(126,-71,cs),
(120,-53,o),
(112,-50,o),
(102,-50,cs),
(88,-50,ls),
(76,-50,o),
(65,-60,o),
(66,-73,cs),
(68,-113,o),
(105,-220,o),
(275,-220,cs)
);
},
{
closed = 1;
nodes = (
(159,48,o),
(120,136,o),
(117,232,cs),
(116,252,o),
(116,268,o),
(117,288,cs),
(120,384,o),
(159,472,o),
(276,472,cs),
(390,472,o),
(434,378,o),
(438,296,c),
(439,276,o),
(439,244,o),
(438,224,c),
(434,142,o),
(390,48,o),
(276,48,cs)
);
}
);
width = 581;
}
);
leftKerningGroup = g;
rightKerningGroup = u;
unicode = 103;
},
{
color = 6;
glyphname = h;
layers = (
{
anchors = (
{
name = bottom;
position = "{343, 0}";
},
{
name = center;
position = "{187, 599}";
},
{
name = top;
position = "{343, 676}";
}
);
layerId = "CA6E37E7-75D1-4C8E-8071-E5CF96F45DBF";
shapes = (
{
closed = 1;
nodes = (
(267,0,ls),
(282,0,o),
(294,12,o),
(294,27,cs),
(294,296,ls),
(294,332,o),
(313,351,o),
(345,351,cs),
(377,351,o),
(395,332,o),
(395,296,cs),
(395,27,ls),
(395,12,o),
(407,0,o),
(422,0,cs),
(618,0,ls),
(633,0,o),
(645,12,o),
(645,27,cs),
(645,303,ls),
(645,461,o),
(547,530,o),
(446,530,cs),
(384,530,o),
(329,506,o),
(294,468,c),
(294,683,ls),
(294,698,o),
(282,710,o),
(267,710,cs),
(72,710,ls),
(57,710,o),
(45,698,o),
(45,683,cs),
(45,27,ls),
(45,12,o),
(57,0,o),
(72,0,cs)
);
}
);
width = 685;
},
{
anchors = (
{
name = bottom;
position = "{330, 0}";
},
{
name = center;
position = "{175, 598}";
},
{
name = top;
position = "{330, 676}";
}
);
layerId = "5BD13F11-F1FA-4397-9D6F-5672E4B50E04";
shapes = (
{
closed = 1;
nodes = (
(226,0,ls),
(240,0,o),
(251,11,o),
(251,26,cs),
(251,297,ls),
(251,353,o),
(283,385,o),
(333,385,cs),
(384,385,o),
(412,353,o),
(412,297,cs),
(412,26,ls),
(412,11,o),
(423,0,o),
(437,0,cs),
(583,0,ls),
(597,0,o),
(608,11,o),
(608,26,cs),
(608,304,ls),
(608,453,o),
(519,530,o),
(408,530,cs),
(339,530,o),
(287,504,o),
(251,463,c),
(251,684,ls),
(251,699,o),
(240,710,o),
(226,710,cs),
(81,710,ls),
(67,710,o),
(55,699,o),
(55,684,cs),
(55,26,ls),
(55,11,o),
(67,0,o),
(81,0,cs)
);
}
);
width = 659;
},
{
anchors = (
{
name = bottom;
position = "{305, 0}";
},
{
name = center;
position = "{151, 597}";
},
{
name = top;
position = "{306, 675}";
}
);
layerId = "C994FF3D-7AF7-4E09-8BD7-9052037F2305";
shapes = (
{
closed = 1;
nodes = (
(148,0,ls),
(162,0,o),
(171,10,o),
(171,23,cs),
(171,300,ls),
(171,394,o),
(226,449,o),
(309,449,cs),
(397,449,o),
(443,393,o),
(443,300,cs),
(443,23,ls),
(443,10,o),
(453,0,o),
(466,0,cs),
(516,0,ls),
(530,0,o),
(539,10,o),
(539,23,cs),
(539,305,ls),
(539,438,o),
(466,530,o),
(336,530,cs),
(255,530,o),
(207,500,o),
(171,454,c),
(171,687,ls),
(171,700,o),
(162,710,o),
(148,710,cs),
(98,710,ls),
(85,710,o),
(75,700,o),
(75,687,cs),
(75,23,ls),
(75,10,o),
(85,0,o),
(98,0,cs)
);
}
);
width = 609;
},
{
anchors = (
{
name = bottom;
position = "{296, 0}";
},
{
name = center;
position = "{143, 597}";
},
{
name = top;
position = "{298, 675}";
}
);
layerId = "6EF32D45-28F0-4679-BEBE-D25700A745C9";
shapes = (
{
closed = 1;
nodes = (
(121,0,ls),
(134,0,o),
(143,9,o),
(143,22,cs),
(143,301,ls),
(143,408,o),
(206,472,o),
(301,472,cs),
(401,472,o),
(454,407,o),
(454,301,cs),
(454,22,ls),
(454,9,o),
(463,0,o),
(476,0,cs),
(493,0,ls),
(506,0,o),
(515,9,o),
(515,22,cs),
(515,306,ls),
(515,433,o),
(447,530,o),
(311,530,cs),
(225,530,o),
(179,498,o),
(143,451,c),
(143,688,ls),
(143,701,o),
(134,710,o),
(121,710,cs),
(104,710,ls),
(91,710,o),
(82,701,o),
(82,688,cs),
(82,22,ls),
(82,9,o),
(91,0,o),
(104,0,cs)
);
}
);
width = 591;
}
);
leftKerningGroup = l;
rightKerningGroup = n;
unicode = 104;
},
{
color = 3;
glyphname = hbar;
layers = (
{
hints = (
{
horizontal = 1;
place = (0,0);
type = Stem;
}
);
layerId = "CA6E37E7-75D1-4C8E-8071-E5CF96F45DBF";
shapes = (
{
closed = 1;
nodes = (
(319,538,ls),
(334,538,o),
(346,550,o),
(346,565,cs),
(346,616,ls),
(346,631,o),
(334,643,o),
(319,643,cs),
(20,643,ls),
(5,643,o),
(-7,631,o),
(-7,616,cs),
(-7,565,ls),
(-7,550,o),
(5,538,o),
(20,538,cs)
);
},
{
alignment = -1;
ref = h;
}
);
width = 685;
},
{
anchors = (
{
name = bottom;
position = "{330, 0}";
},
{
name = center;
position = "{175, 598}";
},
{
name = top;
position = "{330, 676}";
}
);
layerId = "5BD13F11-F1FA-4397-9D6F-5672E4B50E04";
shapes = (
{
closed = 1;
nodes = (
(285,547,ls),
(300,547,o),
(311,558,o),
(311,573,cs),
(311,614,ls),
(311,628,o),
(300,639,o),
(285,639,cs),
(21,639,ls),
(6,639,o),
(-5,628,o),
(-5,614,cs),
(-5,573,ls),
(-5,558,o),
(6,547,o),
(21,547,cs)
);
},
{
alignment = -1;
ref = h;
}
);
width = 659;
},
{
anchors = (
{
name = bottom;
position = "{305, 0}";
},
{
name = center;
position = "{151, 597}";
},
{
name = top;
position = "{306, 675}";
}
);
layerId = "C994FF3D-7AF7-4E09-8BD7-9052037F2305";
shapes = (
{
closed = 1;
nodes = (
(222,565,ls),
(236,565,o),
(245,574,o),
(245,588,cs),
(245,609,ls),
(245,622,o),
(236,632,o),
(222,632,cs),
(22,632,ls),
(9,632,o),
(-1,622,o),
(-1,609,cs),
(-1,588,ls),
(-1,574,o),
(9,565,o),
(22,565,cs)
);
},
{
alignment = -1;
ref = h;
}
);
width = 609;
},
{
layerId = "6EF32D45-28F0-4679-BEBE-D25700A745C9";
shapes = (
{
closed = 1;
nodes = (
(200,571,ls),
(213,571,o),
(222,580,o),
(222,593,cs),
(222,607,ls),
(222,620,o),
(213,629,o),
(200,629,cs),
(23,629,ls),
(10,629,o),
(1,620,o),
(1,607,cs),
(1,593,ls),
(1,580,o),
(10,571,o),
(23,571,cs)
);
},
{
alignment = -1;
ref = h;
}
);
width = 591;
}
);
leftKerningGroup = h;
rightKerningGroup = n;
unicode = 295;
},
{
color = 6;
glyphname = i;
layers = (
{
anchors = (
{
name = bottom;
position = "{162, 0}";
},
{
name = top;
position = "{166, 772}";
}
);
hints = (
{
horizontal = 1;
place = (0,0);
type = Stem;
}
);
layerId = "CA6E37E7-75D1-4C8E-8071-E5CF96F45DBF";
shapes = (
{
closed = 1;
nodes = (
(251,0,ls),
(266,0,o),
(278,12,o),
(278,27,cs),
(278,493,ls),
(278,508,o),
(266,520,o),
(251,520,cs),
(72,520,ls),
(57,520,o),
(45,508,o),
(45,493,cs),
(45,27,ls),
(45,12,o),
(57,0,o),
(72,0,cs)
);
},
{
closed = 1;
nodes = (
(246,575,ls),
(261,575,o),
(273,587,o),
(273,602,cs),
(273,723,ls),
(273,738,o),
(261,750,o),
(246,750,cs),
(77,750,ls),
(62,750,o),
(50,738,o),
(50,723,cs),
(50,602,ls),
(50,587,o),
(62,575,o),
(77,575,cs)
);
}
);
width = 323;
},
{
anchors = (
{
name = bottom;
position = "{148, 0}";
},
{
name = top;
position = "{151, 755}";
}
);
layerId = "5BD13F11-F1FA-4397-9D6F-5672E4B50E04";
shapes = (
{
closed = 1;
nodes = (
(214,0,ls),
(229,0,o),
(240,11,o),
(240,26,cs),
(240,494,ls),
(240,509,o),
(229,520,o),
(214,520,cs),
(81,520,ls),
(66,520,o),
(55,509,o),
(55,494,cs),
(55,26,ls),
(55,11,o),
(66,0,o),
(81,0,cs)
);
},
{
closed = 1;
nodes = (
(213,590,ls),
(228,590,o),
(239,601,o),
(239,615,cs),
(239,713,ls),
(239,727,o),
(228,739,o),
(213,739,cs),
(81,739,ls),
(67,739,o),
(56,727,o),
(56,713,cs),
(56,615,ls),
(56,601,o),
(67,590,o),
(81,590,cs)
);
}
);
width = 295;
},
{
anchors = (
{
name = bottom;
position = "{121, 0}";
},
{
name = top;
position = "{122, 722}";
}
);
layerId = "C994FF3D-7AF7-4E09-8BD7-9052037F2305";
shapes = (
{
closed = 1;
nodes = (
(145,0,ls),
(158,0,o),
(168,10,o),
(168,23,cs),
(168,497,ls),
(168,510,o),
(158,520,o),
(145,520,cs),
(97,520,ls),
(84,520,o),
(74,510,o),
(74,497,cs),
(74,23,ls),
(74,10,o),
(84,0,o),
(97,0,cs)
);
},
{
closed = 1;
nodes = (
(152,617,ls),
(165,617,o),
(176,627,o),
(176,640,cs),
(176,694,ls),
(176,707,o),
(165,718,o),
(152,718,cs),
(89,718,ls),
(76,718,o),
(66,707,o),
(66,694,cs),
(66,640,ls),
(66,627,o),
(76,617,o),
(89,617,cs)
);
}
);
width = 242;
},
{
anchors = (
{
name = bottom;
position = "{112, 0}";
},
{
name = top;
position = "{112, 710}";
}
);
layerId = "6EF32D45-28F0-4679-BEBE-D25700A745C9";
shapes = (
{
closed = 1;
nodes = (
(120,0,ls),
(133,0,o),
(142,9,o),
(142,22,cs),
(142,498,ls),
(142,511,o),
(133,520,o),
(120,520,cs),
(103,520,ls),
(90,520,o),
(81,511,o),
(81,498,cs),
(81,22,ls),
(81,9,o),
(90,0,o),
(103,0,cs)
);
},
{
closed = 1;
nodes = (
(130,627,ls),
(143,627,o),
(153,636,o),
(153,649,cs),
(153,687,ls),
(153,700,o),
(143,710,o),
(130,710,cs),
(92,710,ls),
(79,710,o),
(70,700,o),
(70,687,cs),
(70,649,ls),
(70,636,o),
(79,627,o),
(92,627,cs)
);
}
);
width = 223;
}
);
leftKerningGroup = i;
rightKerningGroup = i;
unicode = 105;
},
{
color = 6;
glyphname = dotlessi;
layers = (
{
anchors = (
{
name = bottom;
position = "{162, 0}";
},
{
name = ogonek;
position = "{291, 10}";
},
{
name = top;
position = "{162, 520}";
}
);
hints = (
{
horizontal = 1;
place = (0,0);
type = Stem;
}
);
layerId = "CA6E37E7-75D1-4C8E-8071-E5CF96F45DBF";
shapes = (
{
closed = 1;
nodes = (
(251,0,l),
(266,0,o),
(278,12,o),
(278,27,cs),
(278,493,ls),
(278,508,o),
(266,520,o),
(251,520,cs),
(72,520,ls),
(57,520,o),
(45,508,o),
(45,493,cs),
(45,27,ls),
(45,12,o),
(57,0,o),
(72,0,cs)
);
}
);
width = 323;
},
{
anchors = (
{
name = bottom;
position = "{148, 0}";
},
{
name = ogonek;
position = "{249, 23}";
},
{
name = top;
position = "{148, 520}";
}
);
layerId = "5BD13F11-F1FA-4397-9D6F-5672E4B50E04";
shapes = (
{
closed = 1;
nodes = (
(214,0,ls),
(229,0,o),
(240,11,o),
(240,26,cs),
(240,494,ls),
(240,509,o),
(229,520,o),
(214,520,cs),
(81,520,ls),
(66,520,o),
(55,509,o),
(55,494,cs),
(55,26,ls),
(55,11,o),
(66,0,o),
(81,0,cs)
);
}
);
width = 295;
},
{
anchors = (
{
name = bottom;
position = "{121, 0}";
},
{
name = ogonek;
position = "{169, 48}";
},
{
name = top;
position = "{121, 520}";
}
);
layerId = "C994FF3D-7AF7-4E09-8BD7-9052037F2305";
shapes = (
{
closed = 1;
nodes = (
(145,0,ls),
(158,0,o),
(168,10,o),
(168,23,cs),
(168,497,ls),
(168,510,o),
(158,520,o),
(145,520,cs),
(97,520,ls),
(84,520,o),
(74,510,o),
(74,497,cs),
(74,23,ls),
(74,10,o),
(84,0,o),
(97,0,cs)
);
}
);
width = 242;
},
{
anchors = (
{
name = bottom;
position = "{112, 0}";
},
{
name = ogonek;
position = "{141, 57}";
},
{
name = top;
position = "{112, 520}";
}
);
layerId = "6EF32D45-28F0-4679-BEBE-D25700A745C9";
shapes = (
{
closed = 1;
nodes = (
(120,0,ls),
(133,0,o),
(142,9,o),
(142,22,cs),
(142,498,ls),
(142,511,o),
(133,520,o),
(120,520,cs),
(103,520,ls),
(90,520,o),
(81,511,o),
(81,498,cs),
(81,22,ls),
(81,9,o),
(90,0,o),
(103,0,cs)
);
}
);
width = 223;
}
);
leftKerningGroup = i;
rightKerningGroup = i;
unicode = 305;
},
{
color = 6;
glyphname = iogonek;
layers = (
{
hints = (
{
horizontal = 1;
place = (0,0);
type = Stem;
}
);
layerId = "CA6E37E7-75D1-4C8E-8071-E5CF96F45DBF";
shapes = (
{
closed = 1;
nodes = (
(251,-192,ls),
(266,-192,o),
(278,-180,o),
(278,-165,cs),
(278,-107,ls),
(278,-92,o),
(266,-80,o),
(251,-80,c),
(241,-80,ls),
(202,-80,o),
(191,-61,o),
(191,-40,cs),
(191,-19,o),
(202,0,o),
(241,0,cs),
(251,0,ls),
(266,0,o),
(278,12,o),
(278,27,cs),
(278,493,ls),
(278,508,o),
(266,520,o),
(251,520,cs),
(72,520,ls),
(57,520,o),
(45,508,o),
(45,493,cs),
(45,27,ls),
(45,12,o),
(57,0,o),
(72,0,cs),
(79,0,l),
(76,-12,o),
(75,-26,o),
(75,-40,cs),
(75,-125,o),
(126,-192,o),
(237,-192,cs)
);
},
{
closed = 1;
nodes = (
(246,575,ls),
(261,575,o),
(273,587,o),
(273,602,cs),
(273,723,ls),
(273,738,o),
(261,750,o),
(246,750,cs),
(77,750,ls),
(62,750,o),
(50,738,o),
(50,723,cs),
(50,602,ls),
(50,587,o),
(62,575,o),
(77,575,cs)
);
}
);
width = 323;
},
{
layerId = "5BD13F11-F1FA-4397-9D6F-5672E4B50E04";
shapes = (
{
closed = 1;
nodes = (
(223,-200,ls),
(237,-200,o),
(249,-189,o),
(249,-174,cs),
(249,-129,ls),
(249,-115,o),
(237,-103,o),
(223,-103,cs),
(212,-103,ls),
(171,-103,o),
(154,-81,o),
(154,-52,cs),
(154,-22,o),
(171,0,o),
(212,0,cs),
(220,0,ls),
(235,0,o),
(246,11,o),
(246,26,cs),
(246,494,ls),
(246,509,o),
(235,520,o),
(220,520,cs),
(87,520,ls),
(72,520,o),
(61,509,o),
(61,494,cs),
(61,37,ls),
(61,26,o),
(70,17,o),
(80,16,c),
(86,15,l),
(66,3,o),
(54,-21,o),
(54,-52,cs),
(54,-137,o),
(105,-200,o),
(208,-200,cs)
);
},
{
closed = 1;
nodes = (
(219,590,ls),
(234,590,o),
(245,601,o),
(245,615,cs),
(245,713,ls),
(245,727,o),
(234,739,o),
(219,739,cs),
(87,739,ls),
(73,739,o),
(61,727,o),
(61,713,cs),
(61,615,ls),
(61,601,o),
(73,590,o),
(87,590,cs)
);
}
);
width = 301;
},
{
layerId = "C994FF3D-7AF7-4E09-8BD7-9052037F2305";
shapes = (
{
closed = 1;
nodes = (
(170,-215,ls),
(183,-215,o),
(193,-205,o),
(193,-192,cs),
(193,-170,ls),
(193,-157,o),
(183,-147,o),
(170,-147,cs),
(156,-147,ls),
(113,-147,o),
(85,-120,o),
(85,-74,cs),
(85,-29,o),
(113,0,o),
(156,0,cs),
(162,0,ls),
(175,0,o),
(185,10,o),
(185,23,cs),
(185,497,ls),
(185,510,o),
(175,520,o),
(162,520,cs),
(114,520,ls),
(101,520,o),
(91,510,o),
(91,497,cs),
(91,57,ls),
(91,53,o),
(94,49,o),
(96,47,c),
(98,44,l),
(46,32,o),
(14,-11,o),
(14,-74,cs),
(14,-159,o),
(65,-215,o),
(152,-215,cs)
);
},
{
closed = 1;
nodes = (
(169,617,ls),
(182,617,o),
(193,627,o),
(193,640,cs),
(193,694,ls),
(193,707,o),
(182,718,o),
(169,718,cs),
(106,718,ls),
(93,718,o),
(83,707,o),
(83,694,cs),
(83,640,ls),
(83,627,o),
(93,617,o),
(106,617,cs)
);
}
);
width = 259;
},
{
layerId = "6EF32D45-28F0-4679-BEBE-D25700A745C9";
shapes = (
{
closed = 1;
nodes = (
(151,-220,l),
(164,-220,o),
(173,-211,o),
(173,-198,c),
(173,-185,l),
(173,-172,o),
(164,-163,o),
(151,-163,c),
(136,-163,l),
(92,-163,o),
(60,-133,o),
(60,-82,cs),
(60,-31,o),
(92,0,o),
(136,0,c),
(141,0,l),
(154,0,o),
(163,9,o),
(163,22,c),
(163,498,l),
(163,511,o),
(154,520,o),
(141,520,c),
(124,520,l),
(111,520,o),
(102,511,o),
(102,498,c),
(102,64,l),
(102,62,o),
(102,60,o),
(102,58,c),
(102,54,l),
(39,42,o),
(0,-8,o),
(0,-82,cs),
(0,-167,o),
(51,-220,o),
(132,-220,c)
);
},
{
closed = 1;
nodes = (
(151,627,l),
(164,627,o),
(174,636,o),
(174,649,c),
(174,687,l),
(174,700,o),
(164,710,o),
(151,710,c),
(113,710,l),
(100,710,o),
(91,700,o),
(91,687,c),
(91,649,l),
(91,636,o),
(100,627,o),
(113,627,c)
);
}
);
width = 244;
}
);
leftKerningGroup = i;
rightKerningGroup = i;
unicode = 303;
},
{
color = 6;
glyphname = j;
layers = (
{
anchors = (
{
name = top;
position = "{179, 772}";
}
);
layerId = "CA6E37E7-75D1-4C8E-8071-E5CF96F45DBF";
shapes = (
{
closed = 1;
nodes = (
(45,-190,ls),
(190,-190,o),
(300,-121,o),
(300,29,cs),
(300,493,ls),
(300,508,o),
(288,520,o),
(273,520,cs),
(85,520,ls),
(70,520,o),
(58,508,o),
(58,493,cs),
(58,35,ls),
(58,4,o),
(45,-15,o),
(15,-15,cs),
(-43,-15,ls),
(-58,-15,o),
(-70,-27,o),
(-70,-42,cs),
(-70,-163,ls),
(-70,-178,o),
(-58,-190,o),
(-43,-190,cs)
);
},
{
closed = 1;
nodes = (
(268,575,ls),
(283,575,o),
(295,587,o),
(295,602,cs),
(295,723,ls),
(295,738,o),
(283,750,o),
(268,750,cs),
(90,750,ls),
(75,750,o),
(63,738,o),
(63,723,cs),
(63,602,ls),
(63,587,o),
(75,575,o),
(90,575,cs)
);
}
);
width = 345;
},
{
anchors = (
{
name = top;
position = "{162, 755}";
}
);
layerId = "5BD13F11-F1FA-4397-9D6F-5672E4B50E04";
shapes = (
{
closed = 1;
nodes = (
(32,-190,ls),
(171,-190,o),
(258,-120,o),
(258,15,cs),
(258,494,ls),
(258,509,o),
(247,520,o),
(233,520,cs),
(93,520,ls),
(78,520,o),
(67,509,o),
(67,494,cs),
(67,19,ls),
(67,-21,o),
(55,-48,o),
(11,-48,cs),
(-32,-48,ls),
(-47,-48,o),
(-58,-59,o),
(-58,-74,cs),
(-58,-164,ls),
(-58,-179,o),
(-47,-190,o),
(-32,-190,cs)
);
},
{
closed = 1;
nodes = (
(232,590,ls),
(246,590,o),
(258,601,o),
(258,615,cs),
(258,713,ls),
(258,727,o),
(246,739,o),
(232,739,cs),
(93,739,ls),
(79,739,o),
(68,727,o),
(68,713,cs),
(68,615,ls),
(68,601,o),
(79,590,o),
(93,590,cs)
);
}
);
width = 314;
},
{
anchors = (
{
name = top;
position = "{131, 722}";
}
);
layerId = "C994FF3D-7AF7-4E09-8BD7-9052037F2305";
shapes = (
{
closed = 1;
nodes = (
(8,-190,ls),
(135,-190,o),
(179,-117,o),
(179,-12,cs),
(179,497,ls),
(179,510,o),
(169,520,o),
(156,520,cs),
(107,520,ls),
(94,520,o),
(84,510,o),
(84,497,cs),
(84,-11,ls),
(84,-67,o),
(74,-110,o),
(3,-110,cs),
(-11,-110,ls),
(-25,-110,o),
(-34,-120,o),
(-34,-133,cs),
(-34,-167,ls),
(-34,-180,o),
(-25,-190,o),
(-11,-190,cs)
);
},
{
closed = 1;
nodes = (
(163,617,ls),
(177,617,o),
(187,627,o),
(187,640,cs),
(187,694,ls),
(187,707,o),
(177,718,o),
(163,718,cs),
(99,718,ls),
(86,718,o),
(76,707,o),
(76,694,cs),
(76,640,ls),
(76,627,o),
(86,617,o),
(99,617,cs)
);
}
);
width = 254;
},
{
anchors = (
{
name = top;
position = "{120, 710}";
}
);
layerId = "6EF32D45-28F0-4679-BEBE-D25700A745C9";
shapes = (
{
closed = 1;
nodes = (
(0,-190,ls),
(122,-190,o),
(151,-116,o),
(151,-22,cs),
(151,498,ls),
(151,511,o),
(142,520,o),
(129,520,cs),
(112,520,ls),
(99,520,o),
(90,511,o),
(90,498,cs),
(90,-22,ls),
(90,-83,o),
(81,-132,o),
(0,-132,cs),
(-4,-132,ls),
(-17,-132,o),
(-26,-141,o),
(-26,-154,cs),
(-26,-168,ls),
(-26,-181,o),
(-17,-190,o),
(-4,-190,cs)
);
},
{
closed = 1;
nodes = (
(139,627,ls),
(152,627,o),
(162,636,o),
(162,649,cs),
(162,687,ls),
(162,700,o),
(152,710,o),
(139,710,cs),
(101,710,ls),
(88,710,o),
(79,700,o),
(79,687,cs),
(79,649,ls),
(79,636,o),
(88,627,o),
(101,627,cs)
);
}
);
width = 233;
}
);
rightKerningGroup = i;
unicode = 106;
},
{
color = 6;
glyphname = dotlessj;
layers = (
{
anchors = (
{
name = bottom;
position = "{241, -225}";
},
{
name = top;
position = "{241, 520}";
}
);
hints = (
{
horizontal = 1;
place = (0,0);
type = Stem;
}
);
layerId = "CA6E37E7-75D1-4C8E-8071-E5CF96F45DBF";
shapes = (
{
closed = 1;
nodes = (
(182,-190,l),
(327,-190,o),
(437,-94,o),
(437,70,cs),
(437,493,ls),
(437,508,o),
(425,520,o),
(410,520,cs),
(52,520,ls),
(37,520,o),
(25,508,o),
(25,493,cs),
(25,364,ls),
(25,349,o),
(37,337,o),
(52,337,cs),
(193,337,l),
(193,70,ls),
(193,39,o),
(180,20,o),
(150,20,cs),
(49,20,ls),
(34,20,o),
(22,8,o),
(22,-7,cs),
(22,-163,ls),
(22,-178,o),
(34,-190,o),
(49,-190,cs)
);
}
);
width = 482;
},
{
anchors = (
{
name = bottom;
position = "{211, -225}";
},
{
name = top;
position = "{206, 520}";
}
);
layerId = "5BD13F11-F1FA-4397-9D6F-5672E4B50E04";
shapes = (
{
closed = 1;
nodes = (
(141,-190,ls),
(280,-190,o),
(367,-100,o),
(367,44,cs),
(367,494,ls),
(367,509,o),
(355,520,o),
(341,520,cs),
(49,520,ls),
(35,520,o),
(24,509,o),
(24,494,cs),
(24,398,ls),
(24,383,o),
(35,372,o),
(49,372,cs),
(174,372,l),
(174,44,ls),
(174,5,o),
(162,-23,o),
(118,-23,cs),
(44,-23,ls),
(30,-23,o),
(19,-34,o),
(19,-48,cs),
(19,-164,ls),
(19,-179,o),
(30,-190,o),
(44,-190,cs)
);
}
);
width = 422;
},
{
anchors = (
{
name = bottom;
position = "{155, -225}";
},
{
name = top;
position = "{139, 520}";
}
);
layerId = "C994FF3D-7AF7-4E09-8BD7-9052037F2305";
shapes = (
{
closed = 1;
nodes = (
(63,-190,ls),
(190,-190,o),
(234,-112,o),
(234,-5,cs),
(234,497,ls),
(234,510,o),
(224,520,o),
(211,520,cs),
(44,520,ls),
(31,520,o),
(21,510,o),
(21,497,cs),
(21,462,ls),
(21,448,o),
(31,439,o),
(44,439,cs),
(139,439,l),
(139,-5,ls),
(139,-60,o),
(129,-104,o),
(57,-104,cs),
(35,-104,ls),
(22,-104,o),
(12,-113,o),
(12,-126,cs),
(12,-167,ls),
(12,-180,o),
(22,-190,o),
(35,-190,cs)
);
}
);
width = 309;
},
{
anchors = (
{
name = bottom;
position = "{135, -225}";
},
{
name = top;
position = "{115, 520}";
}
);
layerId = "6EF32D45-28F0-4679-BEBE-D25700A745C9";
shapes = (
{
closed = 1;
nodes = (
(36,-190,ls),
(158,-190,o),
(187,-116,o),
(187,-22,cs),
(187,498,ls),
(187,511,o),
(178,520,o),
(165,520,cs),
(42,520,ls),
(29,520,o),
(20,511,o),
(20,498,cs),
(20,484,ls),
(20,471,o),
(29,462,o),
(42,462,cs),
(126,462,l),
(126,-22,ls),
(126,-83,o),
(117,-132,o),
(36,-132,cs),
(32,-132,ls),
(19,-132,o),
(10,-141,o),
(10,-154,cs),
(10,-168,ls),
(10,-181,o),
(19,-190,o),
(32,-190,cs)
);
}
);
width = 269;
}
);
leftKerningGroup = dotlessj;
rightKerningGroup = i;
unicode = 567;
},
